G04*
G04 #@! TF.GenerationSoftware,Altium Limited,Altium Designer,18.0.7 (293)*
G04*
G04 Layer_Color=3326705*
%FSLAX25Y25*%
%MOIN*%
G70*
G01*
G75*
%ADD30C,0.00800*%
%ADD31C,0.01000*%
%ADD33C,0.03937*%
%ADD93C,0.01968*%
%ADD129C,0.00500*%
%ADD130C,0.00000*%
%ADD131C,0.00600*%
%ADD132C,0.00787*%
%ADD133C,0.00200*%
%ADD134C,0.00100*%
%ADD135R,0.01181X0.08334*%
%ADD136R,0.10000X0.02500*%
%ADD137R,0.05000X0.20000*%
G36*
X126500Y405000D02*
X125500D01*
Y406000D01*
X126500D01*
Y405000D01*
D02*
G37*
G36*
X333138Y208361D02*
X333217Y208246D01*
X333310Y208132D01*
X333396Y208031D01*
X333482Y207945D01*
X333546Y207874D01*
X333575Y207852D01*
X333597Y207831D01*
X333604Y207823D01*
X333611Y207816D01*
X333762Y207695D01*
X333912Y207580D01*
X334055Y207479D01*
X334199Y207400D01*
X334321Y207329D01*
X334371Y207300D01*
X334414Y207279D01*
X334450Y207257D01*
X334478Y207250D01*
X334493Y207236D01*
X334500D01*
Y206648D01*
X334392Y206691D01*
X334285Y206741D01*
X334177Y206791D01*
X334077Y206841D01*
X333991Y206884D01*
X333919Y206920D01*
X333876Y206949D01*
X333869Y206956D01*
X333862D01*
X333733Y207035D01*
X333618Y207114D01*
X333518Y207185D01*
X333439Y207250D01*
X333367Y207300D01*
X333324Y207343D01*
X333288Y207372D01*
X333281Y207379D01*
Y203500D01*
X332672D01*
Y208483D01*
X333066D01*
X333138Y208361D01*
D02*
G37*
G36*
X260828Y203517D02*
X260434D01*
X260362Y203639D01*
X260283Y203753D01*
X260190Y203868D01*
X260104Y203969D01*
X260018Y204055D01*
X259954Y204126D01*
X259925Y204148D01*
X259903Y204169D01*
X259896Y204176D01*
X259889Y204184D01*
X259738Y204306D01*
X259588Y204420D01*
X259444Y204521D01*
X259301Y204599D01*
X259179Y204671D01*
X259129Y204700D01*
X259086Y204721D01*
X259050Y204743D01*
X259021Y204750D01*
X259007Y204764D01*
X259000D01*
Y205352D01*
X259107Y205309D01*
X259215Y205259D01*
X259323Y205209D01*
X259423Y205159D01*
X259509Y205116D01*
X259581Y205080D01*
X259624Y205051D01*
X259631Y205044D01*
X259638D01*
X259767Y204965D01*
X259882Y204886D01*
X259982Y204815D01*
X260061Y204750D01*
X260133Y204700D01*
X260176Y204657D01*
X260212Y204628D01*
X260219Y204621D01*
Y208500D01*
X260828D01*
Y203517D01*
D02*
G37*
G36*
X268925Y184615D02*
X268618D01*
X268562Y184710D01*
X268501Y184799D01*
X268428Y184889D01*
X268361Y184967D01*
X268294Y185034D01*
X268244Y185090D01*
X268221Y185107D01*
X268204Y185124D01*
X268199Y185129D01*
X268193Y185135D01*
X268076Y185230D01*
X267958Y185319D01*
X267847Y185398D01*
X267735Y185459D01*
X267640Y185515D01*
X267601Y185537D01*
X267567Y185554D01*
X267539Y185571D01*
X267517Y185576D01*
X267506Y185588D01*
X267500D01*
Y186046D01*
X267584Y186012D01*
X267668Y185973D01*
X267752Y185934D01*
X267830Y185895D01*
X267897Y185862D01*
X267953Y185834D01*
X267986Y185811D01*
X267992Y185806D01*
X267998D01*
X268098Y185744D01*
X268188Y185683D01*
X268266Y185627D01*
X268327Y185576D01*
X268383Y185537D01*
X268417Y185504D01*
X268445Y185481D01*
X268450Y185476D01*
Y188500D01*
X268925D01*
Y184615D01*
D02*
G37*
G36*
X280071Y188042D02*
X278165D01*
X278232Y187947D01*
X278266Y187908D01*
X278294Y187868D01*
X278322Y187835D01*
X278344Y187812D01*
X278361Y187796D01*
X278366Y187790D01*
X278394Y187762D01*
X278428Y187734D01*
X278506Y187662D01*
X278596Y187578D01*
X278691Y187494D01*
X278780Y187421D01*
X278819Y187388D01*
X278853Y187354D01*
X278881Y187332D01*
X278903Y187315D01*
X278914Y187304D01*
X278920Y187298D01*
X279009Y187220D01*
X279099Y187147D01*
X279177Y187074D01*
X279250Y187013D01*
X279317Y186952D01*
X279373Y186896D01*
X279429Y186845D01*
X279473Y186801D01*
X279518Y186756D01*
X279552Y186722D01*
X279579Y186694D01*
X279607Y186667D01*
X279635Y186633D01*
X279647Y186622D01*
X279725Y186527D01*
X279792Y186443D01*
X279848Y186359D01*
X279892Y186292D01*
X279926Y186231D01*
X279948Y186186D01*
X279960Y186158D01*
X279965Y186147D01*
X279999Y186063D01*
X280021Y185979D01*
X280043Y185901D01*
X280055Y185834D01*
X280060Y185772D01*
X280066Y185727D01*
Y185699D01*
Y185688D01*
X280060Y185604D01*
X280049Y185526D01*
X280038Y185448D01*
X280015Y185381D01*
X279960Y185247D01*
X279904Y185140D01*
X279870Y185090D01*
X279842Y185051D01*
X279814Y185012D01*
X279786Y184984D01*
X279764Y184961D01*
X279753Y184939D01*
X279742Y184934D01*
X279736Y184928D01*
X279675Y184872D01*
X279607Y184822D01*
X279535Y184783D01*
X279462Y184749D01*
X279317Y184693D01*
X279171Y184654D01*
X279110Y184643D01*
X279048Y184632D01*
X278993Y184626D01*
X278948Y184620D01*
X278909Y184615D01*
X278853D01*
X278752Y184620D01*
X278657Y184626D01*
X278568Y184643D01*
X278484Y184660D01*
X278406Y184682D01*
X278333Y184704D01*
X278266Y184732D01*
X278204Y184760D01*
X278148Y184788D01*
X278104Y184816D01*
X278065Y184839D01*
X278031Y184861D01*
X278003Y184878D01*
X277986Y184895D01*
X277975Y184900D01*
X277970Y184906D01*
X277914Y184961D01*
X277863Y185023D01*
X277813Y185090D01*
X277774Y185157D01*
X277707Y185291D01*
X277662Y185425D01*
X277645Y185487D01*
X277629Y185548D01*
X277617Y185599D01*
X277606Y185643D01*
X277601Y185683D01*
Y185711D01*
X277595Y185727D01*
Y185733D01*
X278081Y185783D01*
X278093Y185655D01*
X278115Y185543D01*
X278148Y185442D01*
X278188Y185364D01*
X278221Y185297D01*
X278255Y185252D01*
X278277Y185224D01*
X278288Y185213D01*
X278372Y185146D01*
X278462Y185096D01*
X278556Y185057D01*
X278640Y185034D01*
X278719Y185017D01*
X278786Y185012D01*
X278808Y185006D01*
X278842D01*
X278959Y185012D01*
X279065Y185034D01*
X279155Y185068D01*
X279233Y185101D01*
X279294Y185140D01*
X279333Y185168D01*
X279362Y185191D01*
X279373Y185202D01*
X279440Y185280D01*
X279490Y185358D01*
X279529Y185437D01*
X279552Y185515D01*
X279568Y185576D01*
X279574Y185632D01*
X279579Y185666D01*
Y185671D01*
Y185677D01*
X279568Y185778D01*
X279546Y185884D01*
X279507Y185979D01*
X279468Y186068D01*
X279423Y186141D01*
X279384Y186203D01*
X279373Y186225D01*
X279362Y186242D01*
X279350Y186247D01*
Y186253D01*
X279306Y186314D01*
X279250Y186376D01*
X279188Y186443D01*
X279121Y186510D01*
X278981Y186644D01*
X278842Y186778D01*
X278769Y186840D01*
X278707Y186896D01*
X278646Y186946D01*
X278596Y186991D01*
X278556Y187024D01*
X278523Y187052D01*
X278501Y187069D01*
X278495Y187074D01*
X278355Y187192D01*
X278227Y187304D01*
X278120Y187404D01*
X278037Y187488D01*
X277964Y187561D01*
X277914Y187611D01*
X277886Y187645D01*
X277874Y187650D01*
Y187656D01*
X277796Y187751D01*
X277735Y187840D01*
X277679Y187930D01*
X277634Y188008D01*
X277601Y188075D01*
X277578Y188126D01*
X277567Y188159D01*
X277561Y188165D01*
Y188170D01*
X277539Y188232D01*
X277528Y188288D01*
X277517Y188344D01*
X277511Y188394D01*
X277506Y188438D01*
Y188472D01*
Y188494D01*
Y188500D01*
X280071D01*
Y188042D01*
D02*
G37*
G36*
X288830Y188561D02*
X288926Y188550D01*
X289020Y188533D01*
X289110Y188511D01*
X289194Y188483D01*
X289266Y188455D01*
X289339Y188422D01*
X289401Y188388D01*
X289462Y188360D01*
X289512Y188327D01*
X289557Y188299D01*
X289591Y188271D01*
X289619Y188249D01*
X289641Y188232D01*
X289652Y188221D01*
X289658Y188215D01*
X289725Y188148D01*
X289781Y188075D01*
X289831Y188003D01*
X289876Y187930D01*
X289909Y187863D01*
X289943Y187790D01*
X289988Y187656D01*
X289999Y187594D01*
X290010Y187539D01*
X290021Y187488D01*
X290027Y187443D01*
X290032Y187410D01*
Y187382D01*
Y187365D01*
Y187360D01*
X290027Y187225D01*
X290004Y187102D01*
X289971Y186996D01*
X289937Y186907D01*
X289904Y186834D01*
X289870Y186778D01*
X289848Y186745D01*
X289842Y186734D01*
X289764Y186650D01*
X289680Y186577D01*
X289591Y186521D01*
X289501Y186476D01*
X289423Y186443D01*
X289362Y186421D01*
X289339Y186415D01*
X289322Y186409D01*
X289311Y186404D01*
X289306D01*
X289401Y186353D01*
X289479Y186303D01*
X289546Y186247D01*
X289602Y186197D01*
X289647Y186152D01*
X289680Y186113D01*
X289697Y186091D01*
X289703Y186080D01*
X289747Y186001D01*
X289781Y185923D01*
X289809Y185845D01*
X289825Y185772D01*
X289837Y185711D01*
X289842Y185666D01*
Y185632D01*
Y185621D01*
X289837Y185526D01*
X289820Y185431D01*
X289797Y185347D01*
X289770Y185275D01*
X289742Y185213D01*
X289719Y185163D01*
X289703Y185135D01*
X289697Y185124D01*
X289641Y185040D01*
X289574Y184967D01*
X289507Y184906D01*
X289440Y184850D01*
X289384Y184811D01*
X289334Y184777D01*
X289300Y184760D01*
X289294Y184755D01*
X289289D01*
X289188Y184710D01*
X289088Y184676D01*
X288987Y184649D01*
X288897Y184632D01*
X288825Y184620D01*
X288763Y184615D01*
X288624D01*
X288545Y184626D01*
X288394Y184654D01*
X288266Y184699D01*
X288154Y184743D01*
X288104Y184772D01*
X288065Y184794D01*
X288025Y184816D01*
X287998Y184839D01*
X287975Y184855D01*
X287958Y184866D01*
X287947Y184872D01*
X287942Y184878D01*
X287835Y184984D01*
X287752Y185101D01*
X287684Y185224D01*
X287629Y185347D01*
X287595Y185453D01*
X287578Y185498D01*
X287567Y185537D01*
X287561Y185571D01*
X287556Y185593D01*
X287550Y185610D01*
Y185616D01*
X288025Y185699D01*
X288048Y185576D01*
X288081Y185470D01*
X288121Y185381D01*
X288160Y185308D01*
X288199Y185252D01*
X288232Y185213D01*
X288255Y185185D01*
X288260Y185179D01*
X288333Y185124D01*
X288411Y185079D01*
X288484Y185051D01*
X288557Y185029D01*
X288624Y185017D01*
X288674Y185006D01*
X288719D01*
X288819Y185012D01*
X288909Y185034D01*
X288987Y185062D01*
X289054Y185090D01*
X289104Y185124D01*
X289143Y185152D01*
X289171Y185174D01*
X289177Y185179D01*
X289239Y185247D01*
X289283Y185319D01*
X289311Y185392D01*
X289334Y185459D01*
X289345Y185521D01*
X289356Y185565D01*
Y185599D01*
Y185604D01*
Y185610D01*
Y185671D01*
X289345Y185727D01*
X289317Y185822D01*
X289278Y185906D01*
X289233Y185979D01*
X289188Y186029D01*
X289149Y186068D01*
X289121Y186091D01*
X289116Y186096D01*
X289110D01*
X289015Y186147D01*
X288926Y186186D01*
X288830Y186214D01*
X288747Y186231D01*
X288674Y186242D01*
X288612Y186253D01*
X288540D01*
X288517Y186247D01*
X288489D01*
X288434Y186667D01*
X288506Y186650D01*
X288573Y186638D01*
X288629Y186627D01*
X288680Y186622D01*
X288719Y186616D01*
X288769D01*
X288886Y186627D01*
X288993Y186650D01*
X289088Y186683D01*
X289166Y186722D01*
X289227Y186761D01*
X289272Y186795D01*
X289300Y186817D01*
X289311Y186829D01*
X289384Y186912D01*
X289440Y187002D01*
X289479Y187091D01*
X289501Y187181D01*
X289518Y187253D01*
X289524Y187315D01*
X289529Y187337D01*
Y187354D01*
Y187365D01*
Y187371D01*
X289518Y187494D01*
X289490Y187606D01*
X289457Y187701D01*
X289412Y187785D01*
X289367Y187852D01*
X289334Y187902D01*
X289306Y187935D01*
X289294Y187947D01*
X289205Y188025D01*
X289110Y188081D01*
X289015Y188120D01*
X288926Y188148D01*
X288847Y188165D01*
X288786Y188170D01*
X288763Y188176D01*
X288730D01*
X288629Y188170D01*
X288534Y188148D01*
X288450Y188120D01*
X288383Y188086D01*
X288327Y188058D01*
X288283Y188030D01*
X288260Y188008D01*
X288249Y188003D01*
X288182Y187924D01*
X288126Y187835D01*
X288076Y187740D01*
X288037Y187639D01*
X288009Y187555D01*
X287998Y187516D01*
X287992Y187483D01*
X287986Y187455D01*
X287981Y187432D01*
X287975Y187421D01*
Y187416D01*
X287500Y187477D01*
X287511Y187566D01*
X287528Y187650D01*
X287578Y187807D01*
X287640Y187941D01*
X287673Y187997D01*
X287707Y188053D01*
X287740Y188103D01*
X287774Y188142D01*
X287802Y188181D01*
X287830Y188209D01*
X287847Y188232D01*
X287863Y188249D01*
X287875Y188260D01*
X287880Y188265D01*
X287947Y188315D01*
X288014Y188366D01*
X288081Y188405D01*
X288154Y188438D01*
X288294Y188494D01*
X288428Y188528D01*
X288489Y188539D01*
X288545Y188550D01*
X288596Y188556D01*
X288640Y188561D01*
X288674Y188567D01*
X288724D01*
X288830Y188561D01*
D02*
G37*
G36*
X71413Y138993D02*
X71629Y138979D01*
X71829Y138957D01*
X72016Y138921D01*
X72181Y138885D01*
X72331Y138849D01*
X72467Y138806D01*
X72589Y138756D01*
X72690Y138713D01*
X72783Y138670D01*
X72855Y138634D01*
X72919Y138591D01*
X72969Y138563D01*
X72998Y138541D01*
X73020Y138527D01*
X73027Y138520D01*
X73127Y138426D01*
X73213Y138326D01*
X73285Y138226D01*
X73349Y138125D01*
X73407Y138018D01*
X73450Y137917D01*
X73486Y137817D01*
X73514Y137717D01*
X73536Y137630D01*
X73557Y137545D01*
X73572Y137473D01*
X73579Y137408D01*
Y137351D01*
X73586Y137315D01*
Y137279D01*
X73579Y137114D01*
X73550Y136964D01*
X73522Y136828D01*
X73479Y136706D01*
X73443Y136612D01*
X73407Y136541D01*
X73400Y136512D01*
X73385Y136490D01*
X73378Y136483D01*
Y136476D01*
X73292Y136354D01*
X73192Y136240D01*
X73091Y136146D01*
X72991Y136067D01*
X72898Y136003D01*
X72826Y135960D01*
X72797Y135946D01*
X72776Y135931D01*
X72769Y135924D01*
X72761D01*
X72611Y135852D01*
X72453Y135802D01*
X72310Y135766D01*
X72174Y135745D01*
X72059Y135723D01*
X72016D01*
X71973Y135716D01*
X71937D01*
X71915D01*
X71901D01*
X71894D01*
X71765Y135723D01*
X71643Y135738D01*
X71521Y135759D01*
X71413Y135781D01*
X71313Y135817D01*
X71213Y135852D01*
X71127Y135888D01*
X71048Y135931D01*
X70976Y135974D01*
X70912Y136010D01*
X70861Y136046D01*
X70811Y136082D01*
X70775Y136103D01*
X70754Y136125D01*
X70740Y136139D01*
X70732Y136146D01*
X70653Y136225D01*
X70582Y136311D01*
X70525Y136405D01*
X70474Y136490D01*
X70424Y136576D01*
X70388Y136663D01*
X70338Y136828D01*
X70316Y136899D01*
X70302Y136971D01*
X70295Y137028D01*
X70288Y137086D01*
X70281Y137129D01*
Y137186D01*
X70288Y137315D01*
X70309Y137437D01*
X70331Y137552D01*
X70359Y137652D01*
X70395Y137738D01*
X70417Y137803D01*
X70438Y137846D01*
X70446Y137853D01*
Y137860D01*
X70517Y137975D01*
X70596Y138075D01*
X70675Y138168D01*
X70761Y138240D01*
X70833Y138304D01*
X70890Y138355D01*
X70933Y138383D01*
X70940Y138391D01*
X70811D01*
X70682Y138383D01*
X70568Y138376D01*
X70453Y138362D01*
X70352Y138355D01*
X70259Y138340D01*
X70173Y138326D01*
X70094Y138304D01*
X70023Y138290D01*
X69965Y138276D01*
X69915Y138261D01*
X69872Y138254D01*
X69843Y138240D01*
X69822Y138233D01*
X69807Y138226D01*
X69800D01*
X69657Y138154D01*
X69528Y138082D01*
X69427Y138003D01*
X69341Y137932D01*
X69270Y137867D01*
X69219Y137817D01*
X69191Y137781D01*
X69184Y137767D01*
X69126Y137681D01*
X69090Y137595D01*
X69062Y137509D01*
X69040Y137423D01*
X69026Y137358D01*
X69019Y137301D01*
Y137250D01*
X69033Y137121D01*
X69062Y137000D01*
X69105Y136899D01*
X69148Y136806D01*
X69198Y136734D01*
X69241Y136684D01*
X69270Y136655D01*
X69284Y136641D01*
X69349Y136591D01*
X69427Y136541D01*
X69513Y136498D01*
X69599Y136469D01*
X69678Y136440D01*
X69743Y136419D01*
X69786Y136412D01*
X69793Y136405D01*
X69800D01*
X69750Y135795D01*
X69549Y135838D01*
X69370Y135903D01*
X69212Y135974D01*
X69083Y136053D01*
X68983Y136132D01*
X68940Y136161D01*
X68904Y136196D01*
X68883Y136218D01*
X68861Y136240D01*
X68854Y136247D01*
X68847Y136254D01*
X68789Y136326D01*
X68739Y136405D01*
X68653Y136562D01*
X68596Y136720D01*
X68560Y136871D01*
X68531Y137007D01*
X68524Y137064D01*
Y137114D01*
X68517Y137157D01*
Y137215D01*
X68524Y137358D01*
X68538Y137494D01*
X68567Y137623D01*
X68603Y137745D01*
X68653Y137853D01*
X68696Y137960D01*
X68753Y138054D01*
X68804Y138140D01*
X68854Y138211D01*
X68911Y138283D01*
X68954Y138340D01*
X68997Y138383D01*
X69040Y138419D01*
X69069Y138448D01*
X69083Y138462D01*
X69090Y138469D01*
X69219Y138563D01*
X69370Y138642D01*
X69528Y138713D01*
X69693Y138778D01*
X69865Y138828D01*
X70037Y138871D01*
X70216Y138907D01*
X70381Y138935D01*
X70546Y138957D01*
X70697Y138971D01*
X70833Y138986D01*
X70947Y138993D01*
X71048D01*
X71120Y139000D01*
X71148D01*
X71170D01*
X71177D01*
X71184D01*
X71413Y138993D01*
D02*
G37*
G36*
X55000Y154202D02*
X54412D01*
Y156647D01*
X54290Y156561D01*
X54240Y156518D01*
X54190Y156482D01*
X54147Y156446D01*
X54118Y156417D01*
X54097Y156396D01*
X54089Y156389D01*
X54054Y156353D01*
X54018Y156310D01*
X53925Y156209D01*
X53817Y156095D01*
X53709Y155973D01*
X53616Y155858D01*
X53573Y155808D01*
X53530Y155765D01*
X53501Y155729D01*
X53480Y155700D01*
X53466Y155686D01*
X53458Y155679D01*
X53358Y155564D01*
X53265Y155449D01*
X53172Y155349D01*
X53093Y155256D01*
X53014Y155170D01*
X52942Y155098D01*
X52878Y155026D01*
X52820Y154969D01*
X52763Y154912D01*
X52720Y154869D01*
X52684Y154833D01*
X52648Y154797D01*
X52605Y154761D01*
X52591Y154747D01*
X52469Y154646D01*
X52361Y154560D01*
X52254Y154489D01*
X52168Y154431D01*
X52089Y154388D01*
X52032Y154359D01*
X51996Y154345D01*
X51981Y154338D01*
X51874Y154295D01*
X51766Y154266D01*
X51666Y154238D01*
X51580Y154223D01*
X51501Y154216D01*
X51444Y154209D01*
X51408D01*
X51394D01*
X51286Y154216D01*
X51186Y154230D01*
X51085Y154245D01*
X50999Y154273D01*
X50827Y154345D01*
X50691Y154417D01*
X50626Y154460D01*
X50576Y154496D01*
X50526Y154532D01*
X50490Y154568D01*
X50461Y154596D01*
X50433Y154611D01*
X50425Y154625D01*
X50418Y154632D01*
X50347Y154711D01*
X50282Y154797D01*
X50232Y154890D01*
X50189Y154983D01*
X50117Y155170D01*
X50067Y155356D01*
X50053Y155435D01*
X50038Y155514D01*
X50031Y155586D01*
X50024Y155643D01*
X50017Y155693D01*
Y155765D01*
X50024Y155894D01*
X50031Y156016D01*
X50053Y156131D01*
X50074Y156238D01*
X50103Y156339D01*
X50132Y156432D01*
X50167Y156518D01*
X50203Y156597D01*
X50239Y156668D01*
X50275Y156726D01*
X50304Y156776D01*
X50332Y156819D01*
X50354Y156855D01*
X50375Y156876D01*
X50383Y156891D01*
X50390Y156898D01*
X50461Y156969D01*
X50540Y157034D01*
X50626Y157098D01*
X50712Y157149D01*
X50884Y157235D01*
X51056Y157292D01*
X51135Y157314D01*
X51214Y157335D01*
X51279Y157349D01*
X51336Y157364D01*
X51386Y157371D01*
X51422D01*
X51444Y157378D01*
X51451D01*
X51515Y156754D01*
X51350Y156740D01*
X51207Y156711D01*
X51078Y156668D01*
X50978Y156618D01*
X50892Y156575D01*
X50834Y156532D01*
X50798Y156503D01*
X50784Y156489D01*
X50698Y156381D01*
X50634Y156267D01*
X50583Y156145D01*
X50555Y156037D01*
X50533Y155937D01*
X50526Y155851D01*
X50519Y155822D01*
Y155779D01*
X50526Y155629D01*
X50555Y155492D01*
X50598Y155378D01*
X50641Y155277D01*
X50691Y155198D01*
X50727Y155148D01*
X50755Y155112D01*
X50770Y155098D01*
X50870Y155012D01*
X50971Y154947D01*
X51071Y154897D01*
X51171Y154869D01*
X51250Y154847D01*
X51322Y154840D01*
X51365Y154833D01*
X51372D01*
X51379D01*
X51508Y154847D01*
X51644Y154876D01*
X51766Y154926D01*
X51881Y154976D01*
X51974Y155034D01*
X52053Y155084D01*
X52082Y155098D01*
X52103Y155112D01*
X52110Y155127D01*
X52118D01*
X52197Y155184D01*
X52275Y155256D01*
X52361Y155335D01*
X52447Y155421D01*
X52620Y155600D01*
X52792Y155779D01*
X52871Y155872D01*
X52942Y155951D01*
X53007Y156030D01*
X53064Y156095D01*
X53107Y156145D01*
X53143Y156188D01*
X53164Y156217D01*
X53172Y156224D01*
X53322Y156403D01*
X53466Y156568D01*
X53595Y156704D01*
X53702Y156812D01*
X53795Y156905D01*
X53860Y156969D01*
X53903Y157005D01*
X53910Y157020D01*
X53917D01*
X54039Y157120D01*
X54154Y157199D01*
X54269Y157271D01*
X54369Y157328D01*
X54455Y157371D01*
X54520Y157400D01*
X54563Y157414D01*
X54570Y157421D01*
X54577D01*
X54656Y157450D01*
X54728Y157464D01*
X54799Y157478D01*
X54864Y157486D01*
X54921Y157493D01*
X54964D01*
X54993D01*
X55000D01*
Y154202D01*
D02*
G37*
G36*
X61809Y157393D02*
X61759Y157285D01*
X61709Y157177D01*
X61659Y157077D01*
X61616Y156991D01*
X61580Y156919D01*
X61551Y156876D01*
X61544Y156869D01*
Y156862D01*
X61465Y156733D01*
X61386Y156618D01*
X61315Y156518D01*
X61250Y156439D01*
X61200Y156367D01*
X61157Y156324D01*
X61128Y156288D01*
X61121Y156281D01*
X65000D01*
Y155672D01*
X60017D01*
Y156066D01*
X60139Y156138D01*
X60254Y156217D01*
X60368Y156310D01*
X60469Y156396D01*
X60555Y156482D01*
X60626Y156546D01*
X60648Y156575D01*
X60669Y156597D01*
X60676Y156604D01*
X60684Y156611D01*
X60806Y156762D01*
X60920Y156912D01*
X61021Y157055D01*
X61099Y157199D01*
X61171Y157321D01*
X61200Y157371D01*
X61221Y157414D01*
X61243Y157450D01*
X61250Y157478D01*
X61264Y157493D01*
Y157500D01*
X61852D01*
X61809Y157393D01*
D02*
G37*
G36*
X33413Y138993D02*
X33629Y138979D01*
X33829Y138957D01*
X34016Y138921D01*
X34181Y138885D01*
X34331Y138849D01*
X34468Y138806D01*
X34589Y138756D01*
X34690Y138713D01*
X34783Y138670D01*
X34855Y138634D01*
X34919Y138591D01*
X34969Y138563D01*
X34998Y138541D01*
X35020Y138527D01*
X35027Y138520D01*
X35127Y138426D01*
X35213Y138326D01*
X35285Y138226D01*
X35349Y138125D01*
X35407Y138018D01*
X35450Y137917D01*
X35486Y137817D01*
X35514Y137717D01*
X35536Y137630D01*
X35557Y137545D01*
X35572Y137473D01*
X35579Y137408D01*
Y137351D01*
X35586Y137315D01*
Y137279D01*
X35579Y137114D01*
X35550Y136964D01*
X35522Y136828D01*
X35478Y136706D01*
X35443Y136612D01*
X35407Y136541D01*
X35400Y136512D01*
X35385Y136490D01*
X35378Y136483D01*
Y136476D01*
X35292Y136354D01*
X35192Y136240D01*
X35091Y136146D01*
X34991Y136067D01*
X34898Y136003D01*
X34826Y135960D01*
X34797Y135946D01*
X34776Y135931D01*
X34769Y135924D01*
X34762D01*
X34611Y135852D01*
X34453Y135802D01*
X34310Y135766D01*
X34174Y135745D01*
X34059Y135723D01*
X34016D01*
X33973Y135716D01*
X33937D01*
X33915D01*
X33901D01*
X33894D01*
X33765Y135723D01*
X33643Y135738D01*
X33521Y135759D01*
X33413Y135781D01*
X33313Y135817D01*
X33213Y135852D01*
X33127Y135888D01*
X33048Y135931D01*
X32976Y135974D01*
X32912Y136010D01*
X32861Y136046D01*
X32811Y136082D01*
X32775Y136103D01*
X32754Y136125D01*
X32740Y136139D01*
X32732Y136146D01*
X32653Y136225D01*
X32582Y136311D01*
X32524Y136405D01*
X32474Y136490D01*
X32424Y136576D01*
X32388Y136663D01*
X32338Y136828D01*
X32316Y136899D01*
X32302Y136971D01*
X32295Y137028D01*
X32288Y137086D01*
X32281Y137129D01*
Y137186D01*
X32288Y137315D01*
X32309Y137437D01*
X32331Y137552D01*
X32359Y137652D01*
X32395Y137738D01*
X32417Y137803D01*
X32438Y137846D01*
X32446Y137853D01*
Y137860D01*
X32517Y137975D01*
X32596Y138075D01*
X32675Y138168D01*
X32761Y138240D01*
X32833Y138304D01*
X32890Y138355D01*
X32933Y138383D01*
X32940Y138391D01*
X32811D01*
X32682Y138383D01*
X32568Y138376D01*
X32453Y138362D01*
X32352Y138355D01*
X32259Y138340D01*
X32173Y138326D01*
X32094Y138304D01*
X32023Y138290D01*
X31965Y138276D01*
X31915Y138261D01*
X31872Y138254D01*
X31843Y138240D01*
X31822Y138233D01*
X31808Y138226D01*
X31800D01*
X31657Y138154D01*
X31528Y138082D01*
X31427Y138003D01*
X31341Y137932D01*
X31270Y137867D01*
X31220Y137817D01*
X31191Y137781D01*
X31184Y137767D01*
X31126Y137681D01*
X31090Y137595D01*
X31062Y137509D01*
X31040Y137423D01*
X31026Y137358D01*
X31019Y137301D01*
Y137250D01*
X31033Y137121D01*
X31062Y137000D01*
X31105Y136899D01*
X31148Y136806D01*
X31198Y136734D01*
X31241Y136684D01*
X31270Y136655D01*
X31284Y136641D01*
X31349Y136591D01*
X31427Y136541D01*
X31514Y136498D01*
X31600Y136469D01*
X31678Y136440D01*
X31743Y136419D01*
X31786Y136412D01*
X31793Y136405D01*
X31800D01*
X31750Y135795D01*
X31549Y135838D01*
X31370Y135903D01*
X31212Y135974D01*
X31083Y136053D01*
X30983Y136132D01*
X30940Y136161D01*
X30904Y136196D01*
X30882Y136218D01*
X30861Y136240D01*
X30854Y136247D01*
X30847Y136254D01*
X30789Y136326D01*
X30739Y136405D01*
X30653Y136562D01*
X30596Y136720D01*
X30560Y136871D01*
X30531Y137007D01*
X30524Y137064D01*
Y137114D01*
X30517Y137157D01*
Y137215D01*
X30524Y137358D01*
X30538Y137494D01*
X30567Y137623D01*
X30603Y137745D01*
X30653Y137853D01*
X30696Y137960D01*
X30753Y138054D01*
X30804Y138140D01*
X30854Y138211D01*
X30911Y138283D01*
X30954Y138340D01*
X30997Y138383D01*
X31040Y138419D01*
X31069Y138448D01*
X31083Y138462D01*
X31090Y138469D01*
X31220Y138563D01*
X31370Y138642D01*
X31528Y138713D01*
X31693Y138778D01*
X31865Y138828D01*
X32037Y138871D01*
X32216Y138907D01*
X32381Y138935D01*
X32546Y138957D01*
X32697Y138971D01*
X32833Y138986D01*
X32947Y138993D01*
X33048D01*
X33120Y139000D01*
X33148D01*
X33170D01*
X33177D01*
X33184D01*
X33413Y138993D01*
D02*
G37*
G36*
X17000Y154202D02*
X16412D01*
Y156647D01*
X16290Y156561D01*
X16240Y156518D01*
X16190Y156482D01*
X16147Y156446D01*
X16118Y156417D01*
X16097Y156396D01*
X16089Y156389D01*
X16054Y156353D01*
X16018Y156310D01*
X15924Y156209D01*
X15817Y156095D01*
X15709Y155973D01*
X15616Y155858D01*
X15573Y155808D01*
X15530Y155765D01*
X15502Y155729D01*
X15480Y155700D01*
X15466Y155686D01*
X15458Y155679D01*
X15358Y155564D01*
X15265Y155449D01*
X15172Y155349D01*
X15093Y155256D01*
X15014Y155170D01*
X14942Y155098D01*
X14878Y155026D01*
X14820Y154969D01*
X14763Y154912D01*
X14720Y154869D01*
X14684Y154833D01*
X14648Y154797D01*
X14605Y154761D01*
X14591Y154747D01*
X14469Y154646D01*
X14361Y154560D01*
X14254Y154489D01*
X14168Y154431D01*
X14089Y154388D01*
X14032Y154359D01*
X13996Y154345D01*
X13981Y154338D01*
X13874Y154295D01*
X13766Y154266D01*
X13666Y154238D01*
X13580Y154223D01*
X13501Y154216D01*
X13444Y154209D01*
X13408D01*
X13394D01*
X13286Y154216D01*
X13186Y154230D01*
X13085Y154245D01*
X12999Y154273D01*
X12827Y154345D01*
X12691Y154417D01*
X12626Y154460D01*
X12576Y154496D01*
X12526Y154532D01*
X12490Y154568D01*
X12461Y154596D01*
X12433Y154611D01*
X12426Y154625D01*
X12418Y154632D01*
X12347Y154711D01*
X12282Y154797D01*
X12232Y154890D01*
X12189Y154983D01*
X12117Y155170D01*
X12067Y155356D01*
X12053Y155435D01*
X12038Y155514D01*
X12031Y155586D01*
X12024Y155643D01*
X12017Y155693D01*
Y155765D01*
X12024Y155894D01*
X12031Y156016D01*
X12053Y156131D01*
X12074Y156238D01*
X12103Y156339D01*
X12132Y156432D01*
X12167Y156518D01*
X12203Y156597D01*
X12239Y156668D01*
X12275Y156726D01*
X12304Y156776D01*
X12332Y156819D01*
X12354Y156855D01*
X12375Y156876D01*
X12382Y156891D01*
X12390Y156898D01*
X12461Y156969D01*
X12540Y157034D01*
X12626Y157098D01*
X12712Y157149D01*
X12884Y157235D01*
X13057Y157292D01*
X13135Y157314D01*
X13214Y157335D01*
X13279Y157349D01*
X13336Y157364D01*
X13386Y157371D01*
X13422D01*
X13444Y157378D01*
X13451D01*
X13515Y156754D01*
X13351Y156740D01*
X13207Y156711D01*
X13078Y156668D01*
X12978Y156618D01*
X12892Y156575D01*
X12834Y156532D01*
X12798Y156503D01*
X12784Y156489D01*
X12698Y156381D01*
X12633Y156267D01*
X12583Y156145D01*
X12555Y156037D01*
X12533Y155937D01*
X12526Y155851D01*
X12519Y155822D01*
Y155779D01*
X12526Y155629D01*
X12555Y155492D01*
X12598Y155378D01*
X12641Y155277D01*
X12691Y155198D01*
X12727Y155148D01*
X12755Y155112D01*
X12770Y155098D01*
X12870Y155012D01*
X12970Y154947D01*
X13071Y154897D01*
X13171Y154869D01*
X13250Y154847D01*
X13322Y154840D01*
X13365Y154833D01*
X13372D01*
X13379D01*
X13508Y154847D01*
X13644Y154876D01*
X13766Y154926D01*
X13881Y154976D01*
X13974Y155034D01*
X14053Y155084D01*
X14082Y155098D01*
X14103Y155112D01*
X14110Y155127D01*
X14118D01*
X14197Y155184D01*
X14275Y155256D01*
X14361Y155335D01*
X14447Y155421D01*
X14620Y155600D01*
X14792Y155779D01*
X14871Y155872D01*
X14942Y155951D01*
X15007Y156030D01*
X15064Y156095D01*
X15107Y156145D01*
X15143Y156188D01*
X15165Y156217D01*
X15172Y156224D01*
X15322Y156403D01*
X15466Y156568D01*
X15595Y156704D01*
X15702Y156812D01*
X15795Y156905D01*
X15860Y156969D01*
X15903Y157005D01*
X15910Y157020D01*
X15917D01*
X16039Y157120D01*
X16154Y157199D01*
X16269Y157271D01*
X16369Y157328D01*
X16455Y157371D01*
X16520Y157400D01*
X16563Y157414D01*
X16570Y157421D01*
X16577D01*
X16656Y157450D01*
X16727Y157464D01*
X16799Y157478D01*
X16864Y157486D01*
X16921Y157493D01*
X16964D01*
X16993D01*
X17000D01*
Y154202D01*
D02*
G37*
G36*
X23809Y157393D02*
X23759Y157285D01*
X23709Y157177D01*
X23659Y157077D01*
X23616Y156991D01*
X23580Y156919D01*
X23551Y156876D01*
X23544Y156869D01*
Y156862D01*
X23465Y156733D01*
X23386Y156618D01*
X23315Y156518D01*
X23250Y156439D01*
X23200Y156367D01*
X23157Y156324D01*
X23128Y156288D01*
X23121Y156281D01*
X27000D01*
Y155672D01*
X22017D01*
Y156066D01*
X22139Y156138D01*
X22253Y156217D01*
X22368Y156310D01*
X22469Y156396D01*
X22555Y156482D01*
X22626Y156546D01*
X22648Y156575D01*
X22669Y156597D01*
X22677Y156604D01*
X22684Y156611D01*
X22806Y156762D01*
X22920Y156912D01*
X23021Y157055D01*
X23099Y157199D01*
X23171Y157321D01*
X23200Y157371D01*
X23221Y157414D01*
X23243Y157450D01*
X23250Y157478D01*
X23264Y157493D01*
Y157500D01*
X23852D01*
X23809Y157393D01*
D02*
G37*
G36*
X169684Y105191D02*
X169779Y105179D01*
X169874Y105163D01*
X169963Y105140D01*
X170047Y105112D01*
X170120Y105084D01*
X170192Y105051D01*
X170254Y105017D01*
X170315Y104989D01*
X170366Y104956D01*
X170410Y104928D01*
X170444Y104900D01*
X170472Y104877D01*
X170494Y104861D01*
X170505Y104850D01*
X170511Y104844D01*
X170578Y104777D01*
X170634Y104704D01*
X170684Y104631D01*
X170729Y104559D01*
X170762Y104492D01*
X170796Y104419D01*
X170841Y104285D01*
X170852Y104224D01*
X170863Y104168D01*
X170874Y104117D01*
X170880Y104072D01*
X170885Y104039D01*
Y104011D01*
Y103994D01*
Y103989D01*
X170880Y103855D01*
X170857Y103732D01*
X170824Y103625D01*
X170790Y103536D01*
X170757Y103463D01*
X170723Y103407D01*
X170701Y103374D01*
X170695Y103363D01*
X170617Y103279D01*
X170533Y103206D01*
X170444Y103150D01*
X170354Y103105D01*
X170276Y103072D01*
X170215Y103050D01*
X170192Y103044D01*
X170175Y103038D01*
X170164Y103033D01*
X170159D01*
X170254Y102982D01*
X170332Y102932D01*
X170399Y102876D01*
X170455Y102826D01*
X170500Y102781D01*
X170533Y102742D01*
X170550Y102720D01*
X170556Y102709D01*
X170600Y102630D01*
X170634Y102552D01*
X170662Y102474D01*
X170678Y102401D01*
X170690Y102340D01*
X170695Y102295D01*
Y102261D01*
Y102250D01*
X170690Y102155D01*
X170673Y102060D01*
X170651Y101976D01*
X170623Y101904D01*
X170595Y101842D01*
X170572Y101792D01*
X170556Y101764D01*
X170550Y101753D01*
X170494Y101669D01*
X170427Y101596D01*
X170360Y101535D01*
X170293Y101479D01*
X170237Y101440D01*
X170187Y101406D01*
X170153Y101389D01*
X170148Y101384D01*
X170142D01*
X170041Y101339D01*
X169941Y101305D01*
X169840Y101277D01*
X169751Y101261D01*
X169678Y101250D01*
X169616Y101244D01*
X169477D01*
X169398Y101255D01*
X169247Y101283D01*
X169119Y101328D01*
X169007Y101373D01*
X168957Y101400D01*
X168918Y101423D01*
X168879Y101445D01*
X168851Y101468D01*
X168828Y101484D01*
X168812Y101496D01*
X168800Y101501D01*
X168795Y101507D01*
X168688Y101613D01*
X168605Y101730D01*
X168538Y101853D01*
X168482Y101976D01*
X168448Y102083D01*
X168431Y102127D01*
X168420Y102166D01*
X168415Y102200D01*
X168409Y102222D01*
X168403Y102239D01*
Y102245D01*
X168879Y102328D01*
X168901Y102206D01*
X168935Y102099D01*
X168974Y102010D01*
X169013Y101937D01*
X169052Y101881D01*
X169085Y101842D01*
X169108Y101814D01*
X169113Y101809D01*
X169186Y101753D01*
X169264Y101708D01*
X169337Y101680D01*
X169410Y101658D01*
X169477Y101646D01*
X169527Y101635D01*
X169572D01*
X169672Y101641D01*
X169762Y101663D01*
X169840Y101691D01*
X169907Y101719D01*
X169957Y101753D01*
X169997Y101781D01*
X170025Y101803D01*
X170030Y101809D01*
X170092Y101876D01*
X170136Y101948D01*
X170164Y102021D01*
X170187Y102088D01*
X170198Y102150D01*
X170209Y102194D01*
Y102228D01*
Y102233D01*
Y102239D01*
Y102301D01*
X170198Y102356D01*
X170170Y102451D01*
X170131Y102535D01*
X170086Y102608D01*
X170041Y102658D01*
X170002Y102697D01*
X169974Y102720D01*
X169969Y102725D01*
X169963D01*
X169868Y102776D01*
X169779Y102815D01*
X169684Y102843D01*
X169600Y102859D01*
X169527Y102871D01*
X169465Y102882D01*
X169393D01*
X169370Y102876D01*
X169343D01*
X169287Y103296D01*
X169359Y103279D01*
X169426Y103268D01*
X169482Y103256D01*
X169533Y103251D01*
X169572Y103245D01*
X169622D01*
X169739Y103256D01*
X169846Y103279D01*
X169941Y103312D01*
X170019Y103351D01*
X170080Y103391D01*
X170125Y103424D01*
X170153Y103446D01*
X170164Y103458D01*
X170237Y103542D01*
X170293Y103631D01*
X170332Y103720D01*
X170354Y103810D01*
X170371Y103883D01*
X170377Y103944D01*
X170382Y103966D01*
Y103983D01*
Y103994D01*
Y104000D01*
X170371Y104123D01*
X170343Y104235D01*
X170310Y104330D01*
X170265Y104413D01*
X170220Y104481D01*
X170187Y104531D01*
X170159Y104564D01*
X170148Y104576D01*
X170058Y104654D01*
X169963Y104710D01*
X169868Y104749D01*
X169779Y104777D01*
X169700Y104794D01*
X169639Y104799D01*
X169616Y104805D01*
X169583D01*
X169482Y104799D01*
X169387Y104777D01*
X169303Y104749D01*
X169236Y104715D01*
X169180Y104687D01*
X169136Y104659D01*
X169113Y104637D01*
X169102Y104631D01*
X169035Y104553D01*
X168979Y104464D01*
X168929Y104369D01*
X168890Y104268D01*
X168862Y104184D01*
X168851Y104145D01*
X168845Y104112D01*
X168839Y104084D01*
X168834Y104061D01*
X168828Y104050D01*
Y104045D01*
X168353Y104106D01*
X168364Y104195D01*
X168381Y104279D01*
X168431Y104436D01*
X168493Y104570D01*
X168526Y104626D01*
X168560Y104682D01*
X168594Y104732D01*
X168627Y104771D01*
X168655Y104810D01*
X168683Y104838D01*
X168700Y104861D01*
X168717Y104877D01*
X168728Y104889D01*
X168733Y104894D01*
X168800Y104945D01*
X168867Y104995D01*
X168935Y105034D01*
X169007Y105068D01*
X169147Y105123D01*
X169281Y105157D01*
X169343Y105168D01*
X169398Y105179D01*
X169449Y105185D01*
X169493Y105191D01*
X169527Y105196D01*
X169577D01*
X169684Y105191D01*
D02*
G37*
G36*
X160924Y104671D02*
X159018D01*
X159085Y104576D01*
X159119Y104536D01*
X159147Y104497D01*
X159175Y104464D01*
X159197Y104441D01*
X159214Y104425D01*
X159220Y104419D01*
X159248Y104391D01*
X159281Y104363D01*
X159359Y104290D01*
X159449Y104207D01*
X159544Y104123D01*
X159633Y104050D01*
X159672Y104017D01*
X159706Y103983D01*
X159734Y103961D01*
X159756Y103944D01*
X159767Y103933D01*
X159773Y103927D01*
X159862Y103849D01*
X159952Y103776D01*
X160030Y103704D01*
X160103Y103642D01*
X160170Y103581D01*
X160226Y103525D01*
X160282Y103474D01*
X160326Y103430D01*
X160371Y103385D01*
X160405Y103351D01*
X160433Y103323D01*
X160460Y103296D01*
X160488Y103262D01*
X160500Y103251D01*
X160578Y103156D01*
X160645Y103072D01*
X160701Y102988D01*
X160746Y102921D01*
X160779Y102859D01*
X160801Y102815D01*
X160813Y102787D01*
X160818Y102776D01*
X160852Y102692D01*
X160874Y102608D01*
X160897Y102530D01*
X160908Y102463D01*
X160913Y102401D01*
X160919Y102356D01*
Y102328D01*
Y102317D01*
X160913Y102233D01*
X160902Y102155D01*
X160891Y102077D01*
X160869Y102010D01*
X160813Y101876D01*
X160757Y101769D01*
X160723Y101719D01*
X160695Y101680D01*
X160667Y101641D01*
X160639Y101613D01*
X160617Y101591D01*
X160606Y101568D01*
X160595Y101563D01*
X160589Y101557D01*
X160528Y101501D01*
X160460Y101451D01*
X160388Y101412D01*
X160315Y101378D01*
X160170Y101322D01*
X160024Y101283D01*
X159963Y101272D01*
X159901Y101261D01*
X159846Y101255D01*
X159801Y101250D01*
X159762Y101244D01*
X159706D01*
X159605Y101250D01*
X159510Y101255D01*
X159421Y101272D01*
X159337Y101289D01*
X159259Y101311D01*
X159186Y101333D01*
X159119Y101361D01*
X159057Y101389D01*
X159002Y101417D01*
X158957Y101445D01*
X158918Y101468D01*
X158884Y101490D01*
X158856Y101507D01*
X158839Y101523D01*
X158828Y101529D01*
X158823Y101535D01*
X158767Y101591D01*
X158716Y101652D01*
X158666Y101719D01*
X158627Y101786D01*
X158560Y101920D01*
X158515Y102055D01*
X158498Y102116D01*
X158482Y102178D01*
X158470Y102228D01*
X158459Y102273D01*
X158454Y102312D01*
Y102340D01*
X158448Y102356D01*
Y102362D01*
X158934Y102412D01*
X158946Y102284D01*
X158968Y102172D01*
X159002Y102071D01*
X159041Y101993D01*
X159074Y101926D01*
X159108Y101881D01*
X159130Y101853D01*
X159141Y101842D01*
X159225Y101775D01*
X159315Y101725D01*
X159410Y101686D01*
X159494Y101663D01*
X159572Y101646D01*
X159639Y101641D01*
X159661Y101635D01*
X159695D01*
X159812Y101641D01*
X159918Y101663D01*
X160008Y101697D01*
X160086Y101730D01*
X160148Y101769D01*
X160187Y101797D01*
X160215Y101820D01*
X160226Y101831D01*
X160293Y101909D01*
X160343Y101988D01*
X160382Y102066D01*
X160405Y102144D01*
X160421Y102206D01*
X160427Y102261D01*
X160433Y102295D01*
Y102301D01*
Y102306D01*
X160421Y102407D01*
X160399Y102513D01*
X160360Y102608D01*
X160321Y102697D01*
X160276Y102770D01*
X160237Y102831D01*
X160226Y102854D01*
X160215Y102871D01*
X160203Y102876D01*
Y102882D01*
X160159Y102943D01*
X160103Y103005D01*
X160041Y103072D01*
X159974Y103139D01*
X159834Y103273D01*
X159695Y103407D01*
X159622Y103469D01*
X159561Y103525D01*
X159499Y103575D01*
X159449Y103620D01*
X159410Y103653D01*
X159376Y103681D01*
X159354Y103698D01*
X159348Y103704D01*
X159208Y103821D01*
X159080Y103933D01*
X158974Y104033D01*
X158890Y104117D01*
X158817Y104190D01*
X158767Y104240D01*
X158739Y104274D01*
X158728Y104279D01*
Y104285D01*
X158649Y104380D01*
X158588Y104469D01*
X158532Y104559D01*
X158487Y104637D01*
X158454Y104704D01*
X158431Y104754D01*
X158420Y104788D01*
X158415Y104794D01*
Y104799D01*
X158392Y104861D01*
X158381Y104917D01*
X158370Y104973D01*
X158364Y105023D01*
X158359Y105068D01*
Y105101D01*
Y105123D01*
Y105129D01*
X160924D01*
Y104671D01*
D02*
G37*
G36*
X149778Y101244D02*
X149471D01*
X149415Y101339D01*
X149354Y101428D01*
X149281Y101518D01*
X149214Y101596D01*
X149147Y101663D01*
X149097Y101719D01*
X149074Y101736D01*
X149057Y101753D01*
X149052Y101758D01*
X149046Y101764D01*
X148929Y101859D01*
X148811Y101948D01*
X148700Y102027D01*
X148588Y102088D01*
X148493Y102144D01*
X148454Y102166D01*
X148420Y102183D01*
X148392Y102200D01*
X148370Y102206D01*
X148359Y102217D01*
X148353D01*
Y102675D01*
X148437Y102641D01*
X148521Y102602D01*
X148605Y102563D01*
X148683Y102524D01*
X148750Y102491D01*
X148806Y102463D01*
X148839Y102440D01*
X148845Y102435D01*
X148851D01*
X148951Y102373D01*
X149041Y102312D01*
X149119Y102256D01*
X149180Y102206D01*
X149236Y102166D01*
X149270Y102133D01*
X149298Y102110D01*
X149303Y102105D01*
Y105129D01*
X149778D01*
Y101244D01*
D02*
G37*
G36*
X38500Y481618D02*
Y481481D01*
X37510Y481095D01*
Y481228D01*
X38230Y481497D01*
X38260Y481508D01*
X38288Y481518D01*
X38315Y481527D01*
X38340Y481534D01*
X38361Y481541D01*
X38377Y481545D01*
X38383Y481547D01*
X38387Y481548D01*
X38390Y481550D01*
X38391D01*
X38334Y481567D01*
X38307Y481575D01*
X38283Y481584D01*
X38261Y481591D01*
X38253Y481594D01*
X38244Y481595D01*
X38238Y481598D01*
X38234Y481600D01*
X38231Y481601D01*
X38230D01*
X37510Y481858D01*
Y482001D01*
X38500Y481618D01*
D02*
G37*
G36*
X41500Y481644D02*
X41499Y481611D01*
X41497Y481581D01*
X41494Y481554D01*
X41491Y481531D01*
X41489Y481511D01*
X41487Y481497D01*
X41486Y481492D01*
X41484Y481488D01*
Y481485D01*
X41477Y481460D01*
X41469Y481437D01*
X41461Y481417D01*
X41453Y481399D01*
X41446Y481385D01*
X41440Y481375D01*
X41436Y481369D01*
X41434Y481366D01*
X41421Y481348D01*
X41406Y481332D01*
X41391Y481317D01*
X41377Y481304D01*
X41364Y481292D01*
X41354Y481284D01*
X41347Y481278D01*
X41344Y481276D01*
X41321Y481262D01*
X41297Y481248D01*
X41274Y481236D01*
X41251Y481228D01*
X41231Y481219D01*
X41215Y481214D01*
X41210Y481212D01*
X41205Y481211D01*
X41203Y481209D01*
X41201D01*
X41167Y481201D01*
X41133Y481193D01*
X41100Y481189D01*
X41068Y481185D01*
X41041Y481183D01*
X41030D01*
X41019Y481182D01*
X41012D01*
X41005D01*
X41002D01*
X41001D01*
X40952Y481183D01*
X40908Y481188D01*
X40868Y481195D01*
X40849Y481198D01*
X40834Y481202D01*
X40818Y481206D01*
X40805Y481209D01*
X40794Y481212D01*
X40784Y481216D01*
X40775Y481218D01*
X40769Y481221D01*
X40766Y481222D01*
X40765D01*
X40728Y481238D01*
X40695Y481256D01*
X40666Y481276D01*
X40642Y481295D01*
X40622Y481312D01*
X40608Y481326D01*
X40603Y481332D01*
X40599Y481336D01*
X40598Y481338D01*
X40596Y481339D01*
X40578Y481362D01*
X40563Y481387D01*
X40551Y481411D01*
X40541Y481434D01*
X40533Y481454D01*
X40529Y481469D01*
X40526Y481475D01*
Y481480D01*
X40525Y481482D01*
Y481484D01*
X40520Y481508D01*
X40516Y481537D01*
X40513Y481565D01*
X40512Y481594D01*
X40510Y481620D01*
Y482000D01*
X41500D01*
Y481644D01*
D02*
G37*
G36*
X41203Y480690D02*
X41081D01*
Y481066D01*
X41203D01*
Y480690D01*
D02*
G37*
G36*
X44000Y481644D02*
X43999Y481611D01*
X43997Y481581D01*
X43994Y481554D01*
X43991Y481531D01*
X43989Y481511D01*
X43987Y481497D01*
X43986Y481492D01*
X43984Y481488D01*
Y481485D01*
X43977Y481460D01*
X43968Y481437D01*
X43961Y481417D01*
X43953Y481399D01*
X43946Y481385D01*
X43940Y481375D01*
X43936Y481369D01*
X43934Y481366D01*
X43921Y481348D01*
X43906Y481332D01*
X43891Y481317D01*
X43877Y481304D01*
X43864Y481292D01*
X43854Y481284D01*
X43847Y481278D01*
X43844Y481276D01*
X43821Y481262D01*
X43797Y481248D01*
X43774Y481236D01*
X43751Y481228D01*
X43731Y481219D01*
X43715Y481214D01*
X43710Y481212D01*
X43705Y481211D01*
X43703Y481209D01*
X43701D01*
X43667Y481201D01*
X43633Y481193D01*
X43600Y481189D01*
X43568Y481185D01*
X43541Y481183D01*
X43529D01*
X43519Y481182D01*
X43512D01*
X43505D01*
X43502D01*
X43501D01*
X43452Y481183D01*
X43408Y481188D01*
X43368Y481195D01*
X43349Y481198D01*
X43334Y481202D01*
X43318Y481206D01*
X43305Y481209D01*
X43294Y481212D01*
X43284Y481216D01*
X43275Y481218D01*
X43269Y481221D01*
X43266Y481222D01*
X43265D01*
X43228Y481238D01*
X43195Y481256D01*
X43166Y481276D01*
X43142Y481295D01*
X43122Y481312D01*
X43108Y481326D01*
X43103Y481332D01*
X43099Y481336D01*
X43098Y481338D01*
X43096Y481339D01*
X43078Y481362D01*
X43063Y481387D01*
X43051Y481411D01*
X43040Y481434D01*
X43033Y481454D01*
X43029Y481469D01*
X43026Y481475D01*
Y481480D01*
X43025Y481482D01*
Y481484D01*
X43020Y481508D01*
X43016Y481537D01*
X43013Y481565D01*
X43012Y481594D01*
X43010Y481620D01*
Y482000D01*
X44000D01*
Y481644D01*
D02*
G37*
G36*
X43568Y480764D02*
X43840D01*
Y480650D01*
X43568D01*
Y480381D01*
X43455D01*
Y480650D01*
X43186D01*
Y480764D01*
X43455D01*
Y481033D01*
X43568D01*
Y480764D01*
D02*
G37*
G36*
X46500Y481868D02*
X45510D01*
Y482000D01*
X46500D01*
Y481868D01*
D02*
G37*
G36*
Y481281D02*
X46499Y481248D01*
X46497Y481218D01*
X46494Y481191D01*
X46491Y481168D01*
X46489Y481148D01*
X46487Y481133D01*
X46486Y481129D01*
X46484Y481125D01*
Y481122D01*
X46477Y481096D01*
X46468Y481073D01*
X46461Y481053D01*
X46453Y481036D01*
X46446Y481022D01*
X46440Y481012D01*
X46436Y481006D01*
X46434Y481003D01*
X46421Y480985D01*
X46406Y480969D01*
X46391Y480953D01*
X46377Y480940D01*
X46364Y480929D01*
X46354Y480920D01*
X46347Y480915D01*
X46344Y480913D01*
X46321Y480899D01*
X46297Y480885D01*
X46274Y480873D01*
X46251Y480865D01*
X46231Y480856D01*
X46215Y480850D01*
X46210Y480849D01*
X46205Y480847D01*
X46203Y480846D01*
X46201D01*
X46167Y480837D01*
X46132Y480830D01*
X46100Y480826D01*
X46068Y480822D01*
X46041Y480820D01*
X46029D01*
X46020Y480819D01*
X46012D01*
X46005D01*
X46002D01*
X46001D01*
X45952Y480820D01*
X45908Y480825D01*
X45868Y480832D01*
X45849Y480835D01*
X45834Y480839D01*
X45818Y480843D01*
X45805Y480846D01*
X45794Y480849D01*
X45784Y480853D01*
X45775Y480855D01*
X45769Y480857D01*
X45766Y480859D01*
X45765D01*
X45728Y480875D01*
X45695Y480893D01*
X45666Y480913D01*
X45642Y480932D01*
X45622Y480949D01*
X45608Y480963D01*
X45603Y480969D01*
X45599Y480973D01*
X45598Y480975D01*
X45596Y480976D01*
X45578Y480999D01*
X45563Y481023D01*
X45551Y481048D01*
X45540Y481071D01*
X45533Y481090D01*
X45529Y481106D01*
X45526Y481112D01*
Y481116D01*
X45525Y481119D01*
Y481121D01*
X45520Y481145D01*
X45516Y481174D01*
X45513Y481202D01*
X45512Y481231D01*
X45510Y481256D01*
Y481637D01*
X46500D01*
Y481281D01*
D02*
G37*
G36*
X48564Y481997D02*
X48614Y481990D01*
X48637Y481986D01*
X48658Y481981D01*
X48680Y481976D01*
X48698Y481970D01*
X48715Y481964D01*
X48730Y481958D01*
X48744Y481954D01*
X48754Y481950D01*
X48764Y481946D01*
X48770Y481943D01*
X48774Y481940D01*
X48776D01*
X48817Y481914D01*
X48853Y481886D01*
X48884Y481856D01*
X48910Y481827D01*
X48930Y481800D01*
X48937Y481790D01*
X48944Y481780D01*
X48948Y481771D01*
X48953Y481766D01*
X48954Y481761D01*
X48956Y481760D01*
X48967Y481737D01*
X48976Y481714D01*
X48991Y481668D01*
X49001Y481624D01*
X49010Y481582D01*
X49011Y481564D01*
X49014Y481547D01*
X49016Y481531D01*
Y481518D01*
X49017Y481508D01*
Y481494D01*
X49016Y481454D01*
X49011Y481415D01*
X49004Y481379D01*
X48997Y481348D01*
X48994Y481335D01*
X48991Y481322D01*
X48987Y481311D01*
X48984Y481301D01*
X48981Y481294D01*
X48980Y481288D01*
X48979Y481285D01*
Y481284D01*
X48963Y481245D01*
X48944Y481209D01*
X48924Y481175D01*
X48906Y481145D01*
X48897Y481132D01*
X48888Y481119D01*
X48881Y481109D01*
X48876Y481101D01*
X48870Y481093D01*
X48866Y481088D01*
X48864Y481085D01*
X48863Y481083D01*
X48495D01*
Y481504D01*
X48612D01*
Y481212D01*
X48798D01*
X48813Y481229D01*
X48825Y481249D01*
X48837Y481271D01*
X48847Y481291D01*
X48856Y481308D01*
X48863Y481324D01*
X48866Y481329D01*
X48867Y481332D01*
X48868Y481335D01*
Y481336D01*
X48878Y481366D01*
X48887Y481396D01*
X48893Y481424D01*
X48896Y481449D01*
X48899Y481471D01*
Y481480D01*
X48900Y481488D01*
Y481502D01*
X48899Y481538D01*
X48893Y481572D01*
X48886Y481604D01*
X48878Y481633D01*
X48870Y481655D01*
X48867Y481665D01*
X48864Y481672D01*
X48861Y481680D01*
X48858Y481684D01*
X48857Y481687D01*
Y481688D01*
X48838Y481718D01*
X48818Y481745D01*
X48797Y481768D01*
X48776Y481787D01*
X48755Y481803D01*
X48740Y481813D01*
X48734Y481817D01*
X48730Y481818D01*
X48727Y481821D01*
X48725D01*
X48690Y481836D01*
X48652Y481847D01*
X48615Y481854D01*
X48580Y481860D01*
X48564Y481861D01*
X48550Y481863D01*
X48535Y481864D01*
X48524D01*
X48515Y481866D01*
X48508D01*
X48504D01*
X48502D01*
X48462Y481864D01*
X48427Y481860D01*
X48392Y481854D01*
X48362Y481847D01*
X48349Y481844D01*
X48338Y481840D01*
X48328Y481837D01*
X48319Y481834D01*
X48312Y481831D01*
X48308Y481830D01*
X48305Y481828D01*
X48304D01*
X48284Y481818D01*
X48265Y481808D01*
X48248Y481798D01*
X48234Y481788D01*
X48222Y481780D01*
X48212Y481773D01*
X48206Y481767D01*
X48205Y481766D01*
X48189Y481750D01*
X48175Y481733D01*
X48164Y481714D01*
X48152Y481697D01*
X48145Y481682D01*
X48138Y481671D01*
X48135Y481663D01*
X48133Y481660D01*
X48123Y481634D01*
X48116Y481608D01*
X48112Y481581D01*
X48108Y481557D01*
X48106Y481535D01*
Y481527D01*
X48105Y481520D01*
Y481504D01*
X48106Y481477D01*
X48109Y481451D01*
X48113Y481428D01*
X48118Y481408D01*
X48123Y481391D01*
X48128Y481378D01*
X48131Y481371D01*
X48132Y481368D01*
X48142Y481347D01*
X48153Y481328D01*
X48165Y481311D01*
X48176Y481298D01*
X48186Y481288D01*
X48193Y481279D01*
X48199Y481275D01*
X48201Y481274D01*
X48218Y481261D01*
X48238Y481251D01*
X48256Y481241D01*
X48276Y481232D01*
X48294Y481226D01*
X48307Y481222D01*
X48312Y481221D01*
X48316Y481219D01*
X48318Y481218D01*
X48319D01*
X48288Y481099D01*
X48252Y481109D01*
X48221Y481122D01*
X48192Y481135D01*
X48169Y481146D01*
X48151Y481158D01*
X48138Y481166D01*
X48129Y481172D01*
X48126Y481175D01*
X48103Y481195D01*
X48085Y481216D01*
X48068Y481239D01*
X48053Y481261D01*
X48043Y481281D01*
X48035Y481296D01*
X48032Y481302D01*
X48030Y481307D01*
X48029Y481309D01*
Y481311D01*
X48018Y481344D01*
X48009Y481378D01*
X48002Y481409D01*
X47998Y481439D01*
X47995Y481467D01*
Y481478D01*
X47993Y481487D01*
Y481532D01*
X47996Y481558D01*
X48003Y481608D01*
X48008Y481631D01*
X48013Y481652D01*
X48018Y481672D01*
X48023Y481691D01*
X48029Y481708D01*
X48035Y481723D01*
X48041Y481736D01*
X48045Y481747D01*
X48049Y481755D01*
X48052Y481761D01*
X48053Y481766D01*
X48055Y481767D01*
X48068Y481787D01*
X48081Y481807D01*
X48110Y481841D01*
X48141Y481871D01*
X48172Y481896D01*
X48199Y481916D01*
X48211Y481923D01*
X48222Y481928D01*
X48231Y481934D01*
X48236Y481937D01*
X48241Y481939D01*
X48242Y481940D01*
X48289Y481960D01*
X48336Y481974D01*
X48382Y481986D01*
X48404Y481989D01*
X48424Y481993D01*
X48442Y481994D01*
X48458Y481997D01*
X48474Y481999D01*
X48487D01*
X48497Y482000D01*
X48504D01*
X48509D01*
X48511D01*
X48564Y481997D01*
D02*
G37*
G36*
X49000Y480766D02*
X48224D01*
X49000Y480248D01*
Y480112D01*
X48010D01*
Y480238D01*
X48788D01*
X48010Y480757D01*
Y480892D01*
X49000D01*
Y480766D01*
D02*
G37*
G36*
Y479536D02*
X48999Y479503D01*
X48997Y479473D01*
X48994Y479446D01*
X48991Y479423D01*
X48989Y479403D01*
X48987Y479389D01*
X48986Y479385D01*
X48984Y479380D01*
Y479377D01*
X48977Y479352D01*
X48968Y479329D01*
X48961Y479309D01*
X48953Y479292D01*
X48946Y479277D01*
X48940Y479267D01*
X48936Y479261D01*
X48934Y479259D01*
X48921Y479240D01*
X48906Y479224D01*
X48891Y479209D01*
X48877Y479196D01*
X48864Y479184D01*
X48854Y479176D01*
X48847Y479170D01*
X48844Y479169D01*
X48821Y479154D01*
X48797Y479140D01*
X48774Y479129D01*
X48751Y479120D01*
X48731Y479111D01*
X48715Y479106D01*
X48710Y479104D01*
X48705Y479103D01*
X48703Y479101D01*
X48701D01*
X48667Y479093D01*
X48632Y479086D01*
X48600Y479081D01*
X48568Y479077D01*
X48541Y479076D01*
X48529D01*
X48520Y479074D01*
X48512D01*
X48505D01*
X48502D01*
X48501D01*
X48452Y479076D01*
X48408Y479080D01*
X48368Y479087D01*
X48349Y479090D01*
X48334Y479094D01*
X48318Y479099D01*
X48305Y479101D01*
X48294Y479104D01*
X48284Y479108D01*
X48275Y479110D01*
X48269Y479113D01*
X48266Y479114D01*
X48265D01*
X48228Y479130D01*
X48195Y479149D01*
X48166Y479169D01*
X48142Y479187D01*
X48122Y479204D01*
X48108Y479219D01*
X48103Y479224D01*
X48099Y479229D01*
X48098Y479230D01*
X48096Y479232D01*
X48078Y479254D01*
X48063Y479279D01*
X48050Y479303D01*
X48041Y479326D01*
X48033Y479346D01*
X48029Y479362D01*
X48026Y479367D01*
Y479372D01*
X48025Y479375D01*
Y479376D01*
X48020Y479400D01*
X48016Y479429D01*
X48013Y479458D01*
X48012Y479486D01*
X48010Y479512D01*
Y479892D01*
X49000D01*
Y479536D01*
D02*
G37*
G36*
X31330Y190061D02*
X31425Y190050D01*
X31521Y190033D01*
X31610Y190011D01*
X31694Y189983D01*
X31766Y189955D01*
X31839Y189922D01*
X31901Y189888D01*
X31962Y189860D01*
X32012Y189827D01*
X32057Y189799D01*
X32091Y189771D01*
X32119Y189749D01*
X32141Y189732D01*
X32152Y189720D01*
X32158Y189715D01*
X32225Y189648D01*
X32281Y189575D01*
X32331Y189503D01*
X32376Y189430D01*
X32409Y189363D01*
X32443Y189290D01*
X32487Y189156D01*
X32499Y189094D01*
X32510Y189039D01*
X32521Y188988D01*
X32527Y188944D01*
X32532Y188910D01*
Y188882D01*
Y188865D01*
Y188860D01*
X32527Y188725D01*
X32504Y188602D01*
X32471Y188496D01*
X32437Y188407D01*
X32404Y188334D01*
X32370Y188278D01*
X32348Y188245D01*
X32342Y188234D01*
X32264Y188150D01*
X32180Y188077D01*
X32091Y188021D01*
X32001Y187976D01*
X31923Y187943D01*
X31861Y187920D01*
X31839Y187915D01*
X31822Y187909D01*
X31811Y187904D01*
X31806D01*
X31901Y187853D01*
X31979Y187803D01*
X32046Y187747D01*
X32102Y187697D01*
X32147Y187652D01*
X32180Y187613D01*
X32197Y187591D01*
X32203Y187580D01*
X32247Y187501D01*
X32281Y187423D01*
X32309Y187345D01*
X32325Y187272D01*
X32337Y187211D01*
X32342Y187166D01*
Y187132D01*
Y187121D01*
X32337Y187026D01*
X32320Y186931D01*
X32298Y186847D01*
X32269Y186775D01*
X32242Y186713D01*
X32219Y186663D01*
X32203Y186635D01*
X32197Y186624D01*
X32141Y186540D01*
X32074Y186467D01*
X32007Y186406D01*
X31940Y186350D01*
X31884Y186311D01*
X31833Y186277D01*
X31800Y186260D01*
X31794Y186255D01*
X31789D01*
X31688Y186210D01*
X31588Y186176D01*
X31487Y186149D01*
X31398Y186132D01*
X31325Y186120D01*
X31263Y186115D01*
X31124D01*
X31045Y186126D01*
X30894Y186154D01*
X30766Y186199D01*
X30654Y186243D01*
X30604Y186272D01*
X30565Y186294D01*
X30525Y186316D01*
X30498Y186339D01*
X30475Y186355D01*
X30458Y186366D01*
X30447Y186372D01*
X30442Y186378D01*
X30335Y186484D01*
X30252Y186601D01*
X30185Y186724D01*
X30129Y186847D01*
X30095Y186953D01*
X30078Y186998D01*
X30067Y187037D01*
X30062Y187071D01*
X30056Y187093D01*
X30050Y187110D01*
Y187116D01*
X30525Y187199D01*
X30548Y187076D01*
X30581Y186970D01*
X30621Y186881D01*
X30660Y186808D01*
X30699Y186752D01*
X30732Y186713D01*
X30755Y186685D01*
X30760Y186679D01*
X30833Y186624D01*
X30911Y186579D01*
X30984Y186551D01*
X31056Y186529D01*
X31124Y186517D01*
X31174Y186506D01*
X31219D01*
X31319Y186512D01*
X31409Y186534D01*
X31487Y186562D01*
X31554Y186590D01*
X31604Y186624D01*
X31644Y186652D01*
X31671Y186674D01*
X31677Y186679D01*
X31738Y186747D01*
X31783Y186819D01*
X31811Y186892D01*
X31833Y186959D01*
X31845Y187021D01*
X31856Y187065D01*
Y187099D01*
Y187104D01*
Y187110D01*
Y187171D01*
X31845Y187227D01*
X31817Y187322D01*
X31778Y187406D01*
X31733Y187479D01*
X31688Y187529D01*
X31649Y187568D01*
X31621Y187591D01*
X31615Y187596D01*
X31610D01*
X31515Y187647D01*
X31425Y187686D01*
X31330Y187714D01*
X31247Y187731D01*
X31174Y187742D01*
X31112Y187753D01*
X31040D01*
X31017Y187747D01*
X30989D01*
X30933Y188166D01*
X31006Y188150D01*
X31073Y188138D01*
X31129Y188127D01*
X31179Y188122D01*
X31219Y188116D01*
X31269D01*
X31386Y188127D01*
X31492Y188150D01*
X31588Y188183D01*
X31666Y188222D01*
X31727Y188261D01*
X31772Y188295D01*
X31800Y188317D01*
X31811Y188329D01*
X31884Y188412D01*
X31940Y188502D01*
X31979Y188591D01*
X32001Y188681D01*
X32018Y188753D01*
X32024Y188815D01*
X32029Y188837D01*
Y188854D01*
Y188865D01*
Y188871D01*
X32018Y188994D01*
X31990Y189106D01*
X31956Y189201D01*
X31912Y189285D01*
X31867Y189352D01*
X31833Y189402D01*
X31806Y189435D01*
X31794Y189447D01*
X31705Y189525D01*
X31610Y189581D01*
X31515Y189620D01*
X31425Y189648D01*
X31347Y189665D01*
X31286Y189670D01*
X31263Y189676D01*
X31230D01*
X31129Y189670D01*
X31034Y189648D01*
X30950Y189620D01*
X30883Y189586D01*
X30827Y189558D01*
X30783Y189530D01*
X30760Y189508D01*
X30749Y189503D01*
X30682Y189424D01*
X30626Y189335D01*
X30576Y189240D01*
X30537Y189139D01*
X30509Y189055D01*
X30498Y189016D01*
X30492Y188983D01*
X30486Y188955D01*
X30481Y188932D01*
X30475Y188921D01*
Y188916D01*
X30000Y188977D01*
X30011Y189067D01*
X30028Y189150D01*
X30078Y189307D01*
X30140Y189441D01*
X30173Y189497D01*
X30207Y189553D01*
X30240Y189603D01*
X30274Y189642D01*
X30302Y189681D01*
X30330Y189709D01*
X30347Y189732D01*
X30363Y189749D01*
X30375Y189760D01*
X30380Y189765D01*
X30447Y189815D01*
X30514Y189866D01*
X30581Y189905D01*
X30654Y189938D01*
X30794Y189994D01*
X30928Y190028D01*
X30989Y190039D01*
X31045Y190050D01*
X31096Y190056D01*
X31140Y190061D01*
X31174Y190067D01*
X31224D01*
X31330Y190061D01*
D02*
G37*
G36*
X22571Y189542D02*
X20665D01*
X20732Y189447D01*
X20766Y189408D01*
X20794Y189368D01*
X20822Y189335D01*
X20844Y189312D01*
X20861Y189296D01*
X20866Y189290D01*
X20894Y189262D01*
X20928Y189234D01*
X21006Y189162D01*
X21096Y189078D01*
X21191Y188994D01*
X21280Y188921D01*
X21319Y188888D01*
X21353Y188854D01*
X21381Y188832D01*
X21403Y188815D01*
X21414Y188804D01*
X21420Y188798D01*
X21509Y188720D01*
X21599Y188647D01*
X21677Y188575D01*
X21750Y188513D01*
X21817Y188452D01*
X21873Y188396D01*
X21929Y188345D01*
X21973Y188301D01*
X22018Y188256D01*
X22051Y188222D01*
X22080Y188194D01*
X22107Y188166D01*
X22135Y188133D01*
X22147Y188122D01*
X22225Y188027D01*
X22292Y187943D01*
X22348Y187859D01*
X22392Y187792D01*
X22426Y187731D01*
X22448Y187686D01*
X22460Y187658D01*
X22465Y187647D01*
X22499Y187563D01*
X22521Y187479D01*
X22544Y187401D01*
X22555Y187334D01*
X22560Y187272D01*
X22566Y187227D01*
Y187199D01*
Y187188D01*
X22560Y187104D01*
X22549Y187026D01*
X22538Y186948D01*
X22515Y186881D01*
X22460Y186747D01*
X22404Y186640D01*
X22370Y186590D01*
X22342Y186551D01*
X22314Y186512D01*
X22286Y186484D01*
X22264Y186461D01*
X22253Y186439D01*
X22242Y186434D01*
X22236Y186428D01*
X22174Y186372D01*
X22107Y186322D01*
X22035Y186283D01*
X21962Y186249D01*
X21817Y186193D01*
X21671Y186154D01*
X21610Y186143D01*
X21548Y186132D01*
X21493Y186126D01*
X21448Y186120D01*
X21409Y186115D01*
X21353D01*
X21252Y186120D01*
X21157Y186126D01*
X21068Y186143D01*
X20984Y186160D01*
X20906Y186182D01*
X20833Y186204D01*
X20766Y186232D01*
X20704Y186260D01*
X20648Y186288D01*
X20604Y186316D01*
X20565Y186339D01*
X20531Y186361D01*
X20503Y186378D01*
X20486Y186395D01*
X20475Y186400D01*
X20470Y186406D01*
X20414Y186461D01*
X20363Y186523D01*
X20313Y186590D01*
X20274Y186657D01*
X20207Y186791D01*
X20162Y186925D01*
X20145Y186987D01*
X20129Y187048D01*
X20117Y187099D01*
X20106Y187144D01*
X20101Y187183D01*
Y187211D01*
X20095Y187227D01*
Y187233D01*
X20581Y187283D01*
X20593Y187155D01*
X20615Y187043D01*
X20648Y186942D01*
X20688Y186864D01*
X20721Y186797D01*
X20755Y186752D01*
X20777Y186724D01*
X20788Y186713D01*
X20872Y186646D01*
X20962Y186596D01*
X21057Y186557D01*
X21140Y186534D01*
X21219Y186517D01*
X21286Y186512D01*
X21308Y186506D01*
X21342D01*
X21459Y186512D01*
X21565Y186534D01*
X21655Y186568D01*
X21733Y186601D01*
X21794Y186640D01*
X21834Y186668D01*
X21861Y186691D01*
X21873Y186702D01*
X21940Y186780D01*
X21990Y186858D01*
X22029Y186937D01*
X22051Y187015D01*
X22068Y187076D01*
X22074Y187132D01*
X22080Y187166D01*
Y187171D01*
Y187177D01*
X22068Y187278D01*
X22046Y187384D01*
X22007Y187479D01*
X21968Y187568D01*
X21923Y187641D01*
X21884Y187703D01*
X21873Y187725D01*
X21861Y187742D01*
X21850Y187747D01*
Y187753D01*
X21806Y187814D01*
X21750Y187876D01*
X21688Y187943D01*
X21621Y188010D01*
X21481Y188144D01*
X21342Y188278D01*
X21269Y188340D01*
X21207Y188396D01*
X21146Y188446D01*
X21096Y188491D01*
X21057Y188524D01*
X21023Y188552D01*
X21001Y188569D01*
X20995Y188575D01*
X20855Y188692D01*
X20727Y188804D01*
X20620Y188904D01*
X20537Y188988D01*
X20464Y189061D01*
X20414Y189111D01*
X20386Y189145D01*
X20374Y189150D01*
Y189156D01*
X20296Y189251D01*
X20235Y189340D01*
X20179Y189430D01*
X20134Y189508D01*
X20101Y189575D01*
X20078Y189626D01*
X20067Y189659D01*
X20062Y189665D01*
Y189670D01*
X20039Y189732D01*
X20028Y189788D01*
X20017Y189843D01*
X20011Y189894D01*
X20006Y189938D01*
Y189972D01*
Y189994D01*
Y190000D01*
X22571D01*
Y189542D01*
D02*
G37*
G36*
X11425Y186115D02*
X11118D01*
X11062Y186210D01*
X11001Y186299D01*
X10928Y186389D01*
X10861Y186467D01*
X10794Y186534D01*
X10744Y186590D01*
X10721Y186607D01*
X10704Y186624D01*
X10699Y186629D01*
X10693Y186635D01*
X10576Y186730D01*
X10458Y186819D01*
X10347Y186898D01*
X10235Y186959D01*
X10140Y187015D01*
X10101Y187037D01*
X10067Y187054D01*
X10039Y187071D01*
X10017Y187076D01*
X10006Y187088D01*
X10000D01*
Y187546D01*
X10084Y187512D01*
X10168Y187473D01*
X10252Y187434D01*
X10330Y187395D01*
X10397Y187362D01*
X10453Y187334D01*
X10486Y187311D01*
X10492Y187306D01*
X10498D01*
X10598Y187244D01*
X10688Y187183D01*
X10766Y187127D01*
X10827Y187076D01*
X10883Y187037D01*
X10917Y187004D01*
X10945Y186981D01*
X10950Y186976D01*
Y190000D01*
X11425D01*
Y186115D01*
D02*
G37*
G36*
X185858Y477476D02*
X185994Y477462D01*
X186123Y477433D01*
X186245Y477397D01*
X186353Y477347D01*
X186460Y477304D01*
X186554Y477247D01*
X186640Y477196D01*
X186711Y477146D01*
X186783Y477089D01*
X186840Y477046D01*
X186883Y477003D01*
X186919Y476960D01*
X186948Y476931D01*
X186962Y476917D01*
X186969Y476910D01*
X187063Y476781D01*
X187142Y476630D01*
X187213Y476472D01*
X187278Y476307D01*
X187328Y476135D01*
X187371Y475963D01*
X187407Y475784D01*
X187435Y475619D01*
X187457Y475454D01*
X187471Y475304D01*
X187486Y475167D01*
X187493Y475052D01*
Y474952D01*
X187500Y474880D01*
Y474852D01*
Y474830D01*
Y474823D01*
Y474816D01*
X187493Y474586D01*
X187478Y474371D01*
X187457Y474171D01*
X187421Y473984D01*
X187385Y473819D01*
X187349Y473669D01*
X187306Y473532D01*
X187256Y473411D01*
X187213Y473310D01*
X187170Y473217D01*
X187134Y473145D01*
X187091Y473081D01*
X187063Y473031D01*
X187041Y473002D01*
X187027Y472980D01*
X187020Y472973D01*
X186926Y472873D01*
X186826Y472787D01*
X186726Y472715D01*
X186625Y472651D01*
X186518Y472593D01*
X186417Y472550D01*
X186317Y472514D01*
X186217Y472486D01*
X186130Y472464D01*
X186045Y472443D01*
X185973Y472428D01*
X185908Y472421D01*
X185851D01*
X185815Y472414D01*
X185779D01*
X185614Y472421D01*
X185464Y472450D01*
X185327Y472478D01*
X185206Y472521D01*
X185112Y472557D01*
X185041Y472593D01*
X185012Y472600D01*
X184991Y472615D01*
X184983Y472622D01*
X184976D01*
X184854Y472708D01*
X184740Y472808D01*
X184646Y472909D01*
X184567Y473009D01*
X184503Y473102D01*
X184460Y473174D01*
X184446Y473203D01*
X184431Y473224D01*
X184424Y473231D01*
Y473239D01*
X184352Y473389D01*
X184302Y473547D01*
X184266Y473690D01*
X184245Y473827D01*
X184223Y473941D01*
Y473984D01*
X184216Y474027D01*
Y474063D01*
Y474085D01*
Y474099D01*
Y474106D01*
X184223Y474235D01*
X184238Y474357D01*
X184259Y474479D01*
X184281Y474586D01*
X184317Y474687D01*
X184352Y474787D01*
X184388Y474873D01*
X184431Y474952D01*
X184474Y475024D01*
X184510Y475088D01*
X184546Y475139D01*
X184582Y475189D01*
X184603Y475225D01*
X184625Y475246D01*
X184639Y475260D01*
X184646Y475268D01*
X184725Y475347D01*
X184811Y475418D01*
X184905Y475476D01*
X184991Y475526D01*
X185076Y475576D01*
X185163Y475612D01*
X185327Y475662D01*
X185399Y475683D01*
X185471Y475698D01*
X185528Y475705D01*
X185586Y475712D01*
X185629Y475719D01*
X185686D01*
X185815Y475712D01*
X185937Y475691D01*
X186052Y475669D01*
X186152Y475640D01*
X186238Y475605D01*
X186303Y475583D01*
X186346Y475562D01*
X186353Y475554D01*
X186360D01*
X186475Y475483D01*
X186575Y475404D01*
X186668Y475325D01*
X186740Y475239D01*
X186804Y475167D01*
X186855Y475110D01*
X186883Y475067D01*
X186891Y475060D01*
Y475189D01*
X186883Y475318D01*
X186876Y475432D01*
X186862Y475547D01*
X186855Y475648D01*
X186840Y475741D01*
X186826Y475827D01*
X186804Y475906D01*
X186790Y475978D01*
X186776Y476035D01*
X186761Y476085D01*
X186754Y476128D01*
X186740Y476157D01*
X186733Y476178D01*
X186726Y476193D01*
Y476200D01*
X186654Y476343D01*
X186582Y476472D01*
X186503Y476573D01*
X186432Y476659D01*
X186367Y476730D01*
X186317Y476781D01*
X186281Y476809D01*
X186267Y476816D01*
X186181Y476874D01*
X186095Y476910D01*
X186009Y476938D01*
X185923Y476960D01*
X185858Y476974D01*
X185801Y476981D01*
X185750D01*
X185622Y476967D01*
X185500Y476938D01*
X185399Y476895D01*
X185306Y476852D01*
X185234Y476802D01*
X185184Y476759D01*
X185155Y476730D01*
X185141Y476716D01*
X185091Y476651D01*
X185041Y476573D01*
X184998Y476486D01*
X184969Y476401D01*
X184940Y476322D01*
X184919Y476257D01*
X184912Y476214D01*
X184905Y476207D01*
Y476200D01*
X184295Y476250D01*
X184338Y476451D01*
X184403Y476630D01*
X184474Y476788D01*
X184553Y476917D01*
X184632Y477017D01*
X184661Y477060D01*
X184696Y477096D01*
X184718Y477117D01*
X184740Y477139D01*
X184747Y477146D01*
X184754Y477153D01*
X184826Y477211D01*
X184905Y477261D01*
X185062Y477347D01*
X185220Y477404D01*
X185371Y477440D01*
X185507Y477469D01*
X185564Y477476D01*
X185614D01*
X185657Y477483D01*
X185715D01*
X185858Y477476D01*
D02*
G37*
G36*
X204394Y495976D02*
X204516Y495969D01*
X204630Y495947D01*
X204738Y495926D01*
X204838Y495897D01*
X204932Y495868D01*
X205018Y495833D01*
X205097Y495797D01*
X205168Y495761D01*
X205226Y495725D01*
X205276Y495696D01*
X205319Y495668D01*
X205355Y495646D01*
X205376Y495625D01*
X205391Y495617D01*
X205398Y495610D01*
X205469Y495539D01*
X205534Y495460D01*
X205598Y495374D01*
X205649Y495288D01*
X205735Y495116D01*
X205792Y494944D01*
X205814Y494865D01*
X205835Y494786D01*
X205849Y494721D01*
X205864Y494664D01*
X205871Y494614D01*
Y494578D01*
X205878Y494556D01*
Y494549D01*
X205254Y494485D01*
X205240Y494650D01*
X205211Y494793D01*
X205168Y494922D01*
X205118Y495022D01*
X205075Y495108D01*
X205032Y495166D01*
X205003Y495202D01*
X204989Y495216D01*
X204882Y495302D01*
X204767Y495366D01*
X204645Y495417D01*
X204537Y495445D01*
X204437Y495467D01*
X204351Y495474D01*
X204322Y495481D01*
X204279D01*
X204129Y495474D01*
X203992Y495445D01*
X203878Y495402D01*
X203777Y495359D01*
X203698Y495309D01*
X203648Y495273D01*
X203612Y495245D01*
X203598Y495230D01*
X203512Y495130D01*
X203448Y495029D01*
X203397Y494929D01*
X203369Y494829D01*
X203347Y494750D01*
X203340Y494678D01*
X203333Y494635D01*
Y494628D01*
Y494621D01*
X203347Y494492D01*
X203376Y494356D01*
X203426Y494234D01*
X203476Y494119D01*
X203534Y494026D01*
X203584Y493947D01*
X203598Y493918D01*
X203612Y493897D01*
X203627Y493890D01*
Y493882D01*
X203684Y493804D01*
X203756Y493725D01*
X203835Y493639D01*
X203921Y493552D01*
X204100Y493380D01*
X204279Y493208D01*
X204372Y493129D01*
X204451Y493058D01*
X204530Y492993D01*
X204595Y492936D01*
X204645Y492893D01*
X204688Y492857D01*
X204717Y492836D01*
X204724Y492828D01*
X204903Y492678D01*
X205068Y492534D01*
X205204Y492405D01*
X205312Y492298D01*
X205405Y492205D01*
X205469Y492140D01*
X205505Y492097D01*
X205520Y492090D01*
Y492083D01*
X205620Y491961D01*
X205699Y491846D01*
X205771Y491731D01*
X205828Y491631D01*
X205871Y491545D01*
X205900Y491480D01*
X205914Y491437D01*
X205921Y491430D01*
Y491423D01*
X205950Y491344D01*
X205964Y491272D01*
X205978Y491201D01*
X205986Y491136D01*
X205993Y491079D01*
Y491036D01*
Y491007D01*
Y491000D01*
X202702D01*
Y491588D01*
X205147D01*
X205061Y491710D01*
X205018Y491760D01*
X204982Y491810D01*
X204946Y491853D01*
X204917Y491882D01*
X204896Y491903D01*
X204889Y491911D01*
X204853Y491946D01*
X204810Y491982D01*
X204709Y492075D01*
X204595Y492183D01*
X204473Y492291D01*
X204358Y492384D01*
X204308Y492427D01*
X204265Y492470D01*
X204229Y492498D01*
X204200Y492520D01*
X204186Y492534D01*
X204179Y492542D01*
X204064Y492642D01*
X203949Y492735D01*
X203849Y492828D01*
X203756Y492907D01*
X203670Y492986D01*
X203598Y493058D01*
X203526Y493122D01*
X203469Y493180D01*
X203412Y493237D01*
X203369Y493280D01*
X203333Y493316D01*
X203297Y493352D01*
X203261Y493395D01*
X203247Y493409D01*
X203146Y493531D01*
X203060Y493639D01*
X202989Y493746D01*
X202931Y493832D01*
X202888Y493911D01*
X202859Y493968D01*
X202845Y494004D01*
X202838Y494019D01*
X202795Y494126D01*
X202766Y494234D01*
X202738Y494334D01*
X202723Y494420D01*
X202716Y494499D01*
X202709Y494556D01*
Y494592D01*
Y494606D01*
X202716Y494714D01*
X202730Y494814D01*
X202745Y494915D01*
X202773Y495001D01*
X202845Y495173D01*
X202917Y495309D01*
X202960Y495374D01*
X202996Y495424D01*
X203032Y495474D01*
X203067Y495510D01*
X203096Y495539D01*
X203111Y495567D01*
X203125Y495575D01*
X203132Y495582D01*
X203211Y495653D01*
X203297Y495718D01*
X203390Y495768D01*
X203483Y495811D01*
X203670Y495883D01*
X203856Y495933D01*
X203935Y495947D01*
X204014Y495962D01*
X204086Y495969D01*
X204143Y495976D01*
X204193Y495983D01*
X204265D01*
X204394Y495976D01*
D02*
G37*
G36*
X204638Y485861D02*
X204717Y485746D01*
X204810Y485632D01*
X204896Y485531D01*
X204982Y485445D01*
X205046Y485374D01*
X205075Y485352D01*
X205097Y485331D01*
X205104Y485323D01*
X205111Y485316D01*
X205261Y485194D01*
X205412Y485080D01*
X205556Y484979D01*
X205699Y484901D01*
X205821Y484829D01*
X205871Y484800D01*
X205914Y484779D01*
X205950Y484757D01*
X205978Y484750D01*
X205993Y484736D01*
X206000D01*
Y484148D01*
X205892Y484191D01*
X205785Y484241D01*
X205677Y484291D01*
X205577Y484341D01*
X205491Y484384D01*
X205419Y484420D01*
X205376Y484449D01*
X205369Y484456D01*
X205362D01*
X205233Y484535D01*
X205118Y484614D01*
X205018Y484685D01*
X204939Y484750D01*
X204867Y484800D01*
X204824Y484843D01*
X204788Y484872D01*
X204781Y484879D01*
Y481000D01*
X204172D01*
Y485983D01*
X204566D01*
X204638Y485861D01*
D02*
G37*
G36*
X122858Y478976D02*
X122994Y478962D01*
X123123Y478933D01*
X123245Y478897D01*
X123353Y478847D01*
X123460Y478804D01*
X123554Y478747D01*
X123640Y478696D01*
X123711Y478646D01*
X123783Y478589D01*
X123840Y478546D01*
X123883Y478503D01*
X123919Y478460D01*
X123948Y478431D01*
X123962Y478417D01*
X123969Y478410D01*
X124063Y478280D01*
X124142Y478130D01*
X124213Y477972D01*
X124278Y477807D01*
X124328Y477635D01*
X124371Y477463D01*
X124407Y477284D01*
X124435Y477119D01*
X124457Y476954D01*
X124471Y476803D01*
X124486Y476667D01*
X124493Y476552D01*
Y476452D01*
X124500Y476380D01*
Y476352D01*
Y476330D01*
Y476323D01*
Y476316D01*
X124493Y476087D01*
X124478Y475871D01*
X124457Y475671D01*
X124421Y475484D01*
X124385Y475319D01*
X124349Y475169D01*
X124306Y475033D01*
X124256Y474911D01*
X124213Y474810D01*
X124170Y474717D01*
X124134Y474645D01*
X124091Y474581D01*
X124063Y474531D01*
X124041Y474502D01*
X124027Y474480D01*
X124020Y474473D01*
X123926Y474373D01*
X123826Y474287D01*
X123726Y474215D01*
X123625Y474151D01*
X123518Y474093D01*
X123417Y474050D01*
X123317Y474014D01*
X123217Y473986D01*
X123131Y473964D01*
X123045Y473943D01*
X122973Y473928D01*
X122908Y473921D01*
X122851D01*
X122815Y473914D01*
X122779D01*
X122614Y473921D01*
X122464Y473950D01*
X122327Y473979D01*
X122206Y474021D01*
X122112Y474057D01*
X122041Y474093D01*
X122012Y474100D01*
X121991Y474115D01*
X121983Y474122D01*
X121976D01*
X121854Y474208D01*
X121740Y474308D01*
X121646Y474409D01*
X121567Y474509D01*
X121503Y474602D01*
X121460Y474674D01*
X121446Y474703D01*
X121431Y474724D01*
X121424Y474731D01*
Y474739D01*
X121352Y474889D01*
X121302Y475047D01*
X121266Y475190D01*
X121245Y475326D01*
X121223Y475441D01*
Y475484D01*
X121216Y475527D01*
Y475563D01*
Y475585D01*
Y475599D01*
Y475606D01*
X121223Y475735D01*
X121238Y475857D01*
X121259Y475979D01*
X121281Y476087D01*
X121317Y476187D01*
X121352Y476287D01*
X121388Y476373D01*
X121431Y476452D01*
X121474Y476524D01*
X121510Y476588D01*
X121546Y476639D01*
X121582Y476689D01*
X121603Y476725D01*
X121625Y476746D01*
X121639Y476760D01*
X121646Y476768D01*
X121725Y476847D01*
X121811Y476918D01*
X121905Y476976D01*
X121991Y477026D01*
X122076Y477076D01*
X122163Y477112D01*
X122327Y477162D01*
X122399Y477183D01*
X122471Y477198D01*
X122528Y477205D01*
X122586Y477212D01*
X122629Y477219D01*
X122686D01*
X122815Y477212D01*
X122937Y477191D01*
X123052Y477169D01*
X123152Y477141D01*
X123238Y477105D01*
X123303Y477083D01*
X123346Y477062D01*
X123353Y477054D01*
X123360D01*
X123475Y476983D01*
X123575Y476904D01*
X123668Y476825D01*
X123740Y476739D01*
X123804Y476667D01*
X123855Y476610D01*
X123883Y476567D01*
X123891Y476560D01*
Y476689D01*
X123883Y476818D01*
X123876Y476932D01*
X123862Y477047D01*
X123855Y477148D01*
X123840Y477241D01*
X123826Y477327D01*
X123804Y477406D01*
X123790Y477478D01*
X123776Y477535D01*
X123761Y477585D01*
X123754Y477628D01*
X123740Y477657D01*
X123733Y477678D01*
X123726Y477693D01*
Y477700D01*
X123654Y477843D01*
X123582Y477972D01*
X123503Y478073D01*
X123432Y478159D01*
X123367Y478230D01*
X123317Y478280D01*
X123281Y478309D01*
X123267Y478316D01*
X123181Y478374D01*
X123095Y478410D01*
X123009Y478438D01*
X122923Y478460D01*
X122858Y478474D01*
X122801Y478481D01*
X122750D01*
X122622Y478467D01*
X122500Y478438D01*
X122399Y478395D01*
X122306Y478352D01*
X122234Y478302D01*
X122184Y478259D01*
X122155Y478230D01*
X122141Y478216D01*
X122091Y478151D01*
X122041Y478073D01*
X121998Y477986D01*
X121969Y477901D01*
X121940Y477822D01*
X121919Y477757D01*
X121912Y477714D01*
X121905Y477707D01*
Y477700D01*
X121295Y477750D01*
X121338Y477951D01*
X121403Y478130D01*
X121474Y478288D01*
X121553Y478417D01*
X121632Y478517D01*
X121661Y478560D01*
X121696Y478596D01*
X121718Y478617D01*
X121740Y478639D01*
X121747Y478646D01*
X121754Y478653D01*
X121826Y478711D01*
X121905Y478761D01*
X122062Y478847D01*
X122220Y478904D01*
X122371Y478940D01*
X122507Y478969D01*
X122564Y478976D01*
X122614D01*
X122657Y478983D01*
X122715D01*
X122858Y478976D01*
D02*
G37*
G36*
X141394Y497476D02*
X141516Y497469D01*
X141630Y497447D01*
X141738Y497426D01*
X141839Y497397D01*
X141932Y497368D01*
X142018Y497333D01*
X142097Y497297D01*
X142168Y497261D01*
X142226Y497225D01*
X142276Y497196D01*
X142319Y497168D01*
X142355Y497146D01*
X142376Y497125D01*
X142391Y497118D01*
X142398Y497110D01*
X142469Y497039D01*
X142534Y496960D01*
X142598Y496874D01*
X142649Y496788D01*
X142735Y496616D01*
X142792Y496444D01*
X142814Y496365D01*
X142835Y496286D01*
X142849Y496221D01*
X142864Y496164D01*
X142871Y496114D01*
Y496078D01*
X142878Y496056D01*
Y496049D01*
X142254Y495985D01*
X142240Y496149D01*
X142211Y496293D01*
X142168Y496422D01*
X142118Y496522D01*
X142075Y496608D01*
X142032Y496666D01*
X142003Y496702D01*
X141989Y496716D01*
X141882Y496802D01*
X141767Y496867D01*
X141645Y496917D01*
X141537Y496945D01*
X141437Y496967D01*
X141351Y496974D01*
X141322Y496981D01*
X141279D01*
X141129Y496974D01*
X140992Y496945D01*
X140878Y496902D01*
X140777Y496859D01*
X140698Y496809D01*
X140648Y496773D01*
X140612Y496745D01*
X140598Y496730D01*
X140512Y496630D01*
X140447Y496529D01*
X140397Y496429D01*
X140369Y496329D01*
X140347Y496250D01*
X140340Y496178D01*
X140333Y496135D01*
Y496128D01*
Y496121D01*
X140347Y495992D01*
X140376Y495856D01*
X140426Y495734D01*
X140476Y495619D01*
X140533Y495526D01*
X140584Y495447D01*
X140598Y495418D01*
X140612Y495397D01*
X140627Y495390D01*
Y495382D01*
X140684Y495303D01*
X140756Y495225D01*
X140835Y495139D01*
X140921Y495052D01*
X141100Y494880D01*
X141279Y494708D01*
X141372Y494629D01*
X141451Y494558D01*
X141530Y494493D01*
X141595Y494436D01*
X141645Y494393D01*
X141688Y494357D01*
X141717Y494336D01*
X141724Y494328D01*
X141903Y494178D01*
X142068Y494034D01*
X142204Y493905D01*
X142312Y493798D01*
X142405Y493705D01*
X142469Y493640D01*
X142505Y493597D01*
X142520Y493590D01*
Y493583D01*
X142620Y493461D01*
X142699Y493346D01*
X142771Y493231D01*
X142828Y493131D01*
X142871Y493045D01*
X142900Y492980D01*
X142914Y492937D01*
X142921Y492930D01*
Y492923D01*
X142950Y492844D01*
X142964Y492772D01*
X142979Y492701D01*
X142986Y492636D01*
X142993Y492579D01*
Y492536D01*
Y492507D01*
Y492500D01*
X139702D01*
Y493088D01*
X142147D01*
X142061Y493210D01*
X142018Y493260D01*
X141982Y493310D01*
X141946Y493353D01*
X141917Y493382D01*
X141896Y493403D01*
X141889Y493411D01*
X141853Y493446D01*
X141810Y493482D01*
X141709Y493575D01*
X141595Y493683D01*
X141473Y493791D01*
X141358Y493884D01*
X141308Y493927D01*
X141265Y493970D01*
X141229Y493998D01*
X141200Y494020D01*
X141186Y494034D01*
X141179Y494042D01*
X141064Y494142D01*
X140949Y494235D01*
X140849Y494328D01*
X140756Y494407D01*
X140670Y494486D01*
X140598Y494558D01*
X140526Y494622D01*
X140469Y494680D01*
X140412Y494737D01*
X140369Y494780D01*
X140333Y494816D01*
X140297Y494852D01*
X140261Y494895D01*
X140247Y494909D01*
X140146Y495031D01*
X140060Y495139D01*
X139989Y495246D01*
X139931Y495332D01*
X139888Y495411D01*
X139859Y495468D01*
X139845Y495504D01*
X139838Y495519D01*
X139795Y495626D01*
X139766Y495734D01*
X139738Y495834D01*
X139723Y495920D01*
X139716Y495999D01*
X139709Y496056D01*
Y496092D01*
Y496106D01*
X139716Y496214D01*
X139731Y496314D01*
X139745Y496415D01*
X139773Y496501D01*
X139845Y496673D01*
X139917Y496809D01*
X139960Y496874D01*
X139996Y496924D01*
X140032Y496974D01*
X140068Y497010D01*
X140096Y497039D01*
X140111Y497067D01*
X140125Y497075D01*
X140132Y497082D01*
X140211Y497153D01*
X140297Y497218D01*
X140390Y497268D01*
X140483Y497311D01*
X140670Y497383D01*
X140856Y497433D01*
X140935Y497447D01*
X141014Y497462D01*
X141086Y497469D01*
X141143Y497476D01*
X141193Y497483D01*
X141265D01*
X141394Y497476D01*
D02*
G37*
G36*
X141638Y487361D02*
X141717Y487247D01*
X141810Y487132D01*
X141896Y487031D01*
X141982Y486945D01*
X142046Y486874D01*
X142075Y486852D01*
X142097Y486831D01*
X142104Y486824D01*
X142111Y486816D01*
X142262Y486694D01*
X142412Y486580D01*
X142555Y486479D01*
X142699Y486401D01*
X142821Y486329D01*
X142871Y486300D01*
X142914Y486279D01*
X142950Y486257D01*
X142979Y486250D01*
X142993Y486236D01*
X143000D01*
Y485648D01*
X142893Y485691D01*
X142785Y485741D01*
X142677Y485791D01*
X142577Y485841D01*
X142491Y485884D01*
X142419Y485920D01*
X142376Y485949D01*
X142369Y485956D01*
X142362D01*
X142233Y486035D01*
X142118Y486114D01*
X142018Y486185D01*
X141939Y486250D01*
X141867Y486300D01*
X141824Y486343D01*
X141788Y486372D01*
X141781Y486379D01*
Y482500D01*
X141172D01*
Y487483D01*
X141566D01*
X141638Y487361D01*
D02*
G37*
%LPC*%
G36*
X71944Y138297D02*
X71908D01*
X71894D01*
X71722Y138283D01*
X71571Y138254D01*
X71435Y138204D01*
X71328Y138154D01*
X71234Y138104D01*
X71170Y138054D01*
X71134Y138025D01*
X71120Y138011D01*
X71019Y137896D01*
X70947Y137781D01*
X70890Y137659D01*
X70854Y137552D01*
X70833Y137451D01*
X70826Y137380D01*
X70818Y137351D01*
Y137308D01*
X70833Y137157D01*
X70869Y137021D01*
X70912Y136906D01*
X70969Y136806D01*
X71026Y136727D01*
X71069Y136670D01*
X71105Y136634D01*
X71120Y136620D01*
X71241Y136526D01*
X71371Y136455D01*
X71507Y136405D01*
X71636Y136376D01*
X71750Y136354D01*
X71801Y136347D01*
X71844D01*
X71880Y136340D01*
X71908D01*
X71923D01*
X71930D01*
X72123Y136354D01*
X72288Y136383D01*
X72432Y136426D01*
X72554Y136476D01*
X72647Y136533D01*
X72719Y136576D01*
X72761Y136605D01*
X72769Y136620D01*
X72776D01*
X72833Y136670D01*
X72876Y136727D01*
X72955Y136842D01*
X73005Y136957D01*
X73048Y137057D01*
X73070Y137150D01*
X73077Y137222D01*
X73084Y137250D01*
Y137286D01*
X73077Y137387D01*
X73063Y137480D01*
X73034Y137566D01*
X73005Y137638D01*
X72984Y137702D01*
X72955Y137752D01*
X72941Y137781D01*
X72934Y137795D01*
X72869Y137882D01*
X72804Y137953D01*
X72726Y138018D01*
X72661Y138068D01*
X72597Y138111D01*
X72546Y138140D01*
X72510Y138161D01*
X72496Y138168D01*
X72389Y138211D01*
X72281Y138240D01*
X72181Y138269D01*
X72088Y138283D01*
X72009Y138290D01*
X71944Y138297D01*
D02*
G37*
G36*
X33944D02*
X33908D01*
X33894D01*
X33722Y138283D01*
X33571Y138254D01*
X33435Y138204D01*
X33327Y138154D01*
X33234Y138104D01*
X33170Y138054D01*
X33134Y138025D01*
X33120Y138011D01*
X33019Y137896D01*
X32947Y137781D01*
X32890Y137659D01*
X32854Y137552D01*
X32833Y137451D01*
X32826Y137380D01*
X32818Y137351D01*
Y137308D01*
X32833Y137157D01*
X32869Y137021D01*
X32912Y136906D01*
X32969Y136806D01*
X33026Y136727D01*
X33069Y136670D01*
X33105Y136634D01*
X33120Y136620D01*
X33241Y136526D01*
X33371Y136455D01*
X33507Y136405D01*
X33636Y136376D01*
X33751Y136354D01*
X33801Y136347D01*
X33844D01*
X33880Y136340D01*
X33908D01*
X33923D01*
X33930D01*
X34123Y136354D01*
X34288Y136383D01*
X34432Y136426D01*
X34554Y136476D01*
X34647Y136533D01*
X34718Y136576D01*
X34762Y136605D01*
X34769Y136620D01*
X34776D01*
X34833Y136670D01*
X34876Y136727D01*
X34955Y136842D01*
X35005Y136957D01*
X35048Y137057D01*
X35070Y137150D01*
X35077Y137222D01*
X35084Y137250D01*
Y137286D01*
X35077Y137387D01*
X35063Y137480D01*
X35034Y137566D01*
X35005Y137638D01*
X34984Y137702D01*
X34955Y137752D01*
X34941Y137781D01*
X34934Y137795D01*
X34869Y137882D01*
X34804Y137953D01*
X34726Y138018D01*
X34661Y138068D01*
X34597Y138111D01*
X34546Y138140D01*
X34510Y138161D01*
X34496Y138168D01*
X34389Y138211D01*
X34281Y138240D01*
X34181Y138269D01*
X34087Y138283D01*
X34009Y138290D01*
X33944Y138297D01*
D02*
G37*
G36*
X41383Y481868D02*
X40628D01*
Y481640D01*
X40629Y481621D01*
Y481602D01*
X40631Y481585D01*
X40635Y481557D01*
X40638Y481534D01*
X40642Y481515D01*
X40646Y481502D01*
X40648Y481495D01*
X40649Y481492D01*
X40662Y481467D01*
X40678Y481442D01*
X40696Y481421D01*
X40715Y481402D01*
X40732Y481388D01*
X40746Y481377D01*
X40752Y481374D01*
X40756Y481371D01*
X40759Y481368D01*
X40761D01*
X40776Y481359D01*
X40795Y481351D01*
X40832Y481338D01*
X40872Y481329D01*
X40911Y481322D01*
X40928Y481321D01*
X40945Y481319D01*
X40960Y481318D01*
X40972D01*
X40984Y481317D01*
X40991D01*
X40997D01*
X40998D01*
X41038Y481318D01*
X41075Y481321D01*
X41108Y481325D01*
X41137Y481329D01*
X41148Y481332D01*
X41158Y481335D01*
X41168Y481338D01*
X41175Y481339D01*
X41181Y481341D01*
X41185Y481342D01*
X41188Y481344D01*
X41190D01*
X41217Y481354D01*
X41241Y481365D01*
X41263Y481378D01*
X41281Y481389D01*
X41295Y481399D01*
X41306Y481408D01*
X41311Y481414D01*
X41314Y481415D01*
X41326Y481429D01*
X41336Y481444D01*
X41344Y481458D01*
X41353Y481472D01*
X41358Y481485D01*
X41363Y481495D01*
X41364Y481502D01*
X41366Y481505D01*
X41371Y481527D01*
X41376Y481552D01*
X41378Y481578D01*
X41380Y481602D01*
X41381Y481624D01*
X41383Y481634D01*
Y481868D01*
D02*
G37*
G36*
X43883D02*
X43128D01*
Y481640D01*
X43129Y481621D01*
Y481602D01*
X43131Y481585D01*
X43135Y481557D01*
X43138Y481534D01*
X43142Y481515D01*
X43146Y481502D01*
X43148Y481495D01*
X43149Y481492D01*
X43162Y481467D01*
X43178Y481442D01*
X43196Y481421D01*
X43215Y481402D01*
X43232Y481388D01*
X43246Y481377D01*
X43252Y481374D01*
X43256Y481371D01*
X43259Y481368D01*
X43261D01*
X43276Y481359D01*
X43295Y481351D01*
X43332Y481338D01*
X43372Y481329D01*
X43411Y481322D01*
X43428Y481321D01*
X43445Y481319D01*
X43459Y481318D01*
X43472D01*
X43484Y481317D01*
X43491D01*
X43497D01*
X43498D01*
X43538Y481318D01*
X43575Y481321D01*
X43608Y481325D01*
X43637Y481329D01*
X43648Y481332D01*
X43658Y481335D01*
X43668Y481338D01*
X43675Y481339D01*
X43681Y481341D01*
X43685Y481342D01*
X43688Y481344D01*
X43690D01*
X43717Y481354D01*
X43741Y481365D01*
X43763Y481378D01*
X43781Y481389D01*
X43795Y481399D01*
X43806Y481408D01*
X43811Y481414D01*
X43814Y481415D01*
X43826Y481429D01*
X43836Y481444D01*
X43844Y481458D01*
X43853Y481472D01*
X43858Y481485D01*
X43863Y481495D01*
X43864Y481502D01*
X43866Y481505D01*
X43871Y481527D01*
X43876Y481552D01*
X43878Y481578D01*
X43880Y481602D01*
X43881Y481624D01*
X43883Y481634D01*
Y481868D01*
D02*
G37*
G36*
X46383Y481505D02*
X45628D01*
Y481276D01*
X45629Y481258D01*
Y481239D01*
X45631Y481222D01*
X45635Y481193D01*
X45638Y481171D01*
X45642Y481152D01*
X45646Y481139D01*
X45648Y481132D01*
X45649Y481129D01*
X45662Y481103D01*
X45678Y481079D01*
X45696Y481058D01*
X45715Y481039D01*
X45732Y481025D01*
X45746Y481013D01*
X45752Y481010D01*
X45756Y481008D01*
X45759Y481005D01*
X45761D01*
X45776Y480996D01*
X45795Y480988D01*
X45832Y480975D01*
X45872Y480966D01*
X45911Y480959D01*
X45928Y480958D01*
X45945Y480956D01*
X45959Y480955D01*
X45972D01*
X45984Y480953D01*
X45991D01*
X45997D01*
X45998D01*
X46038Y480955D01*
X46075Y480958D01*
X46108Y480962D01*
X46137Y480966D01*
X46148Y480969D01*
X46158Y480972D01*
X46168Y480975D01*
X46175Y480976D01*
X46181Y480977D01*
X46185Y480979D01*
X46188Y480980D01*
X46190D01*
X46217Y480990D01*
X46241Y481002D01*
X46263Y481015D01*
X46281Y481026D01*
X46295Y481036D01*
X46306Y481045D01*
X46311Y481050D01*
X46314Y481052D01*
X46325Y481066D01*
X46336Y481080D01*
X46344Y481095D01*
X46353Y481109D01*
X46358Y481122D01*
X46363Y481132D01*
X46364Y481139D01*
X46366Y481142D01*
X46371Y481164D01*
X46376Y481189D01*
X46378Y481215D01*
X46380Y481239D01*
X46381Y481261D01*
X46383Y481271D01*
Y481505D01*
D02*
G37*
G36*
X48883Y479761D02*
X48128D01*
Y479532D01*
X48129Y479513D01*
Y479495D01*
X48131Y479478D01*
X48135Y479449D01*
X48138Y479426D01*
X48142Y479407D01*
X48146Y479394D01*
X48148Y479387D01*
X48149Y479385D01*
X48162Y479359D01*
X48178Y479334D01*
X48196Y479313D01*
X48215Y479294D01*
X48232Y479280D01*
X48246Y479269D01*
X48252Y479266D01*
X48256Y479263D01*
X48259Y479260D01*
X48261D01*
X48276Y479251D01*
X48295Y479243D01*
X48332Y479230D01*
X48372Y479221D01*
X48411Y479214D01*
X48428Y479213D01*
X48445Y479212D01*
X48460Y479210D01*
X48472D01*
X48484Y479209D01*
X48491D01*
X48497D01*
X48498D01*
X48538Y479210D01*
X48575Y479213D01*
X48608Y479217D01*
X48637Y479221D01*
X48648Y479224D01*
X48658Y479227D01*
X48668Y479230D01*
X48675Y479232D01*
X48681Y479233D01*
X48685Y479234D01*
X48688Y479236D01*
X48690D01*
X48717Y479246D01*
X48741Y479257D01*
X48763Y479270D01*
X48781Y479282D01*
X48796Y479292D01*
X48805Y479300D01*
X48811Y479306D01*
X48814Y479307D01*
X48825Y479322D01*
X48836Y479336D01*
X48844Y479350D01*
X48853Y479364D01*
X48858Y479377D01*
X48863Y479387D01*
X48864Y479394D01*
X48866Y479397D01*
X48871Y479419D01*
X48876Y479445D01*
X48878Y479470D01*
X48880Y479495D01*
X48881Y479516D01*
X48883Y479526D01*
Y479761D01*
D02*
G37*
G36*
X185851Y475182D02*
X185808D01*
X185657Y475167D01*
X185521Y475131D01*
X185406Y475088D01*
X185306Y475031D01*
X185227Y474974D01*
X185170Y474931D01*
X185134Y474895D01*
X185120Y474880D01*
X185026Y474759D01*
X184955Y474629D01*
X184905Y474493D01*
X184876Y474364D01*
X184854Y474250D01*
X184847Y474199D01*
Y474156D01*
X184840Y474120D01*
Y474092D01*
Y474077D01*
Y474070D01*
X184854Y473877D01*
X184883Y473712D01*
X184926Y473568D01*
X184976Y473446D01*
X185034Y473353D01*
X185076Y473281D01*
X185105Y473239D01*
X185120Y473231D01*
Y473224D01*
X185170Y473167D01*
X185227Y473124D01*
X185342Y473045D01*
X185457Y472995D01*
X185557Y472952D01*
X185650Y472930D01*
X185722Y472923D01*
X185750Y472916D01*
X185786D01*
X185887Y472923D01*
X185980Y472937D01*
X186066Y472966D01*
X186138Y472995D01*
X186202Y473016D01*
X186252Y473045D01*
X186281Y473059D01*
X186295Y473066D01*
X186381Y473131D01*
X186453Y473196D01*
X186518Y473274D01*
X186568Y473339D01*
X186611Y473403D01*
X186640Y473454D01*
X186661Y473490D01*
X186668Y473504D01*
X186711Y473611D01*
X186740Y473719D01*
X186769Y473819D01*
X186783Y473912D01*
X186790Y473991D01*
X186797Y474056D01*
Y474092D01*
Y474106D01*
X186783Y474278D01*
X186754Y474429D01*
X186704Y474565D01*
X186654Y474673D01*
X186604Y474766D01*
X186554Y474830D01*
X186525Y474866D01*
X186511Y474880D01*
X186396Y474981D01*
X186281Y475052D01*
X186159Y475110D01*
X186052Y475146D01*
X185951Y475167D01*
X185880Y475174D01*
X185851Y475182D01*
D02*
G37*
G36*
X122851Y476682D02*
X122808D01*
X122657Y476667D01*
X122521Y476631D01*
X122406Y476588D01*
X122306Y476531D01*
X122227Y476474D01*
X122170Y476431D01*
X122134Y476395D01*
X122120Y476380D01*
X122026Y476259D01*
X121955Y476129D01*
X121905Y475993D01*
X121876Y475864D01*
X121854Y475749D01*
X121847Y475699D01*
Y475656D01*
X121840Y475620D01*
Y475592D01*
Y475577D01*
Y475570D01*
X121854Y475377D01*
X121883Y475212D01*
X121926Y475068D01*
X121976Y474946D01*
X122034Y474853D01*
X122076Y474782D01*
X122105Y474739D01*
X122120Y474731D01*
Y474724D01*
X122170Y474667D01*
X122227Y474624D01*
X122342Y474545D01*
X122457Y474495D01*
X122557Y474452D01*
X122650Y474430D01*
X122722Y474423D01*
X122750Y474416D01*
X122786D01*
X122887Y474423D01*
X122980Y474437D01*
X123066Y474466D01*
X123138Y474495D01*
X123202Y474516D01*
X123252Y474545D01*
X123281Y474559D01*
X123295Y474566D01*
X123381Y474631D01*
X123453Y474695D01*
X123518Y474774D01*
X123568Y474839D01*
X123611Y474903D01*
X123640Y474954D01*
X123661Y474990D01*
X123668Y475004D01*
X123711Y475111D01*
X123740Y475219D01*
X123769Y475319D01*
X123783Y475413D01*
X123790Y475491D01*
X123797Y475556D01*
Y475592D01*
Y475606D01*
X123783Y475778D01*
X123754Y475929D01*
X123704Y476065D01*
X123654Y476172D01*
X123604Y476266D01*
X123554Y476330D01*
X123525Y476366D01*
X123511Y476380D01*
X123396Y476481D01*
X123281Y476552D01*
X123159Y476610D01*
X123052Y476646D01*
X122951Y476667D01*
X122880Y476674D01*
X122851Y476682D01*
D02*
G37*
%LPD*%
D30*
X552600Y213698D02*
G03*
X548800Y215013I-2557J-1243D01*
G01*
X548800Y193900D02*
G03*
X552600Y195300I1200J2600D01*
G01*
X519941Y195200D02*
G03*
X521161Y193900I1260J-40D01*
G01*
X521349Y215013D02*
G03*
X519941Y213605I0J-1408D01*
G01*
X524259Y213041D02*
G03*
X526324Y210976I2065J0D01*
G01*
X543700D02*
G03*
X545800Y213041I17J2083D01*
G01*
X553800Y213980D02*
G03*
X548700Y219049I-5084J-16D01*
G01*
Y189900D02*
G03*
X553800Y195000I0J5100D01*
G01*
X516374Y194800D02*
G03*
X521255Y189900I4891J-9D01*
G01*
Y219049D02*
G03*
X516374Y214168I0J-4881D01*
G01*
X36549Y57245D02*
G03*
X31668Y62126I-4881J0D01*
G01*
X12300D02*
G03*
X7400Y57245I-9J-4891D01*
G01*
Y29800D02*
G03*
X12500Y24700I5100J0D01*
G01*
X31480D02*
G03*
X36549Y29800I-16J5084D01*
G01*
X28476Y34800D02*
G03*
X30541Y32700I2083J-17D01*
G01*
Y54241D02*
G03*
X28476Y52176I0J-2065D01*
G01*
X32513Y57151D02*
G03*
X31105Y58559I-1408J0D01*
G01*
X12700D02*
G03*
X11400Y57339I-40J-1260D01*
G01*
Y29700D02*
G03*
X12800Y25900I2600J-1200D01*
G01*
X31198D02*
G03*
X32513Y29700I-1243J2557D01*
G01*
X545300Y198700D02*
Y211352D01*
X524822Y198700D02*
X545300D01*
X524822D02*
Y211258D01*
X546800Y192200D02*
X548100Y193600D01*
X521671Y193700D02*
X523172Y192200D01*
X523267Y190200D02*
Y192100D01*
X546700D01*
Y190000D02*
Y192100D01*
X548700Y190200D02*
Y193700D01*
X521295Y190100D02*
Y193700D01*
X546200Y215013D02*
X548800D01*
X552600Y195300D02*
Y213698D01*
X521161Y193900D02*
X548800D01*
X519941Y195200D02*
Y213605D01*
X521349Y215013D02*
X524165D01*
X524259Y213041D02*
Y219049D01*
X526324Y210976D02*
X543700D01*
X545800Y213041D02*
Y219049D01*
X548700D01*
X553800Y195000D02*
Y213980D01*
X521255Y189900D02*
X548700D01*
X516374Y194800D02*
Y214168D01*
X521255Y219049D02*
X524259D01*
X36549Y54241D02*
Y57245D01*
X12300Y62126D02*
X31668D01*
X7400Y29800D02*
Y57245D01*
X12500Y24700D02*
X31480D01*
X36549Y29800D02*
Y32700D01*
X30541D02*
X36549D01*
X28476Y34800D02*
Y52176D01*
X30541Y54241D02*
X36549D01*
X32513Y54335D02*
Y57151D01*
X12700Y58559D02*
X31105D01*
X11400Y29700D02*
Y57339D01*
X12800Y25900D02*
X31198D01*
X32513Y29700D02*
Y32300D01*
X7600Y57205D02*
X11200D01*
X7700Y29800D02*
X11200D01*
X7500Y31800D02*
X9600D01*
Y55234D01*
X7700D02*
X9600D01*
X9700Y55328D02*
X11200Y56829D01*
X9700Y31700D02*
X11100Y30400D01*
X16200Y53678D02*
X28758D01*
X16200Y33200D02*
Y53678D01*
Y33200D02*
X28852D01*
X2400Y354000D02*
X8500D01*
Y368900D01*
X2400D02*
X8500D01*
X2400Y424087D02*
X8500D01*
Y438913D01*
X2400D02*
X8500D01*
X34354Y438945D02*
X35535D01*
X34354Y433122D02*
Y438945D01*
Y433122D02*
X35535D01*
X6100Y456441D02*
X31894D01*
Y403913D02*
Y456441D01*
Y336500D02*
Y389000D01*
X6100Y336500D02*
X31894D01*
X6100D02*
Y354000D01*
Y368900D02*
Y424079D01*
Y438941D02*
Y456441D01*
X2400Y460870D02*
X35535D01*
Y438945D02*
Y460870D01*
Y403913D02*
Y433122D01*
Y389000D02*
Y403913D01*
X29433D02*
X35535D01*
X29433Y389000D02*
Y403913D01*
Y389000D02*
X35535D01*
Y358900D02*
Y389000D01*
X34354Y358900D02*
X35535D01*
X34354Y353100D02*
Y358900D01*
Y353100D02*
X35535D01*
Y332100D02*
Y353100D01*
X2400Y332100D02*
X35535D01*
X2400D02*
Y354000D01*
Y368900D01*
Y424087D01*
Y438913D01*
Y460870D01*
X2900Y250500D02*
X9000D01*
Y265400D01*
X2900D02*
X9000D01*
X2900Y290587D02*
X9000D01*
Y305413D01*
X2900D02*
X9000D01*
X6600Y322941D02*
X32394D01*
Y285413D02*
Y322941D01*
Y233000D02*
Y270500D01*
X6600Y233000D02*
X32394D01*
X6600D02*
Y250500D01*
Y265400D02*
Y290579D01*
Y305441D02*
Y322941D01*
X2900Y327370D02*
X36035D01*
Y285413D02*
Y327370D01*
Y270500D02*
Y285413D01*
X29933D02*
X36035D01*
X29933Y270500D02*
Y285413D01*
Y270500D02*
X36035D01*
Y255400D02*
Y270500D01*
X34854Y255400D02*
X36035D01*
X34854Y249600D02*
Y255400D01*
Y249600D02*
X36035D01*
Y228600D02*
Y249600D01*
X2900Y228600D02*
X36035D01*
X2900D02*
Y250500D01*
Y265400D01*
Y290587D01*
Y305413D01*
Y327370D01*
D31*
X564842Y41972D02*
G03*
X565000Y41998I158J-474D01*
G01*
X121000Y123500D02*
G03*
X121353Y123354I0J-500D01*
G01*
X204147Y151146D02*
G03*
X204500Y151000I0J-500D01*
G01*
X561053Y127499D02*
G03*
X561053Y127499I-47500J0D01*
G01*
X573553D02*
G03*
X573553Y127499I-60000J0D01*
G01*
X437651Y117000D02*
G03*
X437651Y117000I-47500J0D01*
G01*
X450151D02*
G03*
X450151Y117000I-60000J0D01*
G01*
X586000Y42498D02*
Y44498D01*
X567000Y42498D02*
X586000D01*
X567000D02*
Y44498D01*
X586500Y63498D02*
Y65498D01*
X567500D02*
X586500D01*
X567500Y63498D02*
Y65498D01*
X588904Y76244D02*
X593828Y79000D01*
X588904Y76244D02*
Y81800D01*
X593828Y79000D01*
X522052Y134999D02*
X527052D01*
X524552Y132499D02*
Y137499D01*
X503552Y127499D02*
X511053D01*
X519753Y117499D02*
Y127499D01*
X515252Y117499D02*
X519753D01*
X515252D02*
Y137499D01*
X519753D01*
Y127499D02*
Y137499D01*
Y127499D02*
X523553D01*
X376651Y109500D02*
X381651D01*
X379151Y107000D02*
Y112000D01*
X392651Y117000D02*
X400151D01*
X383951D02*
Y127000D01*
X388451D01*
Y107000D02*
Y127000D01*
X383951Y107000D02*
X388451D01*
X383951D02*
Y117000D01*
X380151D02*
X383951D01*
X598000Y154372D02*
Y146500D01*
X594064D01*
X592752Y147812D01*
Y149124D01*
X594064Y150436D01*
X598000D01*
X594064D01*
X592752Y151748D01*
Y153060D01*
X594064Y154372D01*
X598000D01*
X588817Y146500D02*
X586193D01*
X584881Y147812D01*
Y150436D01*
X586193Y151748D01*
X588817D01*
X590129Y150436D01*
Y147812D01*
X588817Y146500D01*
X582257Y154372D02*
X577009D01*
X579633D01*
Y146500D01*
X574386D02*
X571762D01*
X573074D01*
Y151748D01*
X574386D01*
X584002Y97500D02*
X590000D01*
Y94501D01*
X589000Y93501D01*
X585002D01*
X584002Y94501D01*
Y97500D01*
Y87503D02*
Y91502D01*
X587001D01*
X586001Y89503D01*
Y88503D01*
X587001Y87503D01*
X589000D01*
X590000Y88503D01*
Y90502D01*
X589000Y91502D01*
X572043Y73998D02*
Y69000D01*
X571043Y68000D01*
X569044D01*
X568044Y69000D01*
Y73998D01*
X566045Y72998D02*
X565045Y73998D01*
X563046D01*
X562046Y72998D01*
Y71999D01*
X563046Y70999D01*
X564046D01*
X563046D01*
X562046Y69999D01*
Y69000D01*
X563046Y68000D01*
X565045D01*
X566045Y69000D01*
X572000Y14303D02*
Y18239D01*
X570032D01*
X569376Y17583D01*
Y16271D01*
X570032Y15615D01*
X572000D01*
X570688D02*
X569376Y14303D01*
X566096D02*
Y18239D01*
X568064Y16271D01*
X565440D01*
X564128Y17583D02*
X563473Y18239D01*
X562161D01*
X561505Y17583D01*
Y16927D01*
X562161Y16271D01*
X561505Y15615D01*
Y14959D01*
X562161Y14303D01*
X563473D01*
X564128Y14959D01*
Y15615D01*
X563473Y16271D01*
X564128Y16927D01*
Y17583D01*
X563473Y16271D02*
X562161D01*
X550161Y72498D02*
Y66500D01*
X546163D01*
X540164D02*
X544163D01*
X540164Y70499D01*
Y71498D01*
X541164Y72498D01*
X543163D01*
X544163Y71498D01*
X441220Y34876D02*
X440564Y35532D01*
Y36844D01*
X441220Y37500D01*
X443844D01*
X444500Y36844D01*
Y35532D01*
X443844Y34876D01*
X444500Y30940D02*
Y33564D01*
X441876Y30940D01*
X441220D01*
X440564Y31596D01*
Y32908D01*
X441220Y33564D01*
X440564Y27005D02*
X441220Y28317D01*
X442532Y29629D01*
X443844D01*
X444500Y28973D01*
Y27661D01*
X443844Y27005D01*
X443188D01*
X442532Y27661D01*
Y29629D01*
X600220Y62204D02*
X599564Y62859D01*
Y64171D01*
X600220Y64827D01*
X602844D01*
X603500Y64171D01*
Y62859D01*
X602844Y62204D01*
X603500Y58268D02*
Y60891D01*
X600876Y58268D01*
X600220D01*
X599564Y58924D01*
Y60236D01*
X600220Y60891D01*
X599564Y54332D02*
Y56956D01*
X601532D01*
X600876Y55644D01*
Y54988D01*
X601532Y54332D01*
X602844D01*
X603500Y54988D01*
Y56300D01*
X602844Y56956D01*
X540506Y9008D02*
X541162Y9664D01*
X542474D01*
X543130Y9008D01*
Y6384D01*
X542474Y5728D01*
X541162D01*
X540506Y6384D01*
X536570Y5728D02*
X539194D01*
X536570Y8352D01*
Y9008D01*
X537226Y9664D01*
X538538D01*
X539194Y9008D01*
X533290Y5728D02*
Y9664D01*
X535258Y7696D01*
X532634D01*
X466502Y21001D02*
X465502Y22001D01*
Y24000D01*
X466502Y25000D01*
X470500D01*
X471500Y24000D01*
Y22001D01*
X470500Y21001D01*
X471500Y15003D02*
Y19002D01*
X467501Y15003D01*
X466502D01*
X465502Y16003D01*
Y18002D01*
X466502Y19002D01*
Y13004D02*
X465502Y12004D01*
Y10005D01*
X466502Y9005D01*
X467501D01*
X468501Y10005D01*
Y11005D01*
Y10005D01*
X469501Y9005D01*
X470500D01*
X471500Y10005D01*
Y12004D01*
X470500Y13004D01*
X579032Y29998D02*
X580031Y30998D01*
X582031D01*
X583031Y29998D01*
Y26000D01*
X582031Y25000D01*
X580031D01*
X579032Y26000D01*
X573034Y25000D02*
X577032D01*
X573034Y28999D01*
Y29998D01*
X574033Y30998D01*
X576033D01*
X577032Y29998D01*
X567036Y25000D02*
X571034D01*
X567036Y28999D01*
Y29998D01*
X568035Y30998D01*
X570035D01*
X571034Y29998D01*
X307500Y147936D02*
Y144656D01*
X306844Y144000D01*
X305532D01*
X304876Y144656D01*
Y147936D01*
X300940Y144000D02*
X303564D01*
X300940Y146624D01*
Y147280D01*
X301596Y147936D01*
X302908D01*
X303564Y147280D01*
X283376Y141280D02*
X284032Y141936D01*
X285344D01*
X286000Y141280D01*
Y138656D01*
X285344Y138000D01*
X284032D01*
X283376Y138656D01*
X279440Y138000D02*
X282064D01*
X279440Y140624D01*
Y141280D01*
X280096Y141936D01*
X281408D01*
X282064Y141280D01*
X278129Y138000D02*
X276817D01*
X277473D01*
Y141936D01*
X278129Y141280D01*
X263001Y170498D02*
X264001Y171498D01*
X266000D01*
X267000Y170498D01*
Y166500D01*
X266000Y165500D01*
X264001D01*
X263001Y166500D01*
X257003Y165500D02*
X261002D01*
X257003Y169499D01*
Y170498D01*
X258003Y171498D01*
X260002D01*
X261002Y170498D01*
X255004D02*
X254004Y171498D01*
X252005D01*
X251005Y170498D01*
Y166500D01*
X252005Y165500D01*
X254004D01*
X255004Y166500D01*
Y170498D01*
X297876Y110780D02*
X298532Y111436D01*
X299844D01*
X300500Y110780D01*
Y108156D01*
X299844Y107500D01*
X298532D01*
X297876Y108156D01*
X296564Y107500D02*
X295252D01*
X295908D01*
Y111436D01*
X296564Y110780D01*
X293285D02*
X292629Y111436D01*
X291317D01*
X290661Y110780D01*
Y110124D01*
X291317Y109468D01*
X290661Y108812D01*
Y108156D01*
X291317Y107500D01*
X292629D01*
X293285Y108156D01*
Y108812D01*
X292629Y109468D01*
X293285Y110124D01*
Y110780D01*
X292629Y109468D02*
X291317D01*
X197064Y55500D02*
X201000D01*
Y53532D01*
X200344Y52876D01*
X197720D01*
X197064Y53532D01*
Y55500D01*
X201000Y51564D02*
Y50252D01*
Y50908D01*
X197064D01*
X197720Y51564D01*
X86466Y445898D02*
X87465Y446898D01*
X89465D01*
X90464Y445898D01*
Y441900D01*
X89465Y440900D01*
X87465D01*
X86466Y441900D01*
X84466Y440900D02*
X82467D01*
X83467D01*
Y446898D01*
X84466Y445898D01*
X79468D02*
X78468Y446898D01*
X76469D01*
X75469Y445898D01*
Y441900D01*
X76469Y440900D01*
X78468D01*
X79468Y441900D01*
Y445898D01*
X73470D02*
X72470Y446898D01*
X70471D01*
X69471Y445898D01*
Y441900D01*
X70471Y440900D01*
X72470D01*
X73470Y441900D01*
Y445898D01*
X378600Y45200D02*
Y51198D01*
X375601D01*
X374601Y50198D01*
Y48199D01*
X375601Y47199D01*
X378600D01*
X376601D02*
X374601Y45200D01*
X369603D02*
Y51198D01*
X372602Y48199D01*
X368603D01*
X366604Y51198D02*
X362605D01*
Y50198D01*
X366604Y46200D01*
Y45200D01*
X362000Y17998D02*
Y12000D01*
X359001D01*
X358001Y13000D01*
Y16998D01*
X359001Y17998D01*
X362000D01*
X353003Y12000D02*
Y17998D01*
X356002Y14999D01*
X352003D01*
X329000Y194436D02*
Y191156D01*
X328344Y190500D01*
X327032D01*
X326376Y191156D01*
Y194436D01*
X325064Y191156D02*
X324408Y190500D01*
X323096D01*
X322440Y191156D01*
Y191812D01*
X323096Y192468D01*
X324408D01*
X325064Y193124D01*
Y193780D01*
X324408Y194436D01*
X323096D01*
X322440Y193780D01*
X323752Y194436D02*
Y190500D01*
X321129Y193780D02*
X320473Y194436D01*
X319161D01*
X318505Y193780D01*
Y193124D01*
X319161Y192468D01*
X319817D01*
X319161D01*
X318505Y191812D01*
Y191156D01*
X319161Y190500D01*
X320473D01*
X321129Y191156D01*
X143500Y122998D02*
Y118000D01*
X142500Y117000D01*
X140501D01*
X139501Y118000D01*
Y122998D01*
X137502Y118000D02*
X136502Y117000D01*
X134503D01*
X133503Y118000D01*
Y118999D01*
X134503Y119999D01*
X136502D01*
X137502Y120999D01*
Y121998D01*
X136502Y122998D01*
X134503D01*
X133503Y121998D01*
X135503Y122998D02*
Y117000D01*
X127505D02*
X131504D01*
X127505Y120999D01*
Y121998D01*
X128505Y122998D01*
X130504D01*
X131504Y121998D01*
X225500Y158998D02*
Y154000D01*
X224500Y153000D01*
X222501D01*
X221501Y154000D01*
Y158998D01*
X219502Y154000D02*
X218502Y153000D01*
X216503D01*
X215503Y154000D01*
Y154999D01*
X216503Y155999D01*
X218502D01*
X219502Y156999D01*
Y157998D01*
X218502Y158998D01*
X216503D01*
X215503Y157998D01*
X217503Y158998D02*
Y153000D01*
X213504D02*
X211505D01*
X212504D01*
Y158998D01*
X213504Y157998D01*
X319500Y102998D02*
X315501D01*
X317501D01*
Y97000D01*
X313502D02*
Y102998D01*
X310503D01*
X309503Y101998D01*
Y99999D01*
X310503Y98999D01*
X313502D01*
X307504Y96000D02*
X303505D01*
X301506Y102998D02*
Y98999D01*
X299506Y97000D01*
X297507Y98999D01*
Y102998D01*
X295508D02*
Y97000D01*
X291509D01*
X289510Y102998D02*
X287510D01*
X288510D01*
Y97000D01*
X289510D01*
X287510D01*
X284511D02*
Y102998D01*
X280513Y97000D01*
Y102998D01*
X278513Y97000D02*
X276514D01*
X277514D01*
Y102998D01*
X278513Y101998D01*
X169000Y118936D02*
X166376D01*
X167688D01*
Y115000D01*
X165064D02*
Y118936D01*
X163096D01*
X162440Y118280D01*
Y116968D01*
X163096Y116312D01*
X165064D01*
X161128Y114344D02*
X158505D01*
X157193Y118936D02*
X154569D01*
X155881D01*
Y115000D01*
X153257D02*
X151945D01*
X152601D01*
Y118936D01*
X153257Y118280D01*
X126000Y104936D02*
X123376D01*
X124688D01*
Y101000D01*
X122064D02*
Y104936D01*
X120096D01*
X119440Y104280D01*
Y102968D01*
X120096Y102312D01*
X122064D01*
X115505Y104936D02*
X116817Y104280D01*
X118129Y102968D01*
Y101656D01*
X117473Y101000D01*
X116161D01*
X115505Y101656D01*
Y102312D01*
X116161Y102968D01*
X118129D01*
X269500Y60936D02*
X266876D01*
X268188D01*
Y57000D01*
X263596D02*
Y60936D01*
X265564Y58968D01*
X262940D01*
X183000Y75998D02*
X179001D01*
X181001D01*
Y70000D01*
X177002Y74998D02*
X176002Y75998D01*
X174003D01*
X173003Y74998D01*
Y73999D01*
X174003Y72999D01*
X175003D01*
X174003D01*
X173003Y71999D01*
Y71000D01*
X174003Y70000D01*
X176002D01*
X177002Y71000D01*
X62001Y173998D02*
X63001Y174998D01*
X65000D01*
X66000Y173998D01*
Y172999D01*
X65000Y171999D01*
X63001D01*
X62001Y170999D01*
Y170000D01*
X63001Y169000D01*
X65000D01*
X66000Y170000D01*
X60002Y174998D02*
Y170999D01*
X58003Y169000D01*
X56003Y170999D01*
Y174998D01*
X50005D02*
X52004Y173998D01*
X54004Y171999D01*
Y170000D01*
X53004Y169000D01*
X51005D01*
X50005Y170000D01*
Y170999D01*
X51005Y171999D01*
X54004D01*
X24001Y172498D02*
X25001Y173498D01*
X27000D01*
X28000Y172498D01*
Y171499D01*
X27000Y170499D01*
X25001D01*
X24001Y169499D01*
Y168500D01*
X25001Y167500D01*
X27000D01*
X28000Y168500D01*
X22002Y173498D02*
Y169499D01*
X20003Y167500D01*
X18003Y169499D01*
Y173498D01*
X12005D02*
X16004D01*
Y170499D01*
X14005Y171499D01*
X13005D01*
X12005Y170499D01*
Y168500D01*
X13005Y167500D01*
X15004D01*
X16004Y168500D01*
X329501Y218998D02*
X330501Y219998D01*
X332500D01*
X333500Y218998D01*
Y217999D01*
X332500Y216999D01*
X330501D01*
X329501Y215999D01*
Y215000D01*
X330501Y214000D01*
X332500D01*
X333500Y215000D01*
X327502Y219998D02*
Y215999D01*
X325503Y214000D01*
X323503Y215999D01*
Y219998D01*
X317505Y214000D02*
X321504D01*
X317505Y217999D01*
Y218998D01*
X318505Y219998D01*
X320504D01*
X321504Y218998D01*
X289501D02*
X290501Y219998D01*
X292500D01*
X293500Y218998D01*
Y217999D01*
X292500Y216999D01*
X290501D01*
X289501Y215999D01*
Y215000D01*
X290501Y214000D01*
X292500D01*
X293500Y215000D01*
X287502Y219998D02*
Y215999D01*
X285503Y214000D01*
X283503Y215999D01*
Y219998D01*
X281504Y214000D02*
X279504D01*
X280504D01*
Y219998D01*
X281504Y218998D01*
X200000Y94500D02*
Y98436D01*
X198032D01*
X197376Y97780D01*
Y96468D01*
X198032Y95812D01*
X200000D01*
X198688D02*
X197376Y94500D01*
X196064Y97780D02*
X195408Y98436D01*
X194096D01*
X193440Y97780D01*
Y97124D01*
X194096Y96468D01*
X194752D01*
X194096D01*
X193440Y95812D01*
Y95156D01*
X194096Y94500D01*
X195408D01*
X196064Y95156D01*
X192129Y97780D02*
X191473Y98436D01*
X190161D01*
X189505Y97780D01*
Y95156D01*
X190161Y94500D01*
X191473D01*
X192129Y95156D01*
Y97780D01*
X199500Y110000D02*
Y113936D01*
X197532D01*
X196876Y113280D01*
Y111968D01*
X197532Y111312D01*
X199500D01*
X198188D02*
X196876Y110000D01*
X192940D02*
X195564D01*
X192940Y112624D01*
Y113280D01*
X193596Y113936D01*
X194908D01*
X195564Y113280D01*
X191629Y110656D02*
X190973Y110000D01*
X189661D01*
X189005Y110656D01*
Y113280D01*
X189661Y113936D01*
X190973D01*
X191629Y113280D01*
Y112624D01*
X190973Y111968D01*
X189005D01*
X93500Y144000D02*
Y147936D01*
X91532D01*
X90876Y147280D01*
Y145968D01*
X91532Y145312D01*
X93500D01*
X92188D02*
X90876Y144000D01*
X86940D02*
X89564D01*
X86940Y146624D01*
Y147280D01*
X87596Y147936D01*
X88908D01*
X89564Y147280D01*
X85628D02*
X84973Y147936D01*
X83661D01*
X83005Y147280D01*
Y146624D01*
X83661Y145968D01*
X83005Y145312D01*
Y144656D01*
X83661Y144000D01*
X84973D01*
X85628Y144656D01*
Y145312D01*
X84973Y145968D01*
X85628Y146624D01*
Y147280D01*
X84973Y145968D02*
X83661D01*
X150000Y170500D02*
Y174436D01*
X148032D01*
X147376Y173780D01*
Y172468D01*
X148032Y171812D01*
X150000D01*
X148688D02*
X147376Y170500D01*
X143440D02*
X146064D01*
X143440Y173124D01*
Y173780D01*
X144096Y174436D01*
X145408D01*
X146064Y173780D01*
X142129Y174436D02*
X139505D01*
Y173780D01*
X142129Y171156D01*
Y170500D01*
X96000Y116500D02*
Y120436D01*
X94032D01*
X93376Y119780D01*
Y118468D01*
X94032Y117812D01*
X96000D01*
X94688D02*
X93376Y116500D01*
X89440D02*
X92064D01*
X89440Y119124D01*
Y119780D01*
X90096Y120436D01*
X91408D01*
X92064Y119780D01*
X85505Y120436D02*
X86817Y119780D01*
X88129Y118468D01*
Y117156D01*
X87473Y116500D01*
X86161D01*
X85505Y117156D01*
Y117812D01*
X86161Y118468D01*
X88129D01*
X181500Y125900D02*
Y129836D01*
X179532D01*
X178876Y129180D01*
Y127868D01*
X179532Y127212D01*
X181500D01*
X180188D02*
X178876Y125900D01*
X174941D02*
X177564D01*
X174941Y128524D01*
Y129180D01*
X175596Y129836D01*
X176908D01*
X177564Y129180D01*
X171005Y129836D02*
X173629D01*
Y127868D01*
X172317Y128524D01*
X171661D01*
X171005Y127868D01*
Y126556D01*
X171661Y125900D01*
X172973D01*
X173629Y126556D01*
X119500Y180000D02*
Y183936D01*
X117532D01*
X116876Y183280D01*
Y181968D01*
X117532Y181312D01*
X119500D01*
X118188D02*
X116876Y180000D01*
X112940D02*
X115564D01*
X112940Y182624D01*
Y183280D01*
X113596Y183936D01*
X114908D01*
X115564Y183280D01*
X109661Y180000D02*
Y183936D01*
X111628Y181968D01*
X109005D01*
X67001Y68498D02*
X68001Y69498D01*
X70000D01*
X71000Y68498D01*
Y64500D01*
X70000Y63500D01*
X68001D01*
X67001Y64500D01*
X62003Y69498D02*
X64002D01*
X65002Y68498D01*
Y64500D01*
X64002Y63500D01*
X62003D01*
X61003Y64500D01*
Y68498D01*
X62003Y69498D01*
X59004Y63500D02*
Y69498D01*
X55005Y63500D01*
Y69498D01*
X53006Y62500D02*
X49007D01*
X47008Y69498D02*
Y63500D01*
X43009D01*
X41010Y69498D02*
X39010D01*
X40010D01*
Y63500D01*
X41010D01*
X39010D01*
X36011D02*
Y69498D01*
X32013Y63500D01*
Y69498D01*
X30013Y62500D02*
X26015D01*
X21016Y69498D02*
X23016D01*
X24015Y68498D01*
Y64500D01*
X23016Y63500D01*
X21016D01*
X20017Y64500D01*
Y68498D01*
X21016Y69498D01*
X18017D02*
Y64500D01*
X17018Y63500D01*
X15018D01*
X14018Y64500D01*
Y69498D01*
X12019D02*
X8020D01*
X10020D01*
Y63500D01*
X6021D02*
X4022D01*
X5021D01*
Y69498D01*
X6021Y68498D01*
X560702Y185997D02*
X561702Y186997D01*
X563701D01*
X564701Y185997D01*
Y181999D01*
X563701Y180999D01*
X561702D01*
X560702Y181999D01*
X555704Y186997D02*
X557703D01*
X558703Y185997D01*
Y181999D01*
X557703Y180999D01*
X555704D01*
X554704Y181999D01*
Y185997D01*
X555704Y186997D01*
X552705Y180999D02*
Y186997D01*
X548706Y180999D01*
Y186997D01*
X546707Y179999D02*
X542708D01*
X540709Y186997D02*
Y180999D01*
X536710D01*
X534711Y186997D02*
X532711D01*
X533711D01*
Y180999D01*
X534711D01*
X532711D01*
X529712D02*
Y186997D01*
X525714Y180999D01*
Y186997D01*
X523714Y179999D02*
X519715D01*
X517716Y186997D02*
X515717D01*
X516716D01*
Y180999D01*
X517716D01*
X515717D01*
X512718D02*
Y186997D01*
X508719Y180999D01*
Y186997D01*
X506720Y180999D02*
X504720D01*
X505720D01*
Y186997D01*
X506720Y185997D01*
X207000Y23498D02*
X203001D01*
X205001D01*
Y17500D01*
X201002D02*
X199003D01*
X200002D01*
Y23498D01*
X201002Y22498D01*
X159000Y22998D02*
X155001D01*
X157001D01*
Y17000D01*
X149003D02*
X153002D01*
X149003Y20999D01*
Y21998D01*
X150003Y22998D01*
X152002D01*
X153002Y21998D01*
X190001Y467498D02*
X191001Y468498D01*
X193000D01*
X194000Y467498D01*
Y466499D01*
X193000Y465499D01*
X191001D01*
X190001Y464499D01*
Y463500D01*
X191001Y462500D01*
X193000D01*
X194000Y463500D01*
X188002Y468498D02*
Y464499D01*
X186003Y462500D01*
X184003Y464499D01*
Y468498D01*
X179005Y462500D02*
Y468498D01*
X182004Y465499D01*
X178005D01*
X145001Y468998D02*
X146001Y469998D01*
X148000D01*
X149000Y468998D01*
Y467999D01*
X148000Y466999D01*
X146001D01*
X145001Y465999D01*
Y465000D01*
X146001Y464000D01*
X148000D01*
X149000Y465000D01*
X143002Y469998D02*
Y465999D01*
X141003Y464000D01*
X139003Y465999D01*
Y469998D01*
X137004Y468998D02*
X136004Y469998D01*
X134005D01*
X133005Y468998D01*
Y467999D01*
X134005Y466999D01*
X135004D01*
X134005D01*
X133005Y465999D01*
Y465000D01*
X134005Y464000D01*
X136004D01*
X137004Y465000D01*
X37942Y212778D02*
X38942Y213777D01*
X40941D01*
X41941Y212778D01*
Y211778D01*
X40941Y210778D01*
X38942D01*
X37942Y209779D01*
Y208779D01*
X38942Y207779D01*
X40941D01*
X41941Y208779D01*
X35943Y207779D02*
X33944D01*
X34943D01*
Y213777D01*
X35943Y212778D01*
X213020Y326498D02*
Y320500D01*
X210021D01*
X209021Y321500D01*
Y322499D01*
X210021Y323499D01*
X213020D01*
X210021D01*
X209021Y324499D01*
Y325498D01*
X210021Y326498D01*
X213020D01*
X207022Y320500D02*
Y324499D01*
X205022Y326498D01*
X203023Y324499D01*
Y320500D01*
Y323499D01*
X207022D01*
X201024Y326498D02*
X197025D01*
X199024D01*
Y320500D01*
X191027Y326498D02*
X195026D01*
Y320500D01*
X191027D01*
X195026Y323499D02*
X193026D01*
X189028Y320500D02*
Y326498D01*
X186029D01*
X185029Y325498D01*
Y323499D01*
X186029Y322499D01*
X189028D01*
X187028D02*
X185029Y320500D01*
X183029Y326498D02*
Y325498D01*
X181030Y323499D01*
X179031Y325498D01*
Y326498D01*
X181030Y323499D02*
Y320500D01*
X177031D02*
X175032D01*
X176032D01*
Y326498D01*
X177031Y325498D01*
X118001Y347000D02*
Y350998D01*
X119001Y351998D01*
X121000D01*
X122000Y350998D01*
Y347000D01*
X121000Y346000D01*
X119001D01*
X120001Y347999D02*
X118001Y346000D01*
X119001D02*
X118001Y347000D01*
X112003Y346000D02*
X116002D01*
X112003Y349999D01*
Y350998D01*
X113003Y351998D01*
X115002D01*
X116002Y350998D01*
X165001Y341000D02*
Y344998D01*
X166001Y345998D01*
X168000D01*
X169000Y344998D01*
Y341000D01*
X168000Y340000D01*
X166001D01*
X167001Y341999D02*
X165001Y340000D01*
X166001D02*
X165001Y341000D01*
X163002Y340000D02*
X161003D01*
X162002D01*
Y345998D01*
X163002Y344998D01*
X43500Y479998D02*
Y475000D01*
X42500Y474000D01*
X40501D01*
X39501Y475000D01*
Y479998D01*
X37502Y475000D02*
X36502Y474000D01*
X34503D01*
X33503Y475000D01*
Y475999D01*
X34503Y476999D01*
X36502D01*
X37502Y477999D01*
Y478998D01*
X36502Y479998D01*
X34503D01*
X33503Y478998D01*
X35503Y479998D02*
Y474000D01*
X28505D02*
Y479998D01*
X31504Y476999D01*
X27505D01*
X48500Y312498D02*
X44501Y306500D01*
Y312498D02*
X48500Y306500D01*
X38503D02*
X42502D01*
X38503Y310499D01*
Y311498D01*
X39503Y312498D01*
X41502D01*
X42502Y311498D01*
X11500Y468498D02*
X7501Y462500D01*
Y468498D02*
X11500Y462500D01*
X5502D02*
X3503D01*
X4502D01*
Y468498D01*
X5502Y467498D01*
X93500Y137936D02*
X90876D01*
X92188D01*
Y134000D01*
X89564D02*
Y137936D01*
X87596D01*
X86940Y137280D01*
Y135968D01*
X87596Y135312D01*
X89564D01*
X85628Y134000D02*
X84317D01*
X84973D01*
Y137936D01*
X85628Y137280D01*
X82349D02*
X81693Y137936D01*
X80381D01*
X79725Y137280D01*
Y136624D01*
X80381Y135968D01*
X79725Y135312D01*
Y134656D01*
X80381Y134000D01*
X81693D01*
X82349Y134656D01*
Y135312D01*
X81693Y135968D01*
X82349Y136624D01*
Y137280D01*
X81693Y135968D02*
X80381D01*
X313247Y194936D02*
X310623D01*
X311935D01*
Y191000D01*
X309312D02*
Y194936D01*
X307344D01*
X306688Y194280D01*
Y192968D01*
X307344Y192312D01*
X309312D01*
X305376Y191000D02*
X304064D01*
X304720D01*
Y194936D01*
X305376Y194280D01*
X302096Y194936D02*
X299472D01*
Y194280D01*
X302096Y191656D01*
Y191000D01*
X109500Y175436D02*
X106876D01*
X108188D01*
Y171500D01*
X105564D02*
Y175436D01*
X103596D01*
X102940Y174780D01*
Y173468D01*
X103596Y172812D01*
X105564D01*
X101628Y171500D02*
X100317D01*
X100973D01*
Y175436D01*
X101628Y174780D01*
X95725Y175436D02*
X97037Y174780D01*
X98349Y173468D01*
Y172156D01*
X97693Y171500D01*
X96381D01*
X95725Y172156D01*
Y172812D01*
X96381Y173468D01*
X98349D01*
X212500Y69936D02*
X209876D01*
X211188D01*
Y66000D01*
X208564D02*
Y69936D01*
X206596D01*
X205940Y69280D01*
Y67968D01*
X206596Y67312D01*
X208564D01*
X204628Y66000D02*
X203317D01*
X203973D01*
Y69936D01*
X204628Y69280D01*
X198725Y69936D02*
X201349D01*
Y67968D01*
X200037Y68624D01*
X199381D01*
X198725Y67968D01*
Y66656D01*
X199381Y66000D01*
X200693D01*
X201349Y66656D01*
X88000Y106436D02*
X85376D01*
X86688D01*
Y102500D01*
X84064D02*
Y106436D01*
X82096D01*
X81440Y105780D01*
Y104468D01*
X82096Y103812D01*
X84064D01*
X80129Y102500D02*
X78817D01*
X79473D01*
Y106436D01*
X80129Y105780D01*
X74881Y102500D02*
Y106436D01*
X76849Y104468D01*
X74225D01*
X227500Y76936D02*
X224876D01*
X226188D01*
Y73000D01*
X223564D02*
Y76936D01*
X221596D01*
X220940Y76280D01*
Y74968D01*
X221596Y74312D01*
X223564D01*
X219629Y73000D02*
X218317D01*
X218973D01*
Y76936D01*
X219629Y76280D01*
X216349D02*
X215693Y76936D01*
X214381D01*
X213725Y76280D01*
Y75624D01*
X214381Y74968D01*
X215037D01*
X214381D01*
X213725Y74312D01*
Y73656D01*
X214381Y73000D01*
X215693D01*
X216349Y73656D01*
X158500Y49936D02*
X155876D01*
X157188D01*
Y46000D01*
X154564D02*
Y49936D01*
X152596D01*
X151940Y49280D01*
Y47968D01*
X152596Y47312D01*
X154564D01*
X150628Y46000D02*
X149317D01*
X149973D01*
Y49936D01*
X150628Y49280D01*
X144725Y46000D02*
X147349D01*
X144725Y48624D01*
Y49280D01*
X145381Y49936D01*
X146693D01*
X147349Y49280D01*
X212500Y39436D02*
X209876D01*
X211188D01*
Y35500D01*
X208564D02*
Y39436D01*
X206596D01*
X205940Y38780D01*
Y37468D01*
X206596Y36812D01*
X208564D01*
X204628Y35500D02*
X203317D01*
X203973D01*
Y39436D01*
X204628Y38780D01*
X201349Y35500D02*
X200037D01*
X200693D01*
Y39436D01*
X201349Y38780D01*
X239500Y106436D02*
X236876D01*
X238188D01*
Y102500D01*
X235564D02*
Y106436D01*
X233596D01*
X232940Y105780D01*
Y104468D01*
X233596Y103812D01*
X235564D01*
X231628Y102500D02*
X230317D01*
X230973D01*
Y106436D01*
X231628Y105780D01*
X228349D02*
X227693Y106436D01*
X226381D01*
X225725Y105780D01*
Y103156D01*
X226381Y102500D01*
X227693D01*
X228349Y103156D01*
Y105780D01*
X307000Y84936D02*
X304376D01*
X305688D01*
Y81000D01*
X303064D02*
Y84936D01*
X301096D01*
X300440Y84280D01*
Y82968D01*
X301096Y82312D01*
X303064D01*
X299129Y81656D02*
X298473Y81000D01*
X297161D01*
X296505Y81656D01*
Y84280D01*
X297161Y84936D01*
X298473D01*
X299129Y84280D01*
Y83624D01*
X298473Y82968D01*
X296505D01*
X193500Y149936D02*
X190876D01*
X192188D01*
Y146000D01*
X189564D02*
Y149936D01*
X187596D01*
X186940Y149280D01*
Y147968D01*
X187596Y147312D01*
X189564D01*
X185628Y149280D02*
X184973Y149936D01*
X183661D01*
X183005Y149280D01*
Y148624D01*
X183661Y147968D01*
X183005Y147312D01*
Y146656D01*
X183661Y146000D01*
X184973D01*
X185628Y146656D01*
Y147312D01*
X184973Y147968D01*
X185628Y148624D01*
Y149280D01*
X184973Y147968D02*
X183661D01*
X230500Y22436D02*
X227876D01*
X229188D01*
Y18500D01*
X226564D02*
Y22436D01*
X224596D01*
X223940Y21780D01*
Y20468D01*
X224596Y19812D01*
X226564D01*
X222628Y22436D02*
X220005D01*
Y21780D01*
X222628Y19156D01*
Y18500D01*
X108000Y138936D02*
X105376D01*
X106688D01*
Y135000D01*
X104064D02*
Y138936D01*
X102096D01*
X101440Y138280D01*
Y136968D01*
X102096Y136312D01*
X104064D01*
X97505Y138936D02*
X100128D01*
Y136968D01*
X98817Y137624D01*
X98161D01*
X97505Y136968D01*
Y135656D01*
X98161Y135000D01*
X99473D01*
X100128Y135656D01*
X239500Y164436D02*
X236876D01*
X238188D01*
Y160500D01*
X235564D02*
Y164436D01*
X233596D01*
X232940Y163780D01*
Y162468D01*
X233596Y161812D01*
X235564D01*
X229661Y160500D02*
Y164436D01*
X231628Y162468D01*
X229005D01*
X54000Y75436D02*
X51376D01*
X52688D01*
Y71500D01*
X50064D02*
Y75436D01*
X48096D01*
X47440Y74780D01*
Y73468D01*
X48096Y72812D01*
X50064D01*
X46128Y74780D02*
X45473Y75436D01*
X44161D01*
X43505Y74780D01*
Y74124D01*
X44161Y73468D01*
X44817D01*
X44161D01*
X43505Y72812D01*
Y72156D01*
X44161Y71500D01*
X45473D01*
X46128Y72156D01*
X142000Y26436D02*
X139376D01*
X140688D01*
Y22500D01*
X138064D02*
Y26436D01*
X136096D01*
X135440Y25780D01*
Y24468D01*
X136096Y23812D01*
X138064D01*
X131505Y22500D02*
X134128D01*
X131505Y25124D01*
Y25780D01*
X132161Y26436D01*
X133473D01*
X134128Y25780D01*
X151000Y78998D02*
X147001D01*
X149001D01*
Y73000D01*
X145002D02*
Y78998D01*
X142003D01*
X141003Y77998D01*
Y75999D01*
X142003Y74999D01*
X145002D01*
X139004Y73000D02*
X137004D01*
X138004D01*
Y78998D01*
X139004Y77998D01*
X72000Y449000D02*
Y454998D01*
X69001D01*
X68001Y453998D01*
Y451999D01*
X69001Y450999D01*
X72000D01*
X70001D02*
X68001Y449000D01*
X66002Y453998D02*
X65002Y454998D01*
X63003D01*
X62003Y453998D01*
Y452999D01*
X63003Y451999D01*
X64003D01*
X63003D01*
X62003Y450999D01*
Y450000D01*
X63003Y449000D01*
X65002D01*
X66002Y450000D01*
X57005Y449000D02*
Y454998D01*
X60004Y451999D01*
X56005D01*
X36500Y462500D02*
Y468498D01*
X33501D01*
X32501Y467498D01*
Y465499D01*
X33501Y464499D01*
X36500D01*
X34501D02*
X32501Y462500D01*
X30502Y467498D02*
X29502Y468498D01*
X27503D01*
X26503Y467498D01*
Y466499D01*
X27503Y465499D01*
X28503D01*
X27503D01*
X26503Y464499D01*
Y463500D01*
X27503Y462500D01*
X29502D01*
X30502Y463500D01*
X20505Y462500D02*
X24504D01*
X20505Y466499D01*
Y467498D01*
X21505Y468498D01*
X23504D01*
X24504Y467498D01*
X76276Y464500D02*
Y470498D01*
X73277D01*
X72277Y469498D01*
Y467499D01*
X73277Y466499D01*
X76276D01*
X74277D02*
X72277Y464500D01*
X67279D02*
Y470498D01*
X70278Y467499D01*
X66279D01*
X64280Y469498D02*
X63280Y470498D01*
X61281D01*
X60281Y469498D01*
Y465500D01*
X61281Y464500D01*
X63280D01*
X64280Y465500D01*
Y469498D01*
X64029Y401500D02*
X58031D01*
Y398501D01*
X59031Y397501D01*
X61030D01*
X62030Y398501D01*
Y401500D01*
Y399501D02*
X64029Y397501D01*
X59031Y395502D02*
X58031Y394502D01*
Y392503D01*
X59031Y391503D01*
X60031D01*
X61030Y392503D01*
Y393503D01*
Y392503D01*
X62030Y391503D01*
X63030D01*
X64029Y392503D01*
Y394502D01*
X63030Y395502D01*
X59031Y389504D02*
X58031Y388504D01*
Y386505D01*
X59031Y385505D01*
X60031D01*
X61030Y386505D01*
X62030Y385505D01*
X63030D01*
X64029Y386505D01*
Y388504D01*
X63030Y389504D01*
X62030D01*
X61030Y388504D01*
X60031Y389504D01*
X59031D01*
X61030Y388504D02*
Y386505D01*
X68500Y216500D02*
Y222498D01*
X65501D01*
X64501Y221498D01*
Y219499D01*
X65501Y218499D01*
X68500D01*
X66501D02*
X64501Y216500D01*
X59503D02*
Y222498D01*
X62502Y219499D01*
X58503D01*
X52505Y216500D02*
X56504D01*
X52505Y220499D01*
Y221498D01*
X53505Y222498D01*
X55504D01*
X56504Y221498D01*
X65000Y419000D02*
X59002D01*
Y416001D01*
X60002Y415001D01*
X62001D01*
X63001Y416001D01*
Y419000D01*
Y417001D02*
X65000Y415001D01*
Y410003D02*
X59002D01*
X62001Y413002D01*
Y409003D01*
X65000Y407004D02*
Y405005D01*
Y406004D01*
X59002D01*
X60002Y407004D01*
X47000Y349000D02*
X41002D01*
Y346001D01*
X42002Y345001D01*
X44001D01*
X45001Y346001D01*
Y349000D01*
Y347001D02*
X47000Y345001D01*
Y340003D02*
X41002D01*
X44001Y343002D01*
Y339003D01*
X47000Y334005D02*
X41002D01*
X44001Y337004D01*
Y333005D01*
X65790Y365333D02*
X59791D01*
Y362334D01*
X60791Y361334D01*
X62791D01*
X63790Y362334D01*
Y365333D01*
Y363333D02*
X65790Y361334D01*
Y356336D02*
X59791D01*
X62791Y359335D01*
Y355336D01*
X60791Y353337D02*
X59791Y352337D01*
Y350338D01*
X60791Y349338D01*
X61791D01*
X62791Y350338D01*
Y351337D01*
Y350338D01*
X63790Y349338D01*
X64790D01*
X65790Y350338D01*
Y352337D01*
X64790Y353337D01*
X54451Y373029D02*
Y379027D01*
X51452D01*
X50453Y378028D01*
Y376028D01*
X51452Y375029D01*
X54451D01*
X52452D02*
X50453Y373029D01*
X48453Y378028D02*
X47454Y379027D01*
X45454D01*
X44455Y378028D01*
Y377028D01*
X45454Y376028D01*
X46454D01*
X45454D01*
X44455Y375029D01*
Y374029D01*
X45454Y373029D01*
X47454D01*
X48453Y374029D01*
X42455D02*
X41456Y373029D01*
X39456D01*
X38457Y374029D01*
Y378028D01*
X39456Y379027D01*
X41456D01*
X42455Y378028D01*
Y377028D01*
X41456Y376028D01*
X38457D01*
X56000Y395000D02*
Y400998D01*
X53001D01*
X52001Y399998D01*
Y397999D01*
X53001Y396999D01*
X56000D01*
X54001D02*
X52001Y395000D01*
X50002Y399998D02*
X49002Y400998D01*
X47003D01*
X46003Y399998D01*
Y398999D01*
X47003Y397999D01*
X48003D01*
X47003D01*
X46003Y396999D01*
Y396000D01*
X47003Y395000D01*
X49002D01*
X50002Y396000D01*
X40005Y400998D02*
X42004Y399998D01*
X44004Y397999D01*
Y396000D01*
X43004Y395000D01*
X41005D01*
X40005Y396000D01*
Y396999D01*
X41005Y397999D01*
X44004D01*
X55000Y417500D02*
Y423498D01*
X52001D01*
X51001Y422498D01*
Y420499D01*
X52001Y419499D01*
X55000D01*
X53001D02*
X51001Y417500D01*
X49002Y422498D02*
X48002Y423498D01*
X46003D01*
X45003Y422498D01*
Y421499D01*
X46003Y420499D01*
X47003D01*
X46003D01*
X45003Y419499D01*
Y418500D01*
X46003Y417500D01*
X48002D01*
X49002Y418500D01*
X39005Y423498D02*
X43004D01*
Y420499D01*
X41004Y421499D01*
X40005D01*
X39005Y420499D01*
Y418500D01*
X40005Y417500D01*
X42004D01*
X43004Y418500D01*
X65000Y440500D02*
X59002D01*
Y437501D01*
X60002Y436501D01*
X62001D01*
X63001Y437501D01*
Y440500D01*
Y438501D02*
X65000Y436501D01*
X60002Y434502D02*
X59002Y433502D01*
Y431503D01*
X60002Y430503D01*
X61001D01*
X62001Y431503D01*
Y432503D01*
Y431503D01*
X63001Y430503D01*
X64000D01*
X65000Y431503D01*
Y433502D01*
X64000Y434502D01*
X60002Y428504D02*
X59002Y427504D01*
Y425505D01*
X60002Y424505D01*
X61001D01*
X62001Y425505D01*
Y426505D01*
Y425505D01*
X63001Y424505D01*
X64000D01*
X65000Y425505D01*
Y427504D01*
X64000Y428504D01*
X162000Y323500D02*
Y329498D01*
X159001D01*
X158001Y328498D01*
Y326499D01*
X159001Y325499D01*
X162000D01*
X160001D02*
X158001Y323500D01*
X156002Y328498D02*
X155002Y329498D01*
X153003D01*
X152003Y328498D01*
Y327499D01*
X153003Y326499D01*
X154003D01*
X153003D01*
X152003Y325499D01*
Y324500D01*
X153003Y323500D01*
X155002D01*
X156002Y324500D01*
X150004Y323500D02*
X148004D01*
X149004D01*
Y329498D01*
X150004Y328498D01*
X206000Y378500D02*
Y384498D01*
X203001D01*
X202001Y383498D01*
Y381499D01*
X203001Y380499D01*
X206000D01*
X204001D02*
X202001Y378500D01*
X200002Y383498D02*
X199002Y384498D01*
X197003D01*
X196003Y383498D01*
Y382499D01*
X197003Y381499D01*
X198003D01*
X197003D01*
X196003Y380499D01*
Y379500D01*
X197003Y378500D01*
X199002D01*
X200002Y379500D01*
X194004Y384498D02*
X190005D01*
Y383498D01*
X194004Y379500D01*
Y378500D01*
X237000Y64500D02*
Y68436D01*
X235032D01*
X234376Y67780D01*
Y66468D01*
X235032Y65812D01*
X237000D01*
X235688D02*
X234376Y64500D01*
X230440D02*
X233064D01*
X230440Y67124D01*
Y67780D01*
X231096Y68436D01*
X232408D01*
X233064Y67780D01*
X229129D02*
X228473Y68436D01*
X227161D01*
X226505Y67780D01*
Y67124D01*
X227161Y66468D01*
X227817D01*
X227161D01*
X226505Y65812D01*
Y65156D01*
X227161Y64500D01*
X228473D01*
X229129Y65156D01*
X91500Y156000D02*
X95436D01*
Y157968D01*
X94780Y158624D01*
X93468D01*
X92812Y157968D01*
Y156000D01*
Y157312D02*
X91500Y158624D01*
Y162560D02*
Y159936D01*
X94124Y162560D01*
X94780D01*
X95436Y161904D01*
Y160592D01*
X94780Y159936D01*
X91500Y166495D02*
Y163872D01*
X94124Y166495D01*
X94780D01*
X95436Y165839D01*
Y164527D01*
X94780Y163872D01*
X21500Y77500D02*
Y81436D01*
X19532D01*
X18876Y80780D01*
Y79468D01*
X19532Y78812D01*
X21500D01*
X20188D02*
X18876Y77500D01*
X14940D02*
X17564D01*
X14940Y80124D01*
Y80780D01*
X15596Y81436D01*
X16908D01*
X17564Y80780D01*
X13629Y77500D02*
X12317D01*
X12973D01*
Y81436D01*
X13629Y80780D01*
X22300Y102800D02*
Y106736D01*
X20332D01*
X19676Y106080D01*
Y104768D01*
X20332Y104112D01*
X22300D01*
X20988D02*
X19676Y102800D01*
X15740D02*
X18364D01*
X15740Y105424D01*
Y106080D01*
X16396Y106736D01*
X17708D01*
X18364Y106080D01*
X14428D02*
X13773Y106736D01*
X12461D01*
X11805Y106080D01*
Y103456D01*
X12461Y102800D01*
X13773D01*
X14428Y103456D01*
Y106080D01*
X235000Y97000D02*
X231064D01*
Y95032D01*
X231720Y94376D01*
X233032D01*
X233688Y95032D01*
Y97000D01*
Y95688D02*
X235000Y94376D01*
Y93064D02*
Y91752D01*
Y92408D01*
X231064D01*
X231720Y93064D01*
X234344Y89784D02*
X235000Y89129D01*
Y87817D01*
X234344Y87161D01*
X231720D01*
X231064Y87817D01*
Y89129D01*
X231720Y89784D01*
X232376D01*
X233032Y89129D01*
Y87161D01*
X308900Y59000D02*
Y62936D01*
X306932D01*
X306276Y62280D01*
Y60968D01*
X306932Y60312D01*
X308900D01*
X307588D02*
X306276Y59000D01*
X304964D02*
X303652D01*
X304308D01*
Y62936D01*
X304964Y62280D01*
X301684D02*
X301028Y62936D01*
X299717D01*
X299061Y62280D01*
Y61624D01*
X299717Y60968D01*
X299061Y60312D01*
Y59656D01*
X299717Y59000D01*
X301028D01*
X301684Y59656D01*
Y60312D01*
X301028Y60968D01*
X301684Y61624D01*
Y62280D01*
X301028Y60968D02*
X299717D01*
X324000Y41500D02*
Y45436D01*
X322032D01*
X321376Y44780D01*
Y43468D01*
X322032Y42812D01*
X324000D01*
X322688D02*
X321376Y41500D01*
X320064D02*
X318752D01*
X319408D01*
Y45436D01*
X320064Y44780D01*
X316785Y45436D02*
X314161D01*
Y44780D01*
X316785Y42156D01*
Y41500D01*
X235000Y37500D02*
Y41436D01*
X233032D01*
X232376Y40780D01*
Y39468D01*
X233032Y38812D01*
X235000D01*
X233688D02*
X232376Y37500D01*
X231064D02*
X229752D01*
X230408D01*
Y41436D01*
X231064Y40780D01*
X225161Y41436D02*
X226473Y40780D01*
X227784Y39468D01*
Y38156D01*
X227129Y37500D01*
X225817D01*
X225161Y38156D01*
Y38812D01*
X225817Y39468D01*
X227784D01*
X170000Y44000D02*
X173936D01*
Y45968D01*
X173280Y46624D01*
X171968D01*
X171312Y45968D01*
Y44000D01*
Y45312D02*
X170000Y46624D01*
Y47936D02*
Y49248D01*
Y48592D01*
X173936D01*
X173280Y47936D01*
X173936Y53839D02*
Y51215D01*
X171968D01*
X172624Y52527D01*
Y53183D01*
X171968Y53839D01*
X170656D01*
X170000Y53183D01*
Y51872D01*
X170656Y51215D01*
X180000Y44000D02*
X183936D01*
Y45968D01*
X183280Y46624D01*
X181968D01*
X181312Y45968D01*
Y44000D01*
Y45312D02*
X180000Y46624D01*
Y47936D02*
Y49248D01*
Y48592D01*
X183936D01*
X183280Y47936D01*
X180000Y53183D02*
X183936D01*
X181968Y51215D01*
Y53839D01*
X267500Y85500D02*
X271436D01*
Y87468D01*
X270780Y88124D01*
X269468D01*
X268812Y87468D01*
Y85500D01*
Y86812D02*
X267500Y88124D01*
Y89436D02*
Y90748D01*
Y90092D01*
X271436D01*
X270780Y89436D01*
Y92716D02*
X271436Y93371D01*
Y94683D01*
X270780Y95339D01*
X270124D01*
X269468Y94683D01*
Y94027D01*
Y94683D01*
X268812Y95339D01*
X268156D01*
X267500Y94683D01*
Y93371D01*
X268156Y92716D01*
X41000Y78000D02*
Y81936D01*
X39032D01*
X38376Y81280D01*
Y79968D01*
X39032Y79312D01*
X41000D01*
X39688D02*
X38376Y78000D01*
X37064D02*
X35752D01*
X36408D01*
Y81936D01*
X37064Y81280D01*
X31161Y78000D02*
X33784D01*
X31161Y80624D01*
Y81280D01*
X31817Y81936D01*
X33128D01*
X33784Y81280D01*
X40500Y102500D02*
Y106436D01*
X38532D01*
X37876Y105780D01*
Y104468D01*
X38532Y103812D01*
X40500D01*
X39188D02*
X37876Y102500D01*
X36564D02*
X35252D01*
X35908D01*
Y106436D01*
X36564Y105780D01*
X33285Y102500D02*
X31973D01*
X32629D01*
Y106436D01*
X33285Y105780D01*
X49500Y98231D02*
X45564D01*
Y96263D01*
X46220Y95608D01*
X47532D01*
X48188Y96263D01*
Y98231D01*
Y96919D02*
X49500Y95608D01*
Y94296D02*
Y92984D01*
Y93640D01*
X45564D01*
X46220Y94296D01*
Y91016D02*
X45564Y90360D01*
Y89048D01*
X46220Y88392D01*
X48844D01*
X49500Y89048D01*
Y90360D01*
X48844Y91016D01*
X46220D01*
X241000Y103000D02*
X244936D01*
Y104968D01*
X244280Y105624D01*
X242968D01*
X242312Y104968D01*
Y103000D01*
Y104312D02*
X241000Y105624D01*
X241656Y106936D02*
X241000Y107592D01*
Y108904D01*
X241656Y109560D01*
X244280D01*
X244936Y108904D01*
Y107592D01*
X244280Y106936D01*
X243624D01*
X242968Y107592D01*
Y109560D01*
X336250Y74713D02*
Y78649D01*
X334282D01*
X333627Y77993D01*
Y76681D01*
X334282Y76025D01*
X336250D01*
X334939D02*
X333627Y74713D01*
X332315Y77993D02*
X331659Y78649D01*
X330347D01*
X329691Y77993D01*
Y77337D01*
X330347Y76681D01*
X329691Y76025D01*
Y75369D01*
X330347Y74713D01*
X331659D01*
X332315Y75369D01*
Y76025D01*
X331659Y76681D01*
X332315Y77337D01*
Y77993D01*
X331659Y76681D02*
X330347D01*
X336000Y86500D02*
Y90436D01*
X334032D01*
X333376Y89780D01*
Y88468D01*
X334032Y87812D01*
X336000D01*
X334688D02*
X333376Y86500D01*
X332064Y90436D02*
X329440D01*
Y89780D01*
X332064Y87156D01*
Y86500D01*
X149000Y38500D02*
X143002D01*
Y35501D01*
X144002Y34501D01*
X146001D01*
X147001Y35501D01*
Y38500D01*
Y36501D02*
X149000Y34501D01*
X143002Y28503D02*
X144002Y30503D01*
X146001Y32502D01*
X148000D01*
X149000Y31502D01*
Y29503D01*
X148000Y28503D01*
X147001D01*
X146001Y29503D01*
Y32502D01*
X100500Y103500D02*
Y107436D01*
X98532D01*
X97876Y106780D01*
Y105468D01*
X98532Y104812D01*
X100500D01*
X99188D02*
X97876Y103500D01*
X93940Y107436D02*
X96564D01*
Y105468D01*
X95252Y106124D01*
X94596D01*
X93940Y105468D01*
Y104156D01*
X94596Y103500D01*
X95908D01*
X96564Y104156D01*
X71000Y86500D02*
X74936D01*
Y88468D01*
X74280Y89124D01*
X72968D01*
X72312Y88468D01*
Y86500D01*
Y87812D02*
X71000Y89124D01*
Y92404D02*
X74936D01*
X72968Y90436D01*
Y93060D01*
X79500Y98500D02*
X75564D01*
Y96532D01*
X76220Y95876D01*
X77532D01*
X78188Y96532D01*
Y98500D01*
Y97188D02*
X79500Y95876D01*
X76220Y94564D02*
X75564Y93908D01*
Y92596D01*
X76220Y91940D01*
X76876D01*
X77532Y92596D01*
Y93252D01*
Y92596D01*
X78188Y91940D01*
X78844D01*
X79500Y92596D01*
Y93908D01*
X78844Y94564D01*
X55500Y19000D02*
Y22936D01*
X53532D01*
X52876Y22280D01*
Y20968D01*
X53532Y20312D01*
X55500D01*
X54188D02*
X52876Y19000D01*
X48940D02*
X51564D01*
X48940Y21624D01*
Y22280D01*
X49596Y22936D01*
X50908D01*
X51564Y22280D01*
X98000Y74500D02*
Y78436D01*
X96032D01*
X95376Y77780D01*
Y76468D01*
X96032Y75812D01*
X98000D01*
X96688D02*
X95376Y74500D01*
X94064D02*
X92752D01*
X93408D01*
Y78436D01*
X94064Y77780D01*
X37502Y185001D02*
Y187001D01*
Y186001D01*
X42500D01*
X43500Y187001D01*
Y188000D01*
X42500Y189000D01*
X43500Y183002D02*
X37502D01*
Y180003D01*
X38502Y179003D01*
X40501D01*
X41501Y180003D01*
Y183002D01*
X38502Y177004D02*
X37502Y176004D01*
Y174005D01*
X38502Y173005D01*
X39501D01*
X40501Y174005D01*
Y175004D01*
Y174005D01*
X41501Y173005D01*
X42500D01*
X43500Y174005D01*
Y176004D01*
X42500Y177004D01*
X180998Y91499D02*
Y89499D01*
Y90499D01*
X176000D01*
X175000Y89499D01*
Y88500D01*
X176000Y87500D01*
X175000Y93498D02*
X180998D01*
Y96497D01*
X179998Y97497D01*
X177999D01*
X176999Y96497D01*
Y93498D01*
X175000Y103495D02*
Y99496D01*
X178999Y103495D01*
X179998D01*
X180998Y102495D01*
Y100496D01*
X179998Y99496D01*
X286501Y193498D02*
X288501D01*
X287501D01*
Y188500D01*
X288501Y187500D01*
X289500D01*
X290500Y188500D01*
X284502Y187500D02*
Y193498D01*
X281503D01*
X280503Y192498D01*
Y190499D01*
X281503Y189499D01*
X284502D01*
X278504Y187500D02*
X276504D01*
X277504D01*
Y193498D01*
X278504Y192498D01*
X63501Y203498D02*
X64501Y204498D01*
X66500D01*
X67500Y203498D01*
Y199500D01*
X66500Y198500D01*
X64501D01*
X63501Y199500D01*
X61502Y198500D02*
X59503D01*
X60502D01*
Y204498D01*
X61502Y203498D01*
X56504Y204498D02*
X52505D01*
Y203498D01*
X56504Y199500D01*
Y198500D01*
X194001Y346498D02*
X195001Y347498D01*
X197000D01*
X198000Y346498D01*
Y342500D01*
X197000Y341500D01*
X195001D01*
X194001Y342500D01*
X192002Y341500D02*
X190003D01*
X191002D01*
Y347498D01*
X192002Y346498D01*
X187004D02*
X186004Y347498D01*
X184004D01*
X183005Y346498D01*
Y342500D01*
X184004Y341500D01*
X186004D01*
X187004Y342500D01*
Y346498D01*
X190501Y361498D02*
X191501Y362498D01*
X193500D01*
X194500Y361498D01*
Y357500D01*
X193500Y356500D01*
X191501D01*
X190501Y357500D01*
X188502D02*
X187502Y356500D01*
X185503D01*
X184503Y357500D01*
Y361498D01*
X185503Y362498D01*
X187502D01*
X188502Y361498D01*
Y360499D01*
X187502Y359499D01*
X184503D01*
X156998Y349999D02*
X157998Y348999D01*
Y347000D01*
X156998Y346000D01*
X153000D01*
X152000Y347000D01*
Y348999D01*
X153000Y349999D01*
X152000Y351998D02*
Y353997D01*
Y352998D01*
X157998D01*
X156998Y351998D01*
Y356996D02*
X157998Y357996D01*
Y359996D01*
X156998Y360995D01*
X155999D01*
X154999Y359996D01*
Y358996D01*
Y359996D01*
X153999Y360995D01*
X153000D01*
X152000Y359996D01*
Y357996D01*
X153000Y356996D01*
X164714Y387998D02*
X165714Y388998D01*
X167713D01*
X168713Y387998D01*
Y384000D01*
X167713Y383000D01*
X165714D01*
X164714Y384000D01*
X162715Y383000D02*
X160716D01*
X161715D01*
Y388998D01*
X162715Y387998D01*
X157717Y383000D02*
X155717D01*
X156717D01*
Y388998D01*
X157717Y387998D01*
X79001Y381998D02*
X80001Y382998D01*
X82000D01*
X83000Y381998D01*
Y378000D01*
X82000Y377000D01*
X80001D01*
X79001Y378000D01*
X77002Y377000D02*
X75003D01*
X76002D01*
Y382998D01*
X77002Y381998D01*
X68005Y382998D02*
X72004D01*
Y379999D01*
X70004Y380999D01*
X69004D01*
X68005Y379999D01*
Y378000D01*
X69004Y377000D01*
X71004D01*
X72004Y378000D01*
X96498Y358999D02*
X97498Y357999D01*
Y356000D01*
X96498Y355000D01*
X92500D01*
X91500Y356000D01*
Y357999D01*
X92500Y358999D01*
X91500Y360998D02*
Y362997D01*
Y361998D01*
X97498D01*
X96498Y360998D01*
X92500Y365996D02*
X91500Y366996D01*
Y368995D01*
X92500Y369995D01*
X96498D01*
X97498Y368995D01*
Y366996D01*
X96498Y365996D01*
X95499D01*
X94499Y366996D01*
Y369995D01*
X162501Y446498D02*
X163501Y447498D01*
X165500D01*
X166500Y446498D01*
Y442500D01*
X165500Y441500D01*
X163501D01*
X162501Y442500D01*
X160502Y441500D02*
X158503D01*
X159502D01*
Y447498D01*
X160502Y446498D01*
X151505Y447498D02*
X153504Y446498D01*
X155504Y444499D01*
Y442500D01*
X154504Y441500D01*
X152505D01*
X151505Y442500D01*
Y443499D01*
X152505Y444499D01*
X155504D01*
X136501Y321498D02*
X137501Y322498D01*
X139500D01*
X140500Y321498D01*
Y317500D01*
X139500Y316500D01*
X137501D01*
X136501Y317500D01*
X134502Y316500D02*
X132502D01*
X133502D01*
Y322498D01*
X134502Y321498D01*
X125505Y316500D02*
X129504D01*
X125505Y320499D01*
Y321498D01*
X126505Y322498D01*
X128504D01*
X129504Y321498D01*
X322876Y158280D02*
X323532Y158936D01*
X324844D01*
X325500Y158280D01*
Y155656D01*
X324844Y155000D01*
X323532D01*
X322876Y155656D01*
X321564Y158280D02*
X320908Y158936D01*
X319596D01*
X318940Y158280D01*
Y157624D01*
X319596Y156968D01*
X318940Y156312D01*
Y155656D01*
X319596Y155000D01*
X320908D01*
X321564Y155656D01*
Y156312D01*
X320908Y156968D01*
X321564Y157624D01*
Y158280D01*
X320908Y156968D02*
X319596D01*
X308376Y170280D02*
X309032Y170936D01*
X310344D01*
X311000Y170280D01*
Y167656D01*
X310344Y167000D01*
X309032D01*
X308376Y167656D01*
X307064Y170936D02*
X304440D01*
Y170280D01*
X307064Y167656D01*
Y167000D01*
X116376Y195280D02*
X117032Y195936D01*
X118344D01*
X119000Y195280D01*
Y192656D01*
X118344Y192000D01*
X117032D01*
X116376Y192656D01*
X112440Y195936D02*
X115064D01*
Y193968D01*
X113752Y194624D01*
X113096D01*
X112440Y193968D01*
Y192656D01*
X113096Y192000D01*
X114408D01*
X115064Y192656D01*
X244376Y92780D02*
X245032Y93436D01*
X246344D01*
X247000Y92780D01*
Y90156D01*
X246344Y89500D01*
X245032D01*
X244376Y90156D01*
X241096Y89500D02*
Y93436D01*
X243064Y91468D01*
X240440D01*
X437652Y61998D02*
X438652Y62998D01*
X440651D01*
X441651Y61998D01*
Y58000D01*
X440651Y57000D01*
X438652D01*
X437652Y58000D01*
X431654Y57000D02*
X435652D01*
X431654Y60999D01*
Y61998D01*
X432654Y62998D01*
X434653D01*
X435652Y61998D01*
X569054Y172997D02*
X570053Y173997D01*
X572053D01*
X573053Y172997D01*
Y168999D01*
X572053Y167999D01*
X570053D01*
X569054Y168999D01*
X567055Y167999D02*
X565055D01*
X566055D01*
Y173997D01*
X567055Y172997D01*
X456500Y184998D02*
Y179000D01*
X453501D01*
X452501Y180000D01*
Y180999D01*
X453501Y181999D01*
X456500D01*
X453501D01*
X452501Y182999D01*
Y183998D01*
X453501Y184998D01*
X456500D01*
X450502Y179000D02*
Y184998D01*
X447503D01*
X446503Y183998D01*
Y181999D01*
X447503Y180999D01*
X450502D01*
X448503D02*
X446503Y179000D01*
X444504D02*
X442505D01*
X443504D01*
Y184998D01*
X444504Y183998D01*
X114498Y40499D02*
X115498Y39499D01*
Y37500D01*
X114498Y36500D01*
X110500D01*
X109500Y37500D01*
Y39499D01*
X110500Y40499D01*
X114498Y42498D02*
X115498Y43498D01*
Y45497D01*
X114498Y46497D01*
X113499D01*
X112499Y45497D01*
Y44497D01*
Y45497D01*
X111499Y46497D01*
X110500D01*
X109500Y45497D01*
Y43498D01*
X110500Y42498D01*
X343376Y188780D02*
X344032Y189436D01*
X345344D01*
X346000Y188780D01*
Y186156D01*
X345344Y185500D01*
X344032D01*
X343376Y186156D01*
X339440Y189436D02*
X340752Y188780D01*
X342064Y187468D01*
Y186156D01*
X341408Y185500D01*
X340096D01*
X339440Y186156D01*
Y186812D01*
X340096Y187468D01*
X342064D01*
X82501Y496498D02*
X83501Y497498D01*
X85500D01*
X86500Y496498D01*
Y492500D01*
X85500Y491500D01*
X83501D01*
X82501Y492500D01*
X80502Y491500D02*
X78503D01*
X79502D01*
Y497498D01*
X80502Y496498D01*
X72505Y491500D02*
Y497498D01*
X75504Y494499D01*
X71505D01*
X459231Y11974D02*
Y5976D01*
X456232D01*
X455232Y6975D01*
Y10974D01*
X456232Y11974D01*
X459231D01*
X449234Y5976D02*
X453233D01*
X449234Y9974D01*
Y10974D01*
X450234Y11974D01*
X452233D01*
X453233Y10974D01*
X413068Y26498D02*
Y20500D01*
X410069D01*
X409069Y21500D01*
Y25498D01*
X410069Y26498D01*
X413068D01*
X407070Y25498D02*
X406070Y26498D01*
X404071D01*
X403071Y25498D01*
Y24499D01*
X404071Y23499D01*
X405070D01*
X404071D01*
X403071Y22499D01*
Y21500D01*
X404071Y20500D01*
X406070D01*
X407070Y21500D01*
X17000Y477998D02*
Y472000D01*
X13001D01*
X11002D02*
X9003D01*
X10002D01*
Y477998D01*
X11002Y476998D01*
X429100Y44700D02*
Y50698D01*
X426101D01*
X425101Y49698D01*
Y47699D01*
X426101Y46699D01*
X429100D01*
X427101D02*
X425101Y44700D01*
X420103D02*
Y50698D01*
X423102Y47699D01*
X419103D01*
X413105Y50698D02*
X417104D01*
Y47699D01*
X415105Y48699D01*
X414105D01*
X413105Y47699D01*
Y45700D01*
X414105Y44700D01*
X416104D01*
X417104Y45700D01*
X405500Y44500D02*
Y50498D01*
X402501D01*
X401501Y49498D01*
Y47499D01*
X402501Y46499D01*
X405500D01*
X403501D02*
X401501Y44500D01*
X396503D02*
Y50498D01*
X399502Y47499D01*
X395503D01*
X389505Y50498D02*
X391505Y49498D01*
X393504Y47499D01*
Y45500D01*
X392504Y44500D01*
X390505D01*
X389505Y45500D01*
Y46499D01*
X390505Y47499D01*
X393504D01*
X158000Y431998D02*
Y427000D01*
X157000Y426000D01*
X155001D01*
X154001Y427000D01*
Y431998D01*
X152002Y426000D02*
X150003D01*
X151002D01*
Y431998D01*
X152002Y430998D01*
D33*
X557000Y14500D02*
Y62000D01*
X491000Y14500D02*
X557000D01*
X491000Y62000D02*
X557000D01*
X491000Y14500D02*
Y62000D01*
D93*
X482935Y22000D02*
Y25000D01*
X481000Y23466D02*
X484500D01*
D129*
X368000Y-20000D02*
G03*
X387000Y-20000I9500J0D01*
G01*
X231200Y273787D02*
G03*
X231200Y273787I-44900J0D01*
G01*
X425731Y-19534D02*
G03*
X444731Y-19534I9500J0D01*
G01*
X398500Y-19500D02*
G03*
X417500Y-19500I9500J0D01*
G01*
X365500Y25500D02*
X370000D01*
Y15500D02*
Y25500D01*
Y15500D02*
X385000D01*
Y25500D01*
X389500D01*
X368000Y-20000D02*
Y-10000D01*
X387000Y-20000D02*
Y-10000D01*
X365500D02*
Y25500D01*
Y-10000D02*
X389500D01*
Y25500D01*
X143000Y285992D02*
Y286386D01*
X130400D02*
X143000D01*
X130400Y261500D02*
Y286386D01*
Y261500D02*
X144200D01*
X49800Y484665D02*
X51000D01*
X58300Y489500D02*
Y491500D01*
X28736Y489500D02*
Y491500D01*
X35750Y484665D02*
X37250D01*
X28736Y501398D02*
X58300D01*
X423231Y25967D02*
X427731D01*
Y15967D02*
Y25967D01*
Y15967D02*
X442731D01*
Y25967D01*
X447231D01*
X425731Y-19534D02*
Y-9533D01*
X444731Y-19534D02*
Y-9533D01*
X423231D02*
Y25967D01*
Y-9533D02*
X447231D01*
Y25967D01*
X396000Y26000D02*
X400500D01*
Y16000D02*
Y26000D01*
Y16000D02*
X415500D01*
Y26000D01*
X420000D01*
X398500Y-19500D02*
Y-9500D01*
X417500Y-19500D02*
Y-9500D01*
X396000D02*
Y26000D01*
Y-9500D02*
X420000D01*
Y26000D01*
D130*
X327675Y179532D02*
G03*
X327675Y179532I-400J0D01*
G01*
D131*
X421100Y195500D02*
G03*
X425100Y195500I2000J0D01*
G01*
X421100D02*
G03*
X417100Y195500I-2000J0D01*
G01*
X453118D02*
G03*
X449118Y195500I-2000J0D01*
G01*
X453118D02*
G03*
X457118Y195500I2000J0D01*
G01*
X125500Y38000D02*
G03*
X125500Y38000I-27500J0D01*
G01*
X161672Y357900D02*
G03*
X160500Y355000I2915J-2864D01*
G01*
D02*
G03*
X161672Y352172I4000J0D01*
G01*
X167400Y352172D02*
G03*
X168500Y355000I-2864J2742D01*
G01*
D02*
G03*
X167400Y357900I-4051J122D01*
G01*
X140300Y378300D02*
G03*
X140300Y377700I0J-300D01*
G01*
D02*
G03*
X140300Y378300I0J300D01*
G01*
X20500Y211500D02*
G03*
X20500Y211500I-1000J0D01*
G01*
X26500D02*
G03*
X26500Y211500I-7000J0D01*
G01*
X262800Y159400D02*
X268900D01*
X255600Y141600D02*
X257200D01*
X251100D02*
X255600D01*
X260000Y133200D02*
Y136200D01*
X258500Y134700D02*
X261500D01*
X264400Y141600D02*
X268900Y146100D01*
X251100D02*
X255600Y141600D01*
X251100D02*
Y159400D01*
X257200D01*
X268900Y141600D02*
Y159400D01*
X262800Y141600D02*
X268900D01*
X299500Y203500D02*
Y208500D01*
X307000Y201000D02*
X309500Y203500D01*
X302000Y201000D02*
X307000D01*
X299500Y203500D02*
X302000Y201000D01*
X299500Y208500D02*
X302000Y211000D01*
X307000D01*
X309500Y208500D01*
X322000Y201000D02*
X327000D01*
X329500Y203500D01*
X327000Y211000D02*
X329500Y208500D01*
Y203500D02*
Y208500D01*
X317000Y201000D02*
X319500Y203500D01*
X312000Y201000D02*
X317000D01*
X309500Y203500D02*
X312000Y201000D01*
X309500Y208500D02*
X312000Y211000D01*
X317000D01*
X319500Y208500D01*
Y203500D02*
X322000Y201000D01*
X319500Y208500D02*
X322000Y211000D01*
X327000D01*
X294000Y203500D02*
Y208500D01*
X284000D02*
X286500Y211000D01*
X291500D01*
X294000Y208500D01*
X291500Y201000D02*
X294000Y203500D01*
X286500Y201000D02*
X291500D01*
X284000Y203500D02*
X286500Y201000D01*
X266500Y211000D02*
X271500D01*
X264000Y208500D02*
X266500Y211000D01*
X264000Y203500D02*
X266500Y201000D01*
X264000Y203500D02*
Y208500D01*
X274000D02*
X276500Y211000D01*
X281500D01*
X284000Y208500D01*
X281500Y201000D02*
X284000Y203500D01*
X276500Y201000D02*
X281500D01*
X274000Y203500D02*
X276500Y201000D01*
X271500Y211000D02*
X274000Y208500D01*
X271500Y201000D02*
X274000Y203500D01*
X266500Y201000D02*
X271500D01*
X317147Y178425D02*
Y184600D01*
X328350Y178425D02*
Y184600D01*
X262500Y174000D02*
Y182000D01*
X283500Y173000D02*
X291500D01*
X282500Y174000D02*
X283500Y173000D01*
Y183000D02*
X291500D01*
X282500Y182000D02*
X283500Y183000D01*
X291500D02*
X292500Y182000D01*
X291500Y173000D02*
X292500Y174000D01*
Y182000D01*
X281500Y173000D02*
X282500Y174000D01*
X273500Y173000D02*
X281500D01*
X272500Y174000D02*
X273500Y173000D01*
X271500D02*
X272500Y174000D01*
X262500D02*
X263500Y173000D01*
X271500D01*
X281500Y183000D02*
X282500Y182000D01*
X272500D02*
X273500Y183000D01*
X271500D02*
X272500Y182000D01*
X262500D02*
X263500Y183000D01*
X273500D02*
X281500D01*
X263500D02*
X271500D01*
X483118Y193000D02*
Y198000D01*
X480618Y195500D02*
X485618D01*
X405100Y202000D02*
X410100D01*
X392600Y189500D02*
Y217500D01*
X495118Y189500D02*
Y217500D01*
X392600D02*
X495118D01*
X392600Y189500D02*
X495118D01*
X208300Y45900D02*
Y48100D01*
Y45900D02*
X211500D01*
X208300Y54900D02*
Y57100D01*
X211500D01*
X75000Y152500D02*
Y167500D01*
X74500Y152500D02*
X75000D01*
X74500Y147500D02*
Y152500D01*
Y147500D02*
X75000D01*
Y145500D02*
Y147500D01*
X71000Y145500D02*
X75000D01*
X71000Y129500D02*
X75000D01*
X70000D02*
X71000D01*
X70000Y112500D02*
Y129500D01*
X75000D02*
Y145500D01*
Y107500D02*
Y129500D01*
X40000Y140000D02*
Y157500D01*
X39000D02*
X40000D01*
X39000Y162500D02*
X40000D01*
X39000Y157500D02*
Y162500D01*
Y140000D02*
X40000D01*
Y117500D02*
Y135000D01*
X39000D02*
X40000D01*
X39000D02*
Y140000D01*
X40000Y107500D02*
Y112500D01*
X39000Y117500D02*
X40000D01*
X39000Y112500D02*
Y117500D01*
Y112500D02*
X40000D01*
X70000Y145500D02*
X71000D01*
X70000D02*
Y162500D01*
X67000Y145500D02*
X70000D01*
X67000Y129500D02*
Y145500D01*
Y129500D02*
X70000D01*
X40000Y167500D02*
X75000D01*
X40000Y107500D02*
X75000D01*
X40000Y162500D02*
Y167500D01*
X45000Y162500D02*
X70000D01*
X45000Y112500D02*
X70000D01*
X45000D02*
Y162500D01*
X37000Y152500D02*
Y167500D01*
X36500Y152500D02*
X37000D01*
X36500Y147500D02*
Y152500D01*
Y147500D02*
X37000D01*
Y145500D02*
Y147500D01*
X33000Y145500D02*
X37000D01*
X33000Y129500D02*
X37000D01*
X32000D02*
X33000D01*
X32000Y112500D02*
Y129500D01*
X37000D02*
Y145500D01*
Y107500D02*
Y129500D01*
X2000Y140000D02*
Y157500D01*
X1000D02*
X2000D01*
X1000Y162500D02*
X2000D01*
X1000Y157500D02*
Y162500D01*
Y140000D02*
X2000D01*
Y117500D02*
Y135000D01*
X1000D02*
X2000D01*
X1000D02*
Y140000D01*
X2000Y107500D02*
Y112500D01*
X1000Y117500D02*
X2000D01*
X1000Y112500D02*
Y117500D01*
Y112500D02*
X2000D01*
X32000Y145500D02*
X33000D01*
X32000D02*
Y162500D01*
X29000Y145500D02*
X32000D01*
X29000Y129500D02*
Y145500D01*
Y129500D02*
X32000D01*
X2000Y167500D02*
X37000D01*
X2000Y107500D02*
X37000D01*
X2000Y162500D02*
Y167500D01*
X7000Y162500D02*
X32000D01*
X7000Y112500D02*
X32000D01*
X7000D02*
Y162500D01*
X144353Y99629D02*
X152353D01*
X154353D02*
X162353D01*
X143353Y98629D02*
X144353Y99629D01*
X152353D02*
X153353Y98629D01*
X154353Y99629D01*
X162353D02*
X163353Y98629D01*
X144353Y89629D02*
X152353D01*
X143353Y90629D02*
X144353Y89629D01*
X152353D02*
X153353Y90629D01*
X154353Y89629D01*
X162353D01*
X163353Y90629D01*
X173353D02*
Y98629D01*
X172353Y89629D02*
X173353Y90629D01*
X172353Y99629D02*
X173353Y98629D01*
X163353D02*
X164353Y99629D01*
X172353D01*
X163353Y90629D02*
X164353Y89629D01*
X172353D01*
X143353Y90629D02*
Y98629D01*
X95500Y58000D02*
X100500D01*
X98000Y55500D02*
Y60500D01*
Y33500D02*
Y35500D01*
X93000Y41500D02*
X98000D01*
X93000Y39000D02*
Y41500D01*
Y39000D02*
X103000D01*
Y41500D01*
X98000D02*
X103000D01*
X98000D02*
Y42500D01*
X6000Y184500D02*
X14000D01*
X16000D02*
X24000D01*
X5000Y183500D02*
X6000Y184500D01*
X14000D02*
X15000Y183500D01*
X16000Y184500D01*
X24000D02*
X25000Y183500D01*
X6000Y174500D02*
X14000D01*
X5000Y175500D02*
X6000Y174500D01*
X14000D02*
X15000Y175500D01*
X16000Y174500D01*
X24000D01*
X25000Y175500D01*
X35000D02*
Y183500D01*
X34000Y174500D02*
X35000Y175500D01*
X34000Y184500D02*
X35000Y183500D01*
X25000D02*
X26000Y184500D01*
X34000D01*
X25000Y175500D02*
X26000Y174500D01*
X34000D01*
X5000Y175500D02*
Y183500D01*
X105300Y384800D02*
Y388300D01*
Y425200D02*
X108800D01*
X145700Y421700D02*
Y425200D01*
X142200Y384800D02*
X145700D01*
X105300D02*
X108800D01*
X105300Y421700D02*
Y425200D01*
X142200D02*
X145700D01*
Y384800D02*
Y388300D01*
X15500Y223500D02*
X16500D01*
X22500D02*
X23500D01*
X15500Y199500D02*
X16500D01*
X22500D02*
X23500D01*
X31500Y203000D02*
Y207000D01*
Y216500D01*
X7500D02*
Y220000D01*
Y206500D02*
Y216500D01*
Y203000D02*
Y206500D01*
X31500Y216500D02*
Y220000D01*
X22500Y223500D02*
Y224500D01*
X16500D02*
X22500D01*
X16500Y223500D02*
Y224500D01*
Y198500D02*
Y199500D01*
Y198500D02*
X22500D01*
Y199500D01*
X201000Y471000D02*
X216000D01*
X201000D02*
Y471500D01*
X196000D02*
X201000D01*
X196000Y471000D02*
Y471500D01*
X194000Y471000D02*
X196000D01*
X194000D02*
Y475000D01*
X178000Y471000D02*
Y475000D01*
Y476000D01*
X161000D02*
X178000D01*
Y471000D02*
X194000D01*
X156000D02*
X178000D01*
X188500Y506000D02*
X206000D01*
Y507000D01*
X211000Y506000D02*
Y507000D01*
X206000D02*
X211000D01*
X188500Y506000D02*
Y507000D01*
X166000Y506000D02*
X183500D01*
Y507000D01*
X188500D01*
X156000Y506000D02*
X161000D01*
X166000D02*
Y507000D01*
X161000D02*
X166000D01*
X161000Y506000D02*
Y507000D01*
X194000Y475000D02*
Y476000D01*
X211000D01*
X194000D02*
Y479000D01*
X178000D02*
X194000D01*
X178000Y476000D02*
Y479000D01*
X216000Y471000D02*
Y506000D01*
X156000Y471000D02*
Y506000D01*
X211000D02*
X216000D01*
X211000Y476000D02*
Y501000D01*
X161000Y476000D02*
Y501000D01*
X211000D01*
X138000Y472500D02*
X153000D01*
X138000D02*
Y473000D01*
X133000D02*
X138000D01*
X133000Y472500D02*
Y473000D01*
X131000Y472500D02*
X133000D01*
X131000D02*
Y476500D01*
X115000Y472500D02*
Y476500D01*
Y477500D01*
X98000D02*
X115000D01*
Y472500D02*
X131000D01*
X93000D02*
X115000D01*
X125500Y507500D02*
X143000D01*
Y508500D01*
X148000Y507500D02*
Y508500D01*
X143000D02*
X148000D01*
X125500Y507500D02*
Y508500D01*
X103000Y507500D02*
X120500D01*
Y508500D01*
X125500D01*
X93000Y507500D02*
X98000D01*
X103000D02*
Y508500D01*
X98000D02*
X103000D01*
X98000Y507500D02*
Y508500D01*
X131000Y476500D02*
Y477500D01*
X148000D01*
X131000D02*
Y480500D01*
X115000D02*
X131000D01*
X115000Y477500D02*
Y480500D01*
X153000Y472500D02*
Y507500D01*
X93000Y472500D02*
Y507500D01*
X148000D02*
X153000D01*
X148000Y477500D02*
Y502500D01*
X98000Y477500D02*
Y502500D01*
X148000D01*
D132*
X405335Y36000D02*
X409665D01*
X566700Y5153D02*
Y9484D01*
X374335Y36500D02*
X378665D01*
X424835Y36000D02*
X429165D01*
X23803Y474543D02*
X24197D01*
D133*
X71000Y145500D02*
Y163500D01*
X44000D02*
X71000D01*
X44000Y111500D02*
Y163500D01*
Y111500D02*
X71000D01*
Y129500D01*
X33000Y145500D02*
Y163500D01*
X6000D02*
X33000D01*
X6000Y111500D02*
Y163500D01*
Y111500D02*
X33000D01*
Y129500D01*
X30500Y216500D02*
X31500D01*
X30500Y207000D02*
X31500D01*
X30500D02*
Y216500D01*
X7500Y206500D02*
X8500D01*
Y216500D01*
X7500D02*
X8500D01*
X194000Y475000D02*
X212000D01*
Y502000D01*
X160000D02*
X212000D01*
X160000Y475000D02*
Y502000D01*
Y475000D02*
X178000D01*
X131000Y476500D02*
X149000D01*
Y503500D01*
X97000D02*
X149000D01*
X97000Y476500D02*
Y503500D01*
Y476500D02*
X115000D01*
D134*
X138300Y11400D02*
Y12000D01*
X185800Y11400D02*
Y12000D01*
D135*
X594025Y79033D02*
D03*
D136*
X98000Y35750D02*
D03*
D137*
X509753Y127499D02*
D03*
X393951Y117000D02*
D03*
M02*
