G04*
G04 #@! TF.GenerationSoftware,Altium Limited,Altium Designer,18.0.7 (293)*
G04*
G04 Layer_Color=16711935*
%FSLAX25Y25*%
%MOIN*%
G70*
G01*
G75*
%ADD31C,0.01000*%
%ADD134C,0.00100*%
D31*
X323500Y106000D02*
G03*
X323500Y106000I-2500J0D01*
G01*
X162500Y109500D02*
G03*
X162500Y109500I-2500J0D01*
G01*
X127000D02*
G03*
X127000Y109500I-2500J0D01*
G01*
X307500Y78000D02*
G03*
X307500Y78000I-2500J0D01*
G01*
X199500Y143500D02*
G03*
X199500Y143500I-2500J0D01*
G01*
X85000Y110500D02*
G03*
X85000Y110500I-2500J0D01*
G01*
X309747Y188000D02*
G03*
X309747Y188000I-2500J0D01*
G01*
X228000Y79000D02*
G03*
X228000Y79000I-2500J0D01*
G01*
X92500Y142000D02*
G03*
X92500Y142000I-2500J0D01*
G01*
X218500Y66000D02*
G03*
X218500Y66000I-2500J0D01*
G01*
X57500Y78500D02*
G03*
X57500Y78500I-2500J0D01*
G01*
X239500Y155500D02*
G03*
X239500Y155500I-2500J0D01*
G01*
X224000Y13500D02*
G03*
X224000Y13500I-2500J0D01*
G01*
X220000Y36500D02*
G03*
X220000Y36500I-2500J0D01*
G01*
X104000Y131500D02*
G03*
X104000Y131500I-2500J0D01*
G01*
X115500Y174000D02*
G03*
X115500Y174000I-2500J0D01*
G01*
X237001Y100000D02*
G03*
X237001Y100000I-2500J0D01*
G01*
X165000Y45869D02*
G03*
X165000Y45869I-2500J0D01*
G01*
X156500Y68000D02*
G03*
X156500Y68000I-2500J0D01*
G01*
X136000Y18500D02*
G03*
X136000Y18500I-2500J0D01*
G01*
D134*
X318500Y106000D02*
X323500D01*
X321000Y103500D02*
Y108500D01*
X157500Y109500D02*
X162500D01*
X160000Y107000D02*
Y112000D01*
X122000Y109500D02*
X127000D01*
X124500Y107000D02*
Y112000D01*
X302500Y78000D02*
X307500D01*
X305000Y75500D02*
Y80500D01*
X194500Y143500D02*
X199500D01*
X197000Y141000D02*
Y146000D01*
X80000Y110500D02*
X85000D01*
X82500Y108000D02*
Y113000D01*
X304747Y188000D02*
X309747D01*
X307247Y185500D02*
Y190500D01*
X223000Y79000D02*
X228000D01*
X225500Y76500D02*
Y81500D01*
X87500Y142000D02*
X92500D01*
X90000Y139500D02*
Y144500D01*
X213500Y66000D02*
X218500D01*
X216000Y63500D02*
Y68500D01*
X52500Y78500D02*
X57500D01*
X55000Y76000D02*
Y81000D01*
X234500Y155500D02*
X239500D01*
X237000Y153000D02*
Y158000D01*
X219000Y13500D02*
X224000D01*
X221500Y11000D02*
Y16000D01*
X215000Y36500D02*
X220000D01*
X217500Y34000D02*
Y39000D01*
X99000Y131500D02*
X104000D01*
X101500Y129000D02*
Y134000D01*
X110500Y174000D02*
X115500D01*
X113000Y171500D02*
Y176500D01*
X232001Y100000D02*
X237001D01*
X234501Y97500D02*
Y102500D01*
X160000Y45869D02*
X165000D01*
X162500Y43369D02*
Y48369D01*
X151500Y68000D02*
X156500D01*
X154000Y65500D02*
Y70500D01*
X131000Y18500D02*
X136000D01*
X133500Y16000D02*
Y21000D01*
M02*
