G04*
G04 #@! TF.GenerationSoftware,Altium Limited,Altium Designer,18.0.7 (293)*
G04*
G04 Layer_Color=32768*
%FSLAX25Y25*%
%MOIN*%
G70*
G01*
G75*
%ADD133C,0.00200*%
D133*
X591630Y53701D02*
X599400D01*
X591630D02*
Y65300D01*
X599400D01*
Y53701D02*
Y65300D01*
X584299Y31130D02*
Y38900D01*
X572700Y31130D02*
X584299D01*
X572700D02*
Y38900D01*
X584299D01*
X439630Y40701D02*
X447400D01*
X439630D02*
Y52300D01*
X447400D01*
Y40701D02*
Y52300D01*
X546901Y3419D02*
Y11189D01*
X558500D01*
Y3419D02*
Y11189D01*
X546901Y3419D02*
X558500D01*
X314799Y107130D02*
Y114900D01*
X303200Y107130D02*
X314799D01*
X303200D02*
Y114900D01*
X314799D01*
X279130Y123201D02*
X286900D01*
X279130D02*
Y134800D01*
X286900D01*
Y123201D02*
Y134800D01*
X217268Y93130D02*
Y100900D01*
X201700Y93130D02*
X217268D01*
X201700D02*
Y100900D01*
X217268D01*
Y105130D02*
Y112900D01*
X201700Y105130D02*
X217268D01*
X201700D02*
Y112900D01*
X217268D01*
X83630Y437800D02*
X91400D01*
X83630Y422232D02*
X91400D01*
X83630D02*
Y437800D01*
X91400Y422232D02*
Y437800D01*
X44268Y93130D02*
Y100900D01*
X28700Y93130D02*
X44268D01*
X28700D02*
Y100900D01*
X44268D01*
X137268Y178130D02*
Y185900D01*
X121700Y178130D02*
X137268D01*
X121700D02*
Y185900D01*
X137268D01*
X121732Y166600D02*
Y174370D01*
X137300D01*
Y166600D02*
Y174370D01*
X121732Y166600D02*
X137300D01*
X97630Y110732D02*
X105400D01*
X97630D02*
Y126300D01*
X105400D01*
Y110732D02*
Y126300D01*
X95232Y142100D02*
Y149870D01*
X110800D01*
Y142100D02*
Y149870D01*
X95232Y142100D02*
X110800D01*
X312732Y83600D02*
X328300D01*
Y91370D01*
X312732D02*
X328300D01*
X312732Y83600D02*
Y91370D01*
X28700Y91400D02*
X44268D01*
X28700Y83630D02*
Y91400D01*
Y83630D02*
X44268D01*
Y91400D01*
X312732Y72600D02*
X328300D01*
Y80370D01*
X312732D02*
X328300D01*
X312732Y72600D02*
Y80370D01*
X182400Y107232D02*
Y122800D01*
X174630D02*
X182400D01*
X174630Y107232D02*
Y122800D01*
Y107232D02*
X182400D01*
X168100Y41268D02*
X175870D01*
Y25700D02*
Y41268D01*
X168100Y25700D02*
X175870D01*
X168100D02*
Y41268D01*
X80600Y101268D02*
X88370D01*
Y85700D02*
Y101268D01*
X80600Y85700D02*
X88370D01*
X80600D02*
Y101268D01*
X46693Y25858D02*
X62400D01*
X46693D02*
Y57200D01*
X62400D01*
Y25858D02*
Y57200D01*
X178100Y41268D02*
X185870D01*
Y25700D02*
Y41268D01*
X178100Y25700D02*
X185870D01*
X178100D02*
Y41268D01*
X89173Y70161D02*
Y81900D01*
X61800Y70161D02*
X89173D01*
X61800D02*
Y81900D01*
X89173D01*
X315701Y163500D02*
Y167402D01*
X327300D01*
Y163500D02*
Y167402D01*
X315701Y163500D02*
X327300D01*
X300701Y174500D02*
Y178402D01*
X312300D01*
Y174500D02*
Y178402D01*
X300701Y174500D02*
X312300D01*
X336201Y177701D02*
Y181603D01*
X347800D01*
Y177701D02*
Y181603D01*
X336201Y177701D02*
X347800D01*
X122200Y189130D02*
Y196900D01*
X137768Y189130D02*
Y196900D01*
X122200Y189130D02*
X137768D01*
X122200Y196900D02*
X137768D01*
X248630Y99031D02*
X256400D01*
X248630Y83464D02*
X256400D01*
X248630D02*
Y99031D01*
X256400Y83464D02*
Y99031D01*
X50100Y101268D02*
X57870D01*
Y85700D02*
Y101268D01*
X50100Y85700D02*
X57870D01*
X50100D02*
Y101268D01*
X152600Y41268D02*
X160370D01*
Y25700D02*
Y41268D01*
X152600Y25700D02*
X160370D01*
X152600D02*
Y41268D01*
X248630Y100232D02*
X256400D01*
X248630D02*
Y115800D01*
X256400D01*
Y100232D02*
Y115800D01*
X89732Y93100D02*
Y100870D01*
X105300D01*
Y93100D02*
Y100870D01*
X89732Y93100D02*
X105300D01*
X62600Y101268D02*
X70370D01*
Y85700D02*
Y101268D01*
X62600Y85700D02*
X70370D01*
X62600D02*
Y101268D01*
X146000Y358299D02*
X149901D01*
Y346700D02*
Y358299D01*
X146000Y346700D02*
X149901D01*
X146000D02*
Y358299D01*
X129701Y325500D02*
Y329402D01*
X141300D01*
Y325500D02*
Y329402D01*
X129701Y325500D02*
X141300D01*
X180299Y342598D02*
Y346500D01*
X168700Y342598D02*
X180299D01*
X168700D02*
Y346500D01*
X180299D01*
Y362598D02*
Y366500D01*
X168700Y362598D02*
X180299D01*
X168700D02*
Y366500D01*
X180299D01*
X237768Y54630D02*
Y62400D01*
X222200Y54630D02*
X237768D01*
X222200D02*
Y62400D01*
X237768D01*
X320779Y48019D02*
X328550D01*
X320779D02*
Y63587D01*
X328550D01*
Y48019D02*
Y63587D01*
X10732Y94100D02*
Y101870D01*
X26300D01*
Y94100D02*
Y101870D01*
X10732Y94100D02*
X26300D01*
X89100Y387799D02*
X96870D01*
Y376200D02*
Y387799D01*
X89100Y376200D02*
X96870D01*
X89100D02*
Y387799D01*
X102630Y152732D02*
X110400D01*
X102630D02*
Y168300D01*
X110400D01*
Y152732D02*
Y168300D01*
X143098Y435701D02*
X147000D01*
X143098D02*
Y447300D01*
X147000D01*
Y435701D02*
Y447300D01*
X79768Y472630D02*
Y480400D01*
X64200Y472630D02*
X79768D01*
X64200D02*
Y480400D01*
X79768D01*
X46850Y465368D02*
X54620D01*
Y449800D02*
Y465368D01*
X46850Y449800D02*
X54620D01*
X46850D02*
Y465368D01*
X37600Y465268D02*
X45370D01*
Y449700D02*
Y465268D01*
X37600Y449700D02*
X45370D01*
X37600D02*
Y465268D01*
X49600Y439268D02*
X57370D01*
Y423700D02*
Y439268D01*
X49600Y423700D02*
X57370D01*
X49600D02*
Y439268D01*
X41600D02*
X49370D01*
Y423700D02*
Y439268D01*
X41600Y423700D02*
X49370D01*
X41600D02*
Y439268D01*
X49630Y400732D02*
X57400D01*
X49630D02*
Y416300D01*
X57400D01*
Y400732D02*
Y416300D01*
X41600Y416268D02*
X49370D01*
Y400700D02*
Y416268D01*
X41600Y400700D02*
X49370D01*
X41600D02*
Y416268D01*
X49600Y395268D02*
X57370D01*
Y379700D02*
Y395268D01*
X49600Y379700D02*
X57370D01*
X49600D02*
Y395268D01*
X42100D02*
X49870D01*
Y379700D02*
Y395268D01*
X42100Y379700D02*
X49870D01*
X42100D02*
Y395268D01*
X62000Y386299D02*
X65902D01*
Y374700D02*
Y386299D01*
X62000Y374700D02*
X65902D01*
X62000D02*
Y386299D01*
X50130Y350472D02*
X57900D01*
X50130D02*
Y366040D01*
X57900D01*
Y350472D02*
Y366040D01*
X42130Y350472D02*
X49900D01*
X42130D02*
Y366040D01*
X49900D01*
Y350472D02*
Y366040D01*
X159500Y382799D02*
X163402D01*
Y371200D02*
Y382799D01*
X159500Y371200D02*
X163402D01*
X159500D02*
Y382799D01*
X189268Y377630D02*
Y385400D01*
X173700Y377630D02*
X189268D01*
X173700D02*
Y385400D01*
X189268D01*
X146500Y344437D02*
X150402D01*
Y336500D02*
Y344437D01*
X146500Y336500D02*
X150402D01*
X146500D02*
Y344437D01*
X52268Y214630D02*
Y222400D01*
X36700Y214630D02*
X52268D01*
X36700D02*
Y222400D01*
X52268D01*
X40201Y198500D02*
Y202402D01*
X51800D01*
Y198500D02*
Y202402D01*
X40201Y198500D02*
X51800D01*
X10232Y83600D02*
Y91370D01*
X25800D01*
Y83600D02*
Y91370D01*
X10232Y83600D02*
X25800D01*
X237268Y43630D02*
Y51400D01*
X221700Y43630D02*
X237268D01*
X221700D02*
Y51400D01*
X237268D01*
X258630Y83232D02*
X266400D01*
X258630D02*
Y98800D01*
X266400D01*
Y83232D02*
Y98800D01*
X222130Y85232D02*
X229900D01*
X222130D02*
Y100800D01*
X229900D01*
Y85232D02*
Y100800D01*
X311808Y48019D02*
X319579D01*
X311808D02*
Y63587D01*
X319579D01*
Y48019D02*
Y63587D01*
M02*
