G04*
G04 #@! TF.GenerationSoftware,Altium Limited,Altium Designer,18.0.7 (293)*
G04*
G04 Layer_Color=0*
%FSLAX25Y25*%
%MOIN*%
G70*
G01*
G75*
%ADD30C,0.00800*%
%ADD31C,0.01000*%
%ADD129C,0.00500*%
%ADD130C,0.00000*%
%ADD131C,0.00600*%
%ADD133C,0.00200*%
%ADD148C,0.00400*%
%ADD149R,0.02300X0.01800*%
%ADD150R,0.01000X0.05356*%
%ADD151R,0.00984X0.05356*%
%ADD152R,0.01900X0.04400*%
%ADD153R,0.01900X0.04331*%
%ADD154R,0.01929X0.04400*%
%ADD155R,0.01965X0.04400*%
%ADD156R,0.01965X0.04331*%
%ADD157R,0.01929X0.04331*%
%ADD158R,0.03750X0.02000*%
%ADD159R,0.03750X0.01969*%
%ADD160R,0.02000X0.03750*%
%ADD161R,0.01969X0.03750*%
%ADD162R,0.24902X0.02400*%
%ADD163R,0.24902X0.02362*%
%ADD164R,0.04400X0.01930*%
%ADD165R,0.04400X0.01900*%
%ADD166R,0.04331X0.01900*%
%ADD167R,0.04331X0.01930*%
%ADD168R,0.02000X0.02000*%
%ADD169R,0.01968X0.02400*%
%ADD170R,0.01984X0.02400*%
%ADD171R,0.02000X0.02400*%
%ADD172R,0.02000X0.02362*%
%ADD173R,0.01984X0.02362*%
%ADD174R,0.01968X0.02362*%
%ADD175R,0.02400X0.02400*%
%ADD176R,0.01800X0.02300*%
%ADD177R,0.02559X0.05550*%
%ADD178R,0.02600X0.05550*%
%ADD179R,0.05750X0.03000*%
%ADD180R,0.05750X0.02953*%
%ADD181R,0.04331X0.01900*%
%ADD182R,0.04400X0.01929*%
%ADD183R,0.04400X0.01965*%
%ADD184R,0.04331X0.01965*%
%ADD185R,0.04331X0.01929*%
%ADD186R,0.05550X0.02559*%
%ADD187R,0.05550X0.02600*%
%ADD188R,0.12300X0.03400*%
%ADD189R,0.12300X0.03346*%
%ADD190R,0.03400X0.10500*%
%ADD191R,0.03346X0.10500*%
%ADD192R,0.01100X0.02400*%
%ADD193R,0.01181X0.02400*%
%ADD194R,0.03000X0.05750*%
%ADD195R,0.02953X0.05750*%
%ADD196R,0.02400X0.01100*%
%ADD197R,0.02400X0.01181*%
G36*
X29310Y195342D02*
X30500D01*
Y194732D01*
X29310D01*
Y194058D01*
X28751D01*
Y194732D01*
X25538D01*
Y195227D01*
X28751Y197500D01*
X29310D01*
Y195342D01*
D02*
G37*
G36*
X29303Y229486D02*
X29410Y229464D01*
X29611Y229400D01*
X29783Y229321D01*
X29855Y229278D01*
X29926Y229235D01*
X29991Y229192D01*
X30041Y229149D01*
X30091Y229113D01*
X30127Y229077D01*
X30156Y229056D01*
X30177Y229034D01*
X30192Y229020D01*
X30199Y229012D01*
X30263Y228926D01*
X30328Y228840D01*
X30378Y228754D01*
X30421Y228661D01*
X30493Y228482D01*
X30536Y228310D01*
X30550Y228231D01*
X30564Y228159D01*
X30572Y228095D01*
X30579Y228037D01*
X30586Y227994D01*
Y227930D01*
X30579Y227794D01*
X30564Y227672D01*
X30543Y227550D01*
X30514Y227435D01*
X30479Y227327D01*
X30443Y227234D01*
X30400Y227141D01*
X30357Y227062D01*
X30321Y226983D01*
X30278Y226919D01*
X30242Y226861D01*
X30206Y226818D01*
X30177Y226783D01*
X30156Y226754D01*
X30141Y226740D01*
X30134Y226732D01*
X30048Y226646D01*
X29955Y226575D01*
X29862Y226510D01*
X29769Y226453D01*
X29683Y226410D01*
X29589Y226367D01*
X29417Y226309D01*
X29338Y226295D01*
X29267Y226281D01*
X29202Y226266D01*
X29145Y226259D01*
X29102Y226252D01*
X29066D01*
X29044D01*
X29037D01*
X28865Y226259D01*
X28708Y226288D01*
X28571Y226331D01*
X28457Y226374D01*
X28363Y226417D01*
X28292Y226460D01*
X28249Y226489D01*
X28234Y226496D01*
X28127Y226596D01*
X28034Y226704D01*
X27962Y226818D01*
X27904Y226933D01*
X27861Y227033D01*
X27833Y227112D01*
X27826Y227141D01*
X27818Y227163D01*
X27811Y227177D01*
Y227184D01*
X27747Y227062D01*
X27682Y226962D01*
X27610Y226876D01*
X27546Y226804D01*
X27489Y226747D01*
X27438Y226704D01*
X27410Y226682D01*
X27395Y226675D01*
X27295Y226618D01*
X27195Y226575D01*
X27094Y226539D01*
X27001Y226517D01*
X26922Y226503D01*
X26865Y226496D01*
X26822D01*
X26807D01*
X26686Y226503D01*
X26564Y226524D01*
X26456Y226553D01*
X26363Y226589D01*
X26284Y226625D01*
X26219Y226654D01*
X26184Y226675D01*
X26169Y226682D01*
X26062Y226754D01*
X25969Y226840D01*
X25890Y226926D01*
X25818Y227012D01*
X25768Y227084D01*
X25725Y227148D01*
X25703Y227191D01*
X25696Y227198D01*
Y227206D01*
X25639Y227335D01*
X25596Y227464D01*
X25560Y227593D01*
X25538Y227708D01*
X25524Y227801D01*
X25517Y227880D01*
Y228059D01*
X25531Y228159D01*
X25567Y228353D01*
X25624Y228518D01*
X25682Y228661D01*
X25718Y228726D01*
X25746Y228776D01*
X25775Y228826D01*
X25804Y228862D01*
X25825Y228890D01*
X25839Y228912D01*
X25847Y228926D01*
X25854Y228934D01*
X25990Y229070D01*
X26141Y229177D01*
X26298Y229263D01*
X26456Y229335D01*
X26592Y229378D01*
X26650Y229400D01*
X26700Y229414D01*
X26743Y229421D01*
X26772Y229428D01*
X26793Y229435D01*
X26800D01*
X26908Y228826D01*
X26750Y228797D01*
X26614Y228754D01*
X26499Y228704D01*
X26406Y228654D01*
X26334Y228604D01*
X26284Y228561D01*
X26248Y228532D01*
X26241Y228525D01*
X26169Y228432D01*
X26112Y228331D01*
X26076Y228238D01*
X26047Y228145D01*
X26033Y228059D01*
X26019Y227994D01*
Y227937D01*
X26026Y227808D01*
X26055Y227693D01*
X26090Y227593D01*
X26126Y227507D01*
X26169Y227442D01*
X26205Y227392D01*
X26234Y227356D01*
X26241Y227349D01*
X26327Y227270D01*
X26420Y227213D01*
X26513Y227177D01*
X26599Y227148D01*
X26678Y227134D01*
X26736Y227120D01*
X26779D01*
X26786D01*
X26793D01*
X26872D01*
X26944Y227134D01*
X27066Y227170D01*
X27173Y227220D01*
X27266Y227277D01*
X27331Y227335D01*
X27381Y227385D01*
X27410Y227421D01*
X27417Y227428D01*
Y227435D01*
X27481Y227557D01*
X27532Y227672D01*
X27567Y227794D01*
X27589Y227901D01*
X27603Y227994D01*
X27618Y228073D01*
Y228166D01*
X27610Y228195D01*
Y228231D01*
X28148Y228303D01*
X28127Y228209D01*
X28112Y228123D01*
X28098Y228052D01*
X28091Y227987D01*
X28084Y227937D01*
Y227872D01*
X28098Y227722D01*
X28127Y227586D01*
X28170Y227464D01*
X28220Y227363D01*
X28270Y227285D01*
X28313Y227227D01*
X28342Y227191D01*
X28356Y227177D01*
X28464Y227084D01*
X28578Y227012D01*
X28693Y226962D01*
X28808Y226933D01*
X28901Y226912D01*
X28980Y226905D01*
X29009Y226897D01*
X29030D01*
X29044D01*
X29052D01*
X29209Y226912D01*
X29353Y226947D01*
X29475Y226991D01*
X29582Y227048D01*
X29668Y227105D01*
X29733Y227148D01*
X29776Y227184D01*
X29790Y227198D01*
X29891Y227313D01*
X29962Y227435D01*
X30012Y227557D01*
X30048Y227672D01*
X30070Y227772D01*
X30077Y227851D01*
X30084Y227880D01*
Y227923D01*
X30077Y228052D01*
X30048Y228173D01*
X30012Y228281D01*
X29969Y228367D01*
X29934Y228439D01*
X29898Y228496D01*
X29869Y228525D01*
X29862Y228539D01*
X29761Y228625D01*
X29647Y228697D01*
X29525Y228762D01*
X29396Y228812D01*
X29288Y228848D01*
X29238Y228862D01*
X29195Y228869D01*
X29159Y228876D01*
X29131Y228883D01*
X29116Y228890D01*
X29109D01*
X29188Y229500D01*
X29303Y229486D01*
D02*
G37*
G36*
X13500Y194202D02*
X12912D01*
Y196647D01*
X12790Y196561D01*
X12740Y196518D01*
X12690Y196482D01*
X12647Y196446D01*
X12618Y196417D01*
X12597Y196396D01*
X12589Y196389D01*
X12554Y196353D01*
X12518Y196310D01*
X12425Y196209D01*
X12317Y196095D01*
X12209Y195973D01*
X12116Y195858D01*
X12073Y195808D01*
X12030Y195765D01*
X12002Y195729D01*
X11980Y195700D01*
X11966Y195686D01*
X11958Y195679D01*
X11858Y195564D01*
X11765Y195449D01*
X11672Y195349D01*
X11593Y195256D01*
X11514Y195170D01*
X11442Y195098D01*
X11378Y195026D01*
X11320Y194969D01*
X11263Y194912D01*
X11220Y194869D01*
X11184Y194833D01*
X11148Y194797D01*
X11105Y194761D01*
X11091Y194747D01*
X10969Y194646D01*
X10861Y194560D01*
X10754Y194489D01*
X10668Y194431D01*
X10589Y194388D01*
X10532Y194360D01*
X10496Y194345D01*
X10481Y194338D01*
X10374Y194295D01*
X10266Y194266D01*
X10166Y194238D01*
X10080Y194223D01*
X10001Y194216D01*
X9944Y194209D01*
X9908D01*
X9894D01*
X9786Y194216D01*
X9686Y194230D01*
X9585Y194245D01*
X9499Y194273D01*
X9327Y194345D01*
X9191Y194417D01*
X9126Y194460D01*
X9076Y194496D01*
X9026Y194532D01*
X8990Y194568D01*
X8961Y194596D01*
X8933Y194611D01*
X8925Y194625D01*
X8918Y194632D01*
X8847Y194711D01*
X8782Y194797D01*
X8732Y194890D01*
X8689Y194983D01*
X8617Y195170D01*
X8567Y195356D01*
X8553Y195435D01*
X8538Y195514D01*
X8531Y195586D01*
X8524Y195643D01*
X8517Y195693D01*
Y195765D01*
X8524Y195894D01*
X8531Y196016D01*
X8553Y196131D01*
X8574Y196238D01*
X8603Y196338D01*
X8632Y196432D01*
X8667Y196518D01*
X8703Y196597D01*
X8739Y196668D01*
X8775Y196726D01*
X8804Y196776D01*
X8832Y196819D01*
X8854Y196855D01*
X8875Y196876D01*
X8883Y196891D01*
X8890Y196898D01*
X8961Y196969D01*
X9040Y197034D01*
X9126Y197099D01*
X9212Y197149D01*
X9384Y197235D01*
X9556Y197292D01*
X9635Y197314D01*
X9714Y197335D01*
X9779Y197349D01*
X9836Y197364D01*
X9886Y197371D01*
X9922D01*
X9944Y197378D01*
X9951D01*
X10015Y196754D01*
X9850Y196740D01*
X9707Y196711D01*
X9578Y196668D01*
X9478Y196618D01*
X9392Y196575D01*
X9334Y196532D01*
X9298Y196503D01*
X9284Y196489D01*
X9198Y196381D01*
X9133Y196267D01*
X9083Y196145D01*
X9055Y196037D01*
X9033Y195937D01*
X9026Y195851D01*
X9019Y195822D01*
Y195779D01*
X9026Y195629D01*
X9055Y195492D01*
X9098Y195378D01*
X9141Y195277D01*
X9191Y195198D01*
X9227Y195148D01*
X9255Y195112D01*
X9270Y195098D01*
X9370Y195012D01*
X9471Y194948D01*
X9571Y194897D01*
X9671Y194869D01*
X9750Y194847D01*
X9822Y194840D01*
X9865Y194833D01*
X9872D01*
X9879D01*
X10008Y194847D01*
X10144Y194876D01*
X10266Y194926D01*
X10381Y194976D01*
X10474Y195034D01*
X10553Y195084D01*
X10582Y195098D01*
X10603Y195112D01*
X10610Y195127D01*
X10618D01*
X10696Y195184D01*
X10775Y195256D01*
X10861Y195335D01*
X10948Y195421D01*
X11120Y195600D01*
X11292Y195779D01*
X11371Y195872D01*
X11442Y195951D01*
X11507Y196030D01*
X11564Y196095D01*
X11607Y196145D01*
X11643Y196188D01*
X11665Y196217D01*
X11672Y196224D01*
X11822Y196403D01*
X11966Y196568D01*
X12095Y196704D01*
X12202Y196812D01*
X12295Y196905D01*
X12360Y196969D01*
X12403Y197005D01*
X12410Y197020D01*
X12417D01*
X12539Y197120D01*
X12654Y197199D01*
X12769Y197271D01*
X12869Y197328D01*
X12955Y197371D01*
X13020Y197400D01*
X13063Y197414D01*
X13070Y197421D01*
X13077D01*
X13156Y197450D01*
X13228Y197464D01*
X13299Y197478D01*
X13364Y197486D01*
X13421Y197493D01*
X13464D01*
X13493D01*
X13500D01*
Y194202D01*
D02*
G37*
G36*
X9809Y228393D02*
X9759Y228285D01*
X9709Y228177D01*
X9659Y228077D01*
X9616Y227991D01*
X9580Y227919D01*
X9551Y227876D01*
X9544Y227869D01*
Y227862D01*
X9465Y227733D01*
X9386Y227618D01*
X9315Y227518D01*
X9250Y227439D01*
X9200Y227367D01*
X9157Y227324D01*
X9128Y227288D01*
X9121Y227281D01*
X13000D01*
Y226672D01*
X8017D01*
Y227066D01*
X8139Y227138D01*
X8253Y227217D01*
X8368Y227310D01*
X8469Y227396D01*
X8555Y227482D01*
X8626Y227546D01*
X8648Y227575D01*
X8669Y227597D01*
X8676Y227604D01*
X8684Y227611D01*
X8805Y227762D01*
X8920Y227912D01*
X9021Y228056D01*
X9099Y228199D01*
X9171Y228321D01*
X9200Y228371D01*
X9221Y228414D01*
X9243Y228450D01*
X9250Y228479D01*
X9264Y228493D01*
Y228500D01*
X9852D01*
X9809Y228393D01*
D02*
G37*
%LPC*%
G36*
X28751Y196905D02*
X26528Y195342D01*
X28751D01*
Y196905D01*
D02*
G37*
%LPD*%
D30*
X205551Y126000D02*
X239500D01*
Y139012D02*
Y140980D01*
Y126000D02*
Y139012D01*
X205551D02*
X239500D01*
X205551Y126000D02*
Y139012D01*
Y140980D01*
X239500D01*
X299488Y119551D02*
Y138500D01*
X312500Y119551D02*
Y138500D01*
X299488Y119551D02*
X312500D01*
X297520D02*
X299488D01*
X297520D02*
Y138500D01*
X299488D01*
X312500D01*
X143500Y125551D02*
Y159500D01*
X128520D02*
X130488D01*
X143500D01*
X130488Y125551D02*
Y159500D01*
Y125551D02*
X143500D01*
X128520D02*
X130488D01*
X128520D02*
Y159500D01*
D31*
X598552Y74669D02*
Y83400D01*
X579603Y74669D02*
X598552D01*
X579603D02*
Y83400D01*
X598552D01*
D129*
X123148Y332744D02*
G03*
X123148Y332744I-400J0D01*
G01*
X249400Y52400D02*
Y63600D01*
X254600D01*
Y52400D02*
Y63600D01*
X249400Y52400D02*
X254600D01*
X172400Y61600D02*
X183600D01*
Y56400D02*
Y61600D01*
X172400Y56400D02*
X183600D01*
X172400D02*
Y61600D01*
X123850Y331563D02*
X144000D01*
X123850D02*
Y362300D01*
X144000D01*
Y331563D02*
Y362300D01*
D130*
X140300Y387500D02*
G03*
X140300Y386900I0J-300D01*
G01*
D02*
G03*
X140300Y387500I0J300D01*
G01*
D131*
X168500Y355000D02*
G03*
X168500Y355000I-4000J0D01*
G01*
X13000Y220000D02*
G03*
X13000Y220000I-2000J0D01*
G01*
Y203000D02*
G03*
X13000Y203000I-2000J0D01*
G01*
X29500D02*
G03*
X29500Y203000I-2000J0D01*
G01*
X30000Y220000D02*
G03*
X30000Y220000I-2000J0D01*
G01*
X260000Y133200D02*
Y136200D01*
X258500Y134700D02*
X261500D01*
X264400Y141600D02*
X268900Y146100D01*
X251100D02*
X255600Y141600D01*
X251100D02*
Y159400D01*
X268900D01*
Y141600D02*
Y159400D01*
X251100Y141600D02*
X268900D01*
X317147Y184600D02*
X328350D01*
X317147Y178425D02*
X328350D01*
X207800Y94500D02*
X211114D01*
X207800Y99500D02*
X211114D01*
X207800Y106500D02*
X211114D01*
X207800Y111500D02*
X211114D01*
X208300Y45900D02*
Y57100D01*
X213500D01*
Y45900D02*
Y57100D01*
X208300Y45900D02*
X213500D01*
X34800Y94500D02*
X38114D01*
X34800Y99500D02*
X38114D01*
X127800Y179500D02*
X131114D01*
X127800Y184500D02*
X131114D01*
X127886Y173000D02*
X131200D01*
X127886Y168000D02*
X131200D01*
X99000Y116886D02*
Y120200D01*
X104000Y116886D02*
Y120200D01*
X101386Y148500D02*
X104700D01*
X101386Y143500D02*
X104700D01*
X318886Y85000D02*
X322200D01*
X318886Y90000D02*
X322200D01*
X34800D02*
X38114D01*
X34800Y85000D02*
X38114D01*
X318886Y74000D02*
X322200D01*
X318886Y79000D02*
X322200D01*
X181000Y113386D02*
Y116700D01*
X176000Y113386D02*
Y116700D01*
X174500Y31800D02*
Y35114D01*
X169500Y31800D02*
Y35114D01*
X87000Y91800D02*
Y95114D01*
X82000Y91800D02*
Y95114D01*
X48701Y32201D02*
Y50900D01*
X60300Y32201D02*
Y50900D01*
X184500Y31800D02*
Y35114D01*
X179500Y31800D02*
Y35114D01*
X68800Y71098D02*
X81945D01*
X68900Y81000D02*
X82043D01*
X320535Y166382D02*
X322500D01*
X320535Y164600D02*
X322500D01*
X305535Y177382D02*
X307500D01*
X305535Y175600D02*
X307500D01*
X98000Y42500D02*
Y44500D01*
Y32000D02*
Y34000D01*
X341035Y180583D02*
X343000D01*
X341035Y178801D02*
X343000D01*
X56500Y91800D02*
Y95114D01*
X51500Y91800D02*
Y95114D01*
X159000Y31800D02*
Y35114D01*
X154000Y31800D02*
Y35114D01*
X250000Y106386D02*
Y109700D01*
X255000Y106386D02*
Y109700D01*
X95886Y99500D02*
X99200D01*
X95886Y94500D02*
X99200D01*
X69000Y91800D02*
Y95114D01*
X64000Y91800D02*
Y95114D01*
X148882Y351500D02*
Y353465D01*
X147100Y351500D02*
Y353465D01*
X134535Y328382D02*
X136500D01*
X134535Y326600D02*
X136500D01*
X173500Y343618D02*
X175465D01*
X173500Y345400D02*
X175465D01*
X173500Y363618D02*
X175465D01*
X173500Y365400D02*
X175465D01*
X164500Y353500D02*
X166500D01*
X164500Y352000D02*
Y353500D01*
Y356500D02*
X166500D01*
X164500D02*
Y358000D01*
X162500Y356500D02*
X164500D01*
X162500Y353500D02*
X164500D01*
X162500Y354500D02*
X166500D01*
Y355500D01*
X162500D02*
X166500D01*
X162500Y354500D02*
Y355500D01*
X140200Y385300D02*
X145200Y390300D01*
X105800Y385300D02*
Y424700D01*
X145200D01*
Y385300D02*
Y424700D01*
X105800Y385300D02*
X145200D01*
X228300Y56000D02*
X231614D01*
X228300Y61000D02*
X231614D01*
X322150Y54173D02*
Y57487D01*
X327150Y54173D02*
Y57487D01*
X16886Y100500D02*
X20200D01*
X16886Y95500D02*
X20200D01*
X104000Y158886D02*
Y162200D01*
X109000Y158886D02*
Y162200D01*
X144118Y440535D02*
Y442500D01*
X145900Y440535D02*
Y442500D01*
X70300Y474000D02*
X73614D01*
X70300Y479000D02*
X73614D01*
X53250Y455900D02*
Y459214D01*
X48250Y455900D02*
Y459214D01*
X44000Y455800D02*
Y459114D01*
X39000Y455800D02*
Y459114D01*
X56000Y429800D02*
Y433114D01*
X51000Y429800D02*
Y433114D01*
X48000Y429800D02*
Y433114D01*
X43000Y429800D02*
Y433114D01*
X51000Y406886D02*
Y410200D01*
X56000Y406886D02*
Y410200D01*
X48000Y406800D02*
Y410114D01*
X43000Y406800D02*
Y410114D01*
X56000Y385800D02*
Y389114D01*
X51000Y385800D02*
Y389114D01*
X48500Y385800D02*
Y389114D01*
X43500Y385800D02*
Y389114D01*
X64882Y379500D02*
Y381465D01*
X63100Y379500D02*
Y381465D01*
X51500Y356626D02*
Y359940D01*
X56500Y356626D02*
Y359940D01*
X43500Y356626D02*
Y359940D01*
X48500Y356626D02*
Y359940D01*
X162382Y376000D02*
Y377965D01*
X160600Y376000D02*
Y377965D01*
X179800Y379000D02*
X183114D01*
X179800Y384000D02*
X183114D01*
X149382Y339500D02*
Y341465D01*
X147600Y339500D02*
Y341465D01*
X42800Y216000D02*
X46114D01*
X42800Y221000D02*
X46114D01*
X45035Y201382D02*
X47000D01*
X45035Y199600D02*
X47000D01*
X17500Y221000D02*
X21000Y220000D01*
X21500Y221000D02*
X24500D01*
X14500D02*
X17500D01*
X10500Y206500D02*
Y216500D01*
X28000Y206500D02*
Y216500D01*
X7500Y201500D02*
Y203000D01*
Y220000D02*
Y221500D01*
X31500Y220000D02*
Y221500D01*
Y201500D02*
Y203000D01*
X23500Y223500D02*
X29500D01*
X31500Y221500D01*
X9500Y223500D02*
X15500D01*
X7500Y221500D02*
X9500Y223500D01*
X23500Y199500D02*
X29500D01*
X31500Y201500D01*
X7500D02*
X9500Y199500D01*
X15500D01*
X16386Y90000D02*
X19700D01*
X16386Y85000D02*
X19700D01*
X227800Y45000D02*
X231114D01*
X227800Y50000D02*
X231114D01*
X260000Y89386D02*
Y92700D01*
X265000Y89386D02*
Y92700D01*
X223500Y91386D02*
Y94700D01*
X228500Y91386D02*
Y94700D01*
X313178Y54173D02*
Y57487D01*
X318179Y54173D02*
Y57487D01*
D133*
X22000Y211500D02*
G03*
X22000Y211500I-2500J0D01*
G01*
X14500Y206500D02*
Y216500D01*
Y206500D02*
X24500D01*
Y216500D01*
X14500D02*
X24500D01*
D148*
X593850Y58098D02*
Y61000D01*
X597300Y58098D02*
Y61000D01*
X577000Y33350D02*
X579902D01*
X577000Y36800D02*
X579902D01*
X456394Y33272D02*
Y54800D01*
X480700Y33272D02*
Y54800D01*
X441850Y45098D02*
Y48000D01*
X445300Y45098D02*
Y48000D01*
X551298Y8969D02*
X554200D01*
X551298Y5519D02*
X554200D01*
X307500Y109350D02*
X310402D01*
X307500Y112800D02*
X310402D01*
X281350Y127598D02*
Y130500D01*
X284800Y127598D02*
Y130500D01*
X84902Y428598D02*
Y431500D01*
X90100Y428500D02*
Y431500D01*
X128500Y190402D02*
X131402D01*
X128500Y195600D02*
X131500D01*
X249902Y89830D02*
Y92731D01*
X255100Y89731D02*
Y92731D01*
X94650Y380500D02*
Y383402D01*
X91200Y380500D02*
Y383402D01*
D149*
X255950Y61700D02*
D03*
Y54300D02*
D03*
X248050Y58000D02*
D03*
X214850Y55200D02*
D03*
Y47800D02*
D03*
X206950Y51500D02*
D03*
D150*
X578703Y78922D02*
D03*
D151*
X599438D02*
D03*
D152*
X227550Y123400D02*
D03*
X232550D02*
D03*
X237550D02*
D03*
D153*
Y143539D02*
D03*
X232550D02*
D03*
X227550D02*
D03*
D154*
X207500Y123400D02*
D03*
X212500D02*
D03*
X217500D02*
D03*
D155*
X222518D02*
D03*
D156*
Y143539D02*
D03*
D157*
X217500D02*
D03*
X212500D02*
D03*
X207500D02*
D03*
D158*
X595525Y61800D02*
D03*
X443525Y48800D02*
D03*
X283025Y131300D02*
D03*
X92975Y379700D02*
D03*
D159*
X595526Y57184D02*
D03*
X443526Y44184D02*
D03*
X283026Y126684D02*
D03*
X92975Y384318D02*
D03*
D160*
X576200Y35025D02*
D03*
X555000Y7294D02*
D03*
X306700Y111025D02*
D03*
D161*
X580816Y35025D02*
D03*
X550383Y7294D02*
D03*
X311316Y111025D02*
D03*
D162*
X468549Y53900D02*
D03*
D163*
Y34157D02*
D03*
D164*
X315100Y121500D02*
D03*
Y126500D02*
D03*
D165*
Y131550D02*
D03*
Y136550D02*
D03*
X146100Y147550D02*
D03*
Y152550D02*
D03*
Y157550D02*
D03*
D166*
X294962Y136550D02*
D03*
Y131550D02*
D03*
D167*
Y126500D02*
D03*
Y121500D02*
D03*
D168*
X304500Y205999D02*
D03*
X324500Y205999D02*
D03*
X314500Y205999D02*
D03*
X289000Y206000D02*
D03*
X269000D02*
D03*
X279000D02*
D03*
X62500Y127500D02*
D03*
Y147500D02*
D03*
Y137500D02*
D03*
X52500Y127500D02*
D03*
Y147500D02*
D03*
Y137500D02*
D03*
X24500Y127500D02*
D03*
Y147500D02*
D03*
Y137500D02*
D03*
X14500Y127500D02*
D03*
Y147500D02*
D03*
Y137500D02*
D03*
X176000Y483500D02*
D03*
X196000D02*
D03*
X186000D02*
D03*
X176000Y493500D02*
D03*
X196000D02*
D03*
X186000D02*
D03*
X113000Y485000D02*
D03*
X133000D02*
D03*
X123000D02*
D03*
X113000Y495000D02*
D03*
X133000D02*
D03*
X123000D02*
D03*
D169*
X326487Y185900D02*
D03*
D170*
X322739Y185900D02*
D03*
D171*
X318947D02*
D03*
D172*
Y177169D02*
D03*
D173*
X322739D02*
D03*
D174*
X326487Y177169D02*
D03*
D175*
X267499Y178000D02*
D03*
X277499Y178000D02*
D03*
X287499D02*
D03*
X168353Y94629D02*
D03*
X158353D02*
D03*
X148354Y94629D02*
D03*
X30000Y179500D02*
D03*
X20000D02*
D03*
X10000D02*
D03*
D176*
X181700Y55050D02*
D03*
X174300D02*
D03*
X178000Y62950D02*
D03*
D177*
X212419Y97025D02*
D03*
X212419Y109025D02*
D03*
X39421Y97025D02*
D03*
X132418Y182025D02*
D03*
X126581Y170475D02*
D03*
X100081Y145975D02*
D03*
X317580Y87475D02*
D03*
X39421Y87525D02*
D03*
X317580Y76475D02*
D03*
X94579Y96975D02*
D03*
X232922Y58525D02*
D03*
X15579Y97974D02*
D03*
X74923Y476525D02*
D03*
X184421Y381525D02*
D03*
X47420Y218525D02*
D03*
X15079Y87475D02*
D03*
X232422Y47525D02*
D03*
D178*
X206600Y97025D02*
D03*
Y109025D02*
D03*
X33600Y97025D02*
D03*
X126600Y182025D02*
D03*
X132400Y170475D02*
D03*
X105900Y145975D02*
D03*
X323400Y87475D02*
D03*
X33600Y87525D02*
D03*
X323400Y76475D02*
D03*
X100400Y96975D02*
D03*
X227100Y58525D02*
D03*
X21400Y97975D02*
D03*
X69100Y476525D02*
D03*
X178600Y381525D02*
D03*
X41600Y218525D02*
D03*
X20900Y87475D02*
D03*
X226600Y47525D02*
D03*
D179*
X87525Y432900D02*
D03*
X252525Y94131D02*
D03*
D180*
X87525Y427177D02*
D03*
X252525Y88408D02*
D03*
D181*
X125962Y157550D02*
D03*
Y152550D02*
D03*
Y147550D02*
D03*
D182*
X146100Y127501D02*
D03*
Y132501D02*
D03*
Y137501D02*
D03*
D183*
X146100Y142518D02*
D03*
D184*
X125961Y142518D02*
D03*
D185*
Y137500D02*
D03*
Y132500D02*
D03*
Y127500D02*
D03*
D186*
X101526Y115581D02*
D03*
X178525Y112081D02*
D03*
X171975Y36421D02*
D03*
X84475Y96421D02*
D03*
X181975Y36422D02*
D03*
X53975Y96421D02*
D03*
X156474Y36421D02*
D03*
X252526Y105079D02*
D03*
X66475Y96421D02*
D03*
X324677Y52865D02*
D03*
X106527Y157579D02*
D03*
X50725Y460522D02*
D03*
X41475Y460423D02*
D03*
X53475Y434423D02*
D03*
X45475Y434423D02*
D03*
X53528Y405579D02*
D03*
X45475Y411422D02*
D03*
X53475Y390422D02*
D03*
X45975Y390422D02*
D03*
X54027Y355320D02*
D03*
X46027D02*
D03*
X262526Y88079D02*
D03*
X226027Y90079D02*
D03*
X315707Y52865D02*
D03*
D187*
X101525Y121400D02*
D03*
X178525Y117900D02*
D03*
X171975Y30600D02*
D03*
X84475Y90600D02*
D03*
X181975Y30600D02*
D03*
X53975Y90600D02*
D03*
X156475Y30600D02*
D03*
X252525Y110900D02*
D03*
X66475Y90600D02*
D03*
X324675Y58687D02*
D03*
X106525Y163400D02*
D03*
X50725Y454700D02*
D03*
X41475Y454600D02*
D03*
X53475Y428600D02*
D03*
X45475D02*
D03*
X53525Y411400D02*
D03*
X45475Y405600D02*
D03*
X53475Y384600D02*
D03*
X45975D02*
D03*
X54025Y361140D02*
D03*
X46025D02*
D03*
X262525Y93900D02*
D03*
X226025Y95900D02*
D03*
X315704Y58687D02*
D03*
D188*
X54550Y52500D02*
D03*
D189*
X54551Y30573D02*
D03*
D190*
X67300Y76050D02*
D03*
D191*
X83627D02*
D03*
D192*
X323150Y165500D02*
D03*
X308150Y176500D02*
D03*
X343650Y179701D02*
D03*
X137150Y327500D02*
D03*
X172850Y344500D02*
D03*
Y364500D02*
D03*
X47650Y200500D02*
D03*
D193*
X319909Y165500D02*
D03*
X304909Y176500D02*
D03*
X340409Y179701D02*
D03*
X133909Y327500D02*
D03*
X176092Y344500D02*
D03*
X176092Y364500D02*
D03*
X44409Y200500D02*
D03*
D194*
X127100Y193025D02*
D03*
D195*
X132823Y193025D02*
D03*
D196*
X148000Y350850D02*
D03*
X145000Y443150D02*
D03*
X64000Y378850D02*
D03*
X161500Y375350D02*
D03*
X148500Y338850D02*
D03*
D197*
X147999Y354089D02*
D03*
X145001Y439909D02*
D03*
X64000Y382092D02*
D03*
X161500Y378592D02*
D03*
X148500Y342092D02*
D03*
M02*
