G04*
G04 #@! TF.GenerationSoftware,Altium Limited,Altium Designer,18.0.7 (293)*
G04*
G04 Layer_Color=255*
%FSLAX25Y25*%
%MOIN*%
G70*
G01*
G75*
%ADD22C,0.05600*%
%ADD39C,0.07000*%
%ADD40O,0.06000X0.12000*%
%ADD41O,0.05400X0.10800*%
%ADD42O,0.07800X0.15600*%
%ADD43P,0.05845X8X292.5*%
%ADD44C,0.06299*%
%ADD45P,0.06818X8X202.5*%
%ADD46P,0.10824X8X292.5*%
%ADD47C,0.10000*%
%ADD48P,0.19591X8X202.5*%
%ADD49C,0.18100*%
%ADD50C,0.04800*%
%ADD51C,0.06000*%
%ADD52P,0.05845X8X202.5*%
D22*
X548500Y204500D02*
D03*
X530079D02*
D03*
X14000Y351500D02*
D03*
X24000D02*
D03*
X14000Y361500D02*
D03*
X24000D02*
D03*
X14000Y371500D02*
D03*
X24000D02*
D03*
X14000Y381500D02*
D03*
X24000D02*
D03*
X14000Y391500D02*
D03*
X24000D02*
D03*
X14000Y401500D02*
D03*
X24000D02*
D03*
X14000Y411500D02*
D03*
X24000D02*
D03*
X14000Y421500D02*
D03*
X24000D02*
D03*
X14000Y431500D02*
D03*
X24000D02*
D03*
X14000Y441500D02*
D03*
X24000D02*
D03*
X14500Y248000D02*
D03*
X24500D02*
D03*
X14500Y258000D02*
D03*
X24500D02*
D03*
X14500Y268000D02*
D03*
X24500D02*
D03*
X14500Y278000D02*
D03*
X24500D02*
D03*
X14500Y288000D02*
D03*
X24500D02*
D03*
X14500Y298000D02*
D03*
X24500D02*
D03*
X14500Y308000D02*
D03*
X24500D02*
D03*
D39*
X382500Y10500D02*
D03*
X372500D02*
D03*
X440231Y10966D02*
D03*
X430231D02*
D03*
X413000Y11000D02*
D03*
X403000D02*
D03*
D40*
X217500Y273000D02*
D03*
X136700D02*
D03*
X304500Y206000D02*
D03*
X314500D02*
D03*
X324500D02*
D03*
X289000D02*
D03*
X279000D02*
D03*
X269000D02*
D03*
X28400Y198700D02*
D03*
X10600D02*
D03*
X28400Y224300D02*
D03*
X10600D02*
D03*
D41*
X267500Y178000D02*
D03*
X277500D02*
D03*
X287500D02*
D03*
X168353Y94629D02*
D03*
X158353D02*
D03*
X148353D02*
D03*
X30000Y179500D02*
D03*
X20000D02*
D03*
X10000D02*
D03*
D42*
X398200Y202500D02*
D03*
X428700Y203000D02*
D03*
X458718Y203500D02*
D03*
X489118D02*
D03*
D43*
X52500Y127500D02*
D03*
X62500D02*
D03*
X52500Y137500D02*
D03*
X62500D02*
D03*
X52500Y147500D02*
D03*
X62500D02*
D03*
X14500Y127500D02*
D03*
X24500D02*
D03*
X14500Y137500D02*
D03*
X24500D02*
D03*
X14500Y147500D02*
D03*
X24500D02*
D03*
D44*
X22000Y48421D02*
D03*
Y30000D02*
D03*
D45*
X144800Y9600D02*
D03*
X154600D02*
D03*
X164618D02*
D03*
X192300D02*
D03*
X202100D02*
D03*
X212118D02*
D03*
D46*
X98000Y28000D02*
D03*
D47*
Y48000D02*
D03*
D48*
X493552Y127499D02*
D03*
X410151Y117000D02*
D03*
D49*
X533553Y127499D02*
D03*
X370151Y117000D02*
D03*
D50*
X164500Y360000D02*
D03*
Y350000D02*
D03*
D51*
X49000Y209500D02*
D03*
X152500Y377500D02*
D03*
X156500Y340000D02*
D03*
X173500Y353000D02*
D03*
D52*
X176000Y493500D02*
D03*
Y483500D02*
D03*
X186000Y493500D02*
D03*
Y483500D02*
D03*
X196000Y493500D02*
D03*
Y483500D02*
D03*
X113000Y495000D02*
D03*
Y485000D02*
D03*
X123000Y495000D02*
D03*
Y485000D02*
D03*
X133000Y495000D02*
D03*
Y485000D02*
D03*
M02*
