G04*
G04 #@! TF.GenerationSoftware,Altium Limited,Altium Designer,18.0.7 (293)*
G04*
G04 Layer_Color=255*
%FSLAX25Y25*%
%MOIN*%
G70*
G01*
G75*
%ADD22C,0.05600*%
%ADD39C,0.07000*%
%ADD40O,0.06000X0.12000*%
%ADD41O,0.05400X0.10800*%
%ADD42O,0.07800X0.15600*%
%ADD43P,0.05845X8X292.5*%
%ADD44C,0.06299*%
%ADD45P,0.06818X8X202.5*%
%ADD46P,0.10824X8X292.5*%
%ADD47C,0.10000*%
%ADD48P,0.19591X8X202.5*%
%ADD49C,0.18100*%
%ADD50C,0.04800*%
%ADD51C,0.06000*%
%ADD52P,0.05845X8X202.5*%
%ADD58C,0.02756*%
%ADD59R,0.03000X0.09700*%
%ADD60R,0.05600X0.04000*%
%ADD61R,0.06000X0.02520*%
%ADD62R,0.06000X0.11811*%
%ADD63R,0.05118X0.03937*%
%ADD64R,0.07100X0.08700*%
%ADD65R,0.02400X0.08700*%
%ADD66R,0.04000X0.04400*%
%ADD67R,0.04400X0.04000*%
%ADD68R,0.11417X0.21260*%
%ADD69R,0.26800X0.07300*%
%ADD70R,0.03937X0.05118*%
%ADD71R,0.08700X0.02400*%
%ADD72R,0.02400X0.03600*%
%ADD73R,0.04000X0.05600*%
%ADD74R,0.05200X0.06000*%
G04:AMPARAMS|DCode=75|XSize=39.37mil|YSize=39.37mil|CornerRadius=19.68mil|HoleSize=0mil|Usage=FLASHONLY|Rotation=270.000|XOffset=0mil|YOffset=0mil|HoleType=Round|Shape=RoundedRectangle|*
%AMROUNDEDRECTD75*
21,1,0.03937,0.00000,0,0,270.0*
21,1,0.00000,0.03937,0,0,270.0*
1,1,0.03937,0.00000,0.00000*
1,1,0.03937,0.00000,0.00000*
1,1,0.03937,0.00000,0.00000*
1,1,0.03937,0.00000,0.00000*
%
%ADD75ROUNDEDRECTD75*%
%ADD76R,0.06000X0.05200*%
%ADD77R,0.12600X0.07100*%
%ADD78R,0.07100X0.10700*%
%ADD79R,0.02800X0.03600*%
%ADD80R,0.07500X0.07500*%
%ADD81R,0.07100X0.07500*%
%ADD82R,0.08300X0.06300*%
%ADD83R,0.01600X0.05400*%
%ADD84R,0.03600X0.02800*%
%ADD85R,0.04800X0.07100*%
%ADD86R,0.01200X0.04700*%
%ADD87R,0.04700X0.01200*%
%ADD88R,0.04331X0.05512*%
%ADD89R,0.01181X0.01968*%
%ADD90R,0.02800X0.02400*%
D22*
X548500Y204500D02*
D03*
X530079D02*
D03*
X14000Y351500D02*
D03*
X24000D02*
D03*
X14000Y361500D02*
D03*
X24000D02*
D03*
X14000Y371500D02*
D03*
X24000D02*
D03*
X14000Y381500D02*
D03*
X24000D02*
D03*
X14000Y391500D02*
D03*
X24000D02*
D03*
X14000Y401500D02*
D03*
X24000D02*
D03*
X14000Y411500D02*
D03*
X24000D02*
D03*
X14000Y421500D02*
D03*
X24000D02*
D03*
X14000Y431500D02*
D03*
X24000D02*
D03*
X14000Y441500D02*
D03*
X24000D02*
D03*
X14500Y248000D02*
D03*
X24500D02*
D03*
X14500Y258000D02*
D03*
X24500D02*
D03*
X14500Y268000D02*
D03*
X24500D02*
D03*
X14500Y278000D02*
D03*
X24500D02*
D03*
X14500Y288000D02*
D03*
X24500D02*
D03*
X14500Y298000D02*
D03*
X24500D02*
D03*
X14500Y308000D02*
D03*
X24500D02*
D03*
D39*
X382500Y10500D02*
D03*
X372500D02*
D03*
X440231Y10966D02*
D03*
X430231D02*
D03*
X413000Y11000D02*
D03*
X403000D02*
D03*
D40*
X217500Y273000D02*
D03*
X136700D02*
D03*
X304500Y206000D02*
D03*
X314500D02*
D03*
X324500D02*
D03*
X289000D02*
D03*
X279000D02*
D03*
X269000D02*
D03*
X28400Y198700D02*
D03*
X10600D02*
D03*
X28400Y224300D02*
D03*
X10600D02*
D03*
D41*
X267500Y178000D02*
D03*
X277500D02*
D03*
X287500D02*
D03*
X168353Y94629D02*
D03*
X158353D02*
D03*
X148353D02*
D03*
X30000Y179500D02*
D03*
X20000D02*
D03*
X10000D02*
D03*
D42*
X398200Y202500D02*
D03*
X428700Y203000D02*
D03*
X458718Y203500D02*
D03*
X489118D02*
D03*
D43*
X52500Y127500D02*
D03*
X62500D02*
D03*
X52500Y137500D02*
D03*
X62500D02*
D03*
X52500Y147500D02*
D03*
X62500D02*
D03*
X14500Y127500D02*
D03*
X24500D02*
D03*
X14500Y137500D02*
D03*
X24500D02*
D03*
X14500Y147500D02*
D03*
X24500D02*
D03*
D44*
X22000Y48421D02*
D03*
Y30000D02*
D03*
D45*
X144800Y9600D02*
D03*
X154600D02*
D03*
X164618D02*
D03*
X192300D02*
D03*
X202100D02*
D03*
X212118D02*
D03*
D46*
X98000Y28000D02*
D03*
D47*
Y48000D02*
D03*
D48*
X493552Y127499D02*
D03*
X410151Y117000D02*
D03*
D49*
X533553Y127499D02*
D03*
X370151Y117000D02*
D03*
D50*
X164500Y360000D02*
D03*
Y350000D02*
D03*
D51*
X49000Y209500D02*
D03*
X152500Y377500D02*
D03*
X156500Y340000D02*
D03*
X173500Y353000D02*
D03*
D52*
X176000Y493500D02*
D03*
Y483500D02*
D03*
X186000Y493500D02*
D03*
Y483500D02*
D03*
X196000Y493500D02*
D03*
Y483500D02*
D03*
X113000Y495000D02*
D03*
Y485000D02*
D03*
X123000Y495000D02*
D03*
Y485000D02*
D03*
X133000Y495000D02*
D03*
Y485000D02*
D03*
D58*
X134819Y222500D02*
D03*
X169000Y369500D02*
D03*
X172000Y379000D02*
D03*
X178413Y389500D02*
D03*
X177913Y397500D02*
D03*
X169500Y402500D02*
D03*
D59*
X260000Y143900D02*
D03*
Y157100D02*
D03*
D60*
X256331Y61740D02*
D03*
Y54200D02*
D03*
X247600Y58000D02*
D03*
X215231Y55240D02*
D03*
Y47700D02*
D03*
X206500Y51500D02*
D03*
D61*
X567000Y46498D02*
D03*
Y51498D02*
D03*
Y61498D02*
D03*
Y56498D02*
D03*
X586000D02*
D03*
Y61498D02*
D03*
Y51498D02*
D03*
Y46498D02*
D03*
D62*
X577000Y53998D02*
D03*
D63*
X407500Y32850D02*
D03*
Y39150D02*
D03*
X376500Y33350D02*
D03*
Y39650D02*
D03*
X427000Y39150D02*
D03*
Y32850D02*
D03*
D64*
X579003Y79000D02*
D03*
X599143D02*
D03*
D65*
X237500Y123200D02*
D03*
X227500D02*
D03*
X237500Y143736D02*
D03*
X227500D02*
D03*
X232500Y123200D02*
D03*
Y143736D02*
D03*
X222500Y123200D02*
D03*
X217500D02*
D03*
X207500D02*
D03*
X222500Y143736D02*
D03*
X217500D02*
D03*
X207500D02*
D03*
X212500Y123200D02*
D03*
Y143736D02*
D03*
D66*
X595500Y62900D02*
D03*
Y56154D02*
D03*
X443500Y49900D02*
D03*
Y43154D02*
D03*
X283000Y132400D02*
D03*
Y125654D02*
D03*
X93000Y378600D02*
D03*
Y385347D02*
D03*
D67*
X575100Y35000D02*
D03*
X581847D02*
D03*
X556100Y7319D02*
D03*
X549354D02*
D03*
X305600Y111000D02*
D03*
X312347D02*
D03*
D68*
X545000Y37000D02*
D03*
X505500D02*
D03*
D69*
X468500Y54100D02*
D03*
Y33961D02*
D03*
D70*
X563550Y7319D02*
D03*
X569850D02*
D03*
D71*
X315300Y136500D02*
D03*
Y131500D02*
D03*
Y121500D02*
D03*
X294764Y136500D02*
D03*
Y131500D02*
D03*
Y121500D02*
D03*
X315300Y126500D02*
D03*
X294764D02*
D03*
X146300Y157500D02*
D03*
Y147500D02*
D03*
X125764Y157500D02*
D03*
Y147500D02*
D03*
X146300Y152500D02*
D03*
X125764D02*
D03*
X146300Y142500D02*
D03*
Y137500D02*
D03*
Y127500D02*
D03*
X125764Y142500D02*
D03*
Y137500D02*
D03*
Y127500D02*
D03*
X146300Y132500D02*
D03*
X125764D02*
D03*
D72*
X326487Y186100D02*
D03*
X322747D02*
D03*
X318947D02*
D03*
Y176972D02*
D03*
X322747D02*
D03*
X326487D02*
D03*
D73*
X181740Y54669D02*
D03*
X174200D02*
D03*
X178000Y63400D02*
D03*
D74*
X205700Y97000D02*
D03*
X213240D02*
D03*
X205700Y109000D02*
D03*
X213240D02*
D03*
X32700Y97000D02*
D03*
X40240D02*
D03*
X125700Y182000D02*
D03*
X133240D02*
D03*
X133300Y170500D02*
D03*
X125760D02*
D03*
X106800Y146000D02*
D03*
X99260D02*
D03*
X316760Y87500D02*
D03*
X324300D02*
D03*
X40240D02*
D03*
X32700D02*
D03*
X316760Y76500D02*
D03*
X324300D02*
D03*
X126200Y193000D02*
D03*
X133740D02*
D03*
X101300Y97000D02*
D03*
X93760D02*
D03*
X226200Y58500D02*
D03*
X233740D02*
D03*
X22300Y98000D02*
D03*
X14760D02*
D03*
X68200Y476500D02*
D03*
X75740D02*
D03*
X177700Y381500D02*
D03*
X185240D02*
D03*
X40700Y218500D02*
D03*
X48240D02*
D03*
X21800Y87500D02*
D03*
X14260D02*
D03*
X225700Y47500D02*
D03*
X233240D02*
D03*
D75*
X321000Y106000D02*
D03*
X160000Y109500D02*
D03*
X124500D02*
D03*
X305000Y78000D02*
D03*
X197000Y143500D02*
D03*
X82500Y110500D02*
D03*
X307247Y188000D02*
D03*
X225500Y79000D02*
D03*
X90000Y142000D02*
D03*
X216000Y66000D02*
D03*
X55000Y78500D02*
D03*
X237000Y155500D02*
D03*
X221500Y13500D02*
D03*
X217500Y36500D02*
D03*
X101500Y131500D02*
D03*
X113000Y174000D02*
D03*
X234501Y100000D02*
D03*
X162500Y45869D02*
D03*
X154000Y68000D02*
D03*
X133500Y18500D02*
D03*
D76*
X87500Y433800D02*
D03*
Y426260D02*
D03*
X101500Y122300D02*
D03*
Y114760D02*
D03*
X178500Y111260D02*
D03*
Y118800D02*
D03*
X172000Y29700D02*
D03*
Y37240D02*
D03*
X84500Y89700D02*
D03*
Y97240D02*
D03*
X182000Y29700D02*
D03*
Y37240D02*
D03*
X252500Y95031D02*
D03*
Y87491D02*
D03*
X54000Y89700D02*
D03*
Y97240D02*
D03*
X156500Y29700D02*
D03*
Y37240D02*
D03*
X252500Y111800D02*
D03*
Y104260D02*
D03*
X66500Y89700D02*
D03*
Y97240D02*
D03*
X324650Y59587D02*
D03*
Y52047D02*
D03*
X106500Y164300D02*
D03*
Y156760D02*
D03*
X50750Y453800D02*
D03*
Y461340D02*
D03*
X41500Y453700D02*
D03*
Y461240D02*
D03*
X53500Y427700D02*
D03*
Y435240D02*
D03*
X45500Y427700D02*
D03*
Y435240D02*
D03*
X53500Y412300D02*
D03*
Y404760D02*
D03*
X45500Y404700D02*
D03*
Y412240D02*
D03*
X53500Y383700D02*
D03*
Y391240D02*
D03*
X46000Y383700D02*
D03*
Y391240D02*
D03*
X54000Y362040D02*
D03*
Y354500D02*
D03*
X46000Y362040D02*
D03*
Y354500D02*
D03*
X262500Y94800D02*
D03*
Y87260D02*
D03*
X226000Y96800D02*
D03*
Y89260D02*
D03*
X315679Y59587D02*
D03*
Y52047D02*
D03*
D77*
X54500Y52600D02*
D03*
Y30476D02*
D03*
D78*
X66800Y76000D02*
D03*
X84161D02*
D03*
D79*
X324100Y165500D02*
D03*
X318941D02*
D03*
X309100Y176500D02*
D03*
X303941D02*
D03*
X344600Y179701D02*
D03*
X339441D02*
D03*
X138100Y327500D02*
D03*
X132941D02*
D03*
X171900Y344500D02*
D03*
X177059D02*
D03*
X171900Y364500D02*
D03*
X177059D02*
D03*
X48600Y200500D02*
D03*
X43441D02*
D03*
D80*
X48300Y495689D02*
D03*
X38776D02*
D03*
D81*
X59300D02*
D03*
X27752D02*
D03*
D82*
X55800Y485650D02*
D03*
X31295D02*
D03*
D83*
X48700Y485177D02*
D03*
X46100D02*
D03*
X43500D02*
D03*
X40980D02*
D03*
X38382D02*
D03*
D84*
X148000Y349900D02*
D03*
Y355059D02*
D03*
X145000Y444100D02*
D03*
Y438941D02*
D03*
X64000Y377900D02*
D03*
Y383059D02*
D03*
X161500Y374400D02*
D03*
Y379559D02*
D03*
D85*
X138900Y354800D02*
D03*
Y339100D02*
D03*
X129400Y354800D02*
D03*
Y339100D02*
D03*
D86*
X140300Y382362D02*
D03*
X138300D02*
D03*
X136400D02*
D03*
X134400D02*
D03*
X132400D02*
D03*
X130500D02*
D03*
X128500D02*
D03*
X126500D02*
D03*
X124516D02*
D03*
X122547D02*
D03*
X120579D02*
D03*
X118610D02*
D03*
X116642D02*
D03*
X114673D02*
D03*
X112705D02*
D03*
X110736D02*
D03*
Y427700D02*
D03*
X112705D02*
D03*
X114673D02*
D03*
X116642D02*
D03*
X118610D02*
D03*
X120579D02*
D03*
X122547D02*
D03*
X124516D02*
D03*
X126500D02*
D03*
X128500D02*
D03*
X130500D02*
D03*
X132400D02*
D03*
X134400D02*
D03*
X136400D02*
D03*
X138300D02*
D03*
X140300D02*
D03*
D87*
X102862Y390236D02*
D03*
Y392205D02*
D03*
Y394173D02*
D03*
Y396142D02*
D03*
Y398110D02*
D03*
Y400079D02*
D03*
Y402047D02*
D03*
Y404016D02*
D03*
Y406000D02*
D03*
Y408000D02*
D03*
Y410000D02*
D03*
Y411900D02*
D03*
Y413900D02*
D03*
Y415900D02*
D03*
Y417800D02*
D03*
Y419800D02*
D03*
X148200D02*
D03*
Y417800D02*
D03*
Y415900D02*
D03*
Y413900D02*
D03*
Y411900D02*
D03*
Y410000D02*
D03*
Y408000D02*
D03*
Y406000D02*
D03*
Y404016D02*
D03*
Y402047D02*
D03*
Y400079D02*
D03*
Y398110D02*
D03*
Y396142D02*
D03*
Y394173D02*
D03*
Y392205D02*
D03*
Y390236D02*
D03*
D88*
X69047Y487000D02*
D03*
X74953D02*
D03*
D89*
X24000Y469622D02*
D03*
Y472378D02*
D03*
D90*
X148500Y338500D02*
D03*
Y342469D02*
D03*
M02*
