G04*
G04 #@! TF.GenerationSoftware,Altium Limited,Altium Designer,18.0.7 (293)*
G04*
G04 Layer_Color=8388736*
%FSLAX25Y25*%
%MOIN*%
G70*
G01*
G75*
%ADD138R,0.02381X0.01587*%
%ADD139R,0.01587X0.02381*%
%ADD140R,0.01587X0.03969*%
%ADD141R,0.03175X0.00794*%
%ADD142R,0.03969X0.01587*%
%ADD143R,0.07937X0.03969*%
%ADD144R,0.00794X0.03175*%
%ADD145R,0.02778X0.01587*%
D138*
X595509Y59506D02*
D03*
X443509Y46507D02*
D03*
X283009Y129007D02*
D03*
X147991Y352494D02*
D03*
X92991Y381994D02*
D03*
X145010Y441506D02*
D03*
X63991Y380493D02*
D03*
X161490Y376993D02*
D03*
D139*
X578493Y35009D02*
D03*
X552706Y7309D02*
D03*
X308994Y111009D02*
D03*
X321507Y165491D02*
D03*
X306506Y176491D02*
D03*
X342006Y179692D02*
D03*
X135506Y327491D02*
D03*
X174494Y344509D02*
D03*
Y364509D02*
D03*
X46007Y200490D02*
D03*
D140*
X209493Y97016D02*
D03*
Y109016D02*
D03*
X36494Y97016D02*
D03*
X129493Y182016D02*
D03*
X129507Y170484D02*
D03*
X103006Y145984D02*
D03*
X320507Y87485D02*
D03*
X36494Y87515D02*
D03*
X320507Y76485D02*
D03*
X97506Y96984D02*
D03*
X229994Y58516D02*
D03*
X18507Y97984D02*
D03*
X71993Y476515D02*
D03*
X181493Y381516D02*
D03*
X44493Y218515D02*
D03*
X18007Y87485D02*
D03*
X229493Y47515D02*
D03*
D141*
X87512Y430003D02*
D03*
X252512Y91234D02*
D03*
D142*
X101515Y118507D02*
D03*
X178516Y115006D02*
D03*
X171985Y33494D02*
D03*
X84484Y93493D02*
D03*
X181984Y33494D02*
D03*
X53984Y93493D02*
D03*
X156484Y33494D02*
D03*
X252516Y108007D02*
D03*
X66484Y93493D02*
D03*
X324665Y55793D02*
D03*
X106516Y160506D02*
D03*
X50735Y457593D02*
D03*
X41484Y457493D02*
D03*
X53484Y431494D02*
D03*
X45485D02*
D03*
X53515Y408506D02*
D03*
X45485Y408494D02*
D03*
X53484Y387493D02*
D03*
X45985D02*
D03*
X54015Y358247D02*
D03*
X46016D02*
D03*
X262515Y91006D02*
D03*
X226015Y93006D02*
D03*
X315694Y55793D02*
D03*
D143*
X54532Y41516D02*
D03*
D144*
X129997Y193012D02*
D03*
D145*
X148489Y340493D02*
D03*
M02*
