G04*
G04 #@! TF.GenerationSoftware,Altium Limited,Altium Designer,18.0.7 (293)*
G04*
G04 Layer_Color=8388736*
%FSLAX25Y25*%
%MOIN*%
G70*
G01*
G75*
%ADD10C,0.07800*%
%ADD11O,0.06800X0.12800*%
%ADD12O,0.06200X0.11600*%
%ADD13C,0.06400*%
%ADD14O,0.08600X0.16400*%
%ADD15P,0.06711X8X292.5*%
%ADD16C,0.07099*%
%ADD17P,0.07684X8X202.5*%
%ADD18P,0.11690X8X292.5*%
%ADD19C,0.10800*%
%ADD20P,0.20457X8X202.5*%
%ADD21C,0.18900*%
%ADD22C,0.05600*%
%ADD23C,0.06800*%
%ADD24P,0.06711X8X202.5*%
%ADD25C,0.03162*%
%ADD26C,0.05524*%
%ADD27C,0.05800*%
%ADD28C,0.16548*%
%ADD29C,0.02375*%
D10*
X382500Y10500D02*
D03*
X372500D02*
D03*
X440231Y10966D02*
D03*
X430231D02*
D03*
X413000Y11000D02*
D03*
X403000D02*
D03*
D11*
X217500Y273000D02*
D03*
X136700D02*
D03*
X304500Y206000D02*
D03*
X314500D02*
D03*
X324500D02*
D03*
X289000D02*
D03*
X279000D02*
D03*
X269000D02*
D03*
X28400Y198700D02*
D03*
X10600D02*
D03*
X28400Y224300D02*
D03*
X10600D02*
D03*
D12*
X267500Y178000D02*
D03*
X277500D02*
D03*
X287500D02*
D03*
X168353Y94629D02*
D03*
X158353D02*
D03*
X148353D02*
D03*
X30000Y179500D02*
D03*
X20000D02*
D03*
X10000D02*
D03*
D13*
X548500Y204500D02*
D03*
X530079D02*
D03*
X14000Y351500D02*
D03*
X24000D02*
D03*
X14000Y361500D02*
D03*
X24000D02*
D03*
X14000Y371500D02*
D03*
X24000D02*
D03*
X14000Y381500D02*
D03*
X24000D02*
D03*
X14000Y391500D02*
D03*
X24000D02*
D03*
X14000Y401500D02*
D03*
X24000D02*
D03*
X14000Y411500D02*
D03*
X24000D02*
D03*
X14000Y421500D02*
D03*
X24000D02*
D03*
X14000Y431500D02*
D03*
X24000D02*
D03*
X14000Y441500D02*
D03*
X24000D02*
D03*
X14500Y248000D02*
D03*
X24500D02*
D03*
X14500Y258000D02*
D03*
X24500D02*
D03*
X14500Y268000D02*
D03*
X24500D02*
D03*
X14500Y278000D02*
D03*
X24500D02*
D03*
X14500Y288000D02*
D03*
X24500D02*
D03*
X14500Y298000D02*
D03*
X24500D02*
D03*
X14500Y308000D02*
D03*
X24500D02*
D03*
D14*
X398200Y202500D02*
D03*
X428700Y203000D02*
D03*
X458718Y203500D02*
D03*
X489118D02*
D03*
D15*
X52500Y127500D02*
D03*
X62500D02*
D03*
X52500Y137500D02*
D03*
X62500D02*
D03*
X52500Y147500D02*
D03*
X62500D02*
D03*
X14500Y127500D02*
D03*
X24500D02*
D03*
X14500Y137500D02*
D03*
X24500D02*
D03*
X14500Y147500D02*
D03*
X24500D02*
D03*
D16*
X22000Y48421D02*
D03*
Y30000D02*
D03*
D17*
X144800Y9600D02*
D03*
X154600D02*
D03*
X164618D02*
D03*
X192300D02*
D03*
X202100D02*
D03*
X212118D02*
D03*
D18*
X98000Y28000D02*
D03*
D19*
Y48000D02*
D03*
D20*
X493552Y127499D02*
D03*
X410151Y117000D02*
D03*
D21*
X533553Y127499D02*
D03*
X370151Y117000D02*
D03*
D22*
X164500Y360000D02*
D03*
Y350000D02*
D03*
D23*
X49000Y209500D02*
D03*
X152500Y377500D02*
D03*
X156500Y340000D02*
D03*
X173500Y353000D02*
D03*
D24*
X176000Y493500D02*
D03*
Y483500D02*
D03*
X186000Y493500D02*
D03*
Y483500D02*
D03*
X196000Y493500D02*
D03*
Y483500D02*
D03*
X113000Y495000D02*
D03*
Y485000D02*
D03*
X123000Y495000D02*
D03*
Y485000D02*
D03*
X133000Y495000D02*
D03*
Y485000D02*
D03*
D25*
X362500Y189500D02*
D03*
X284500Y192500D02*
D03*
X233825Y189175D02*
D03*
X325000Y137500D02*
D03*
X347500Y115000D02*
D03*
X347499Y94554D02*
D03*
X396136Y94000D02*
D03*
X346000Y84000D02*
D03*
X396000D02*
D03*
X388500Y136500D02*
D03*
X299500Y142000D02*
D03*
X308500Y140500D02*
D03*
X243500Y173000D02*
D03*
X160000Y141000D02*
D03*
X167000D02*
D03*
X149500Y189000D02*
D03*
X149000Y207000D02*
D03*
X156000Y136500D02*
D03*
X152000Y113500D02*
D03*
X43500Y192500D02*
D03*
X71500Y197000D02*
D03*
X181500Y189000D02*
D03*
X74500Y160000D02*
D03*
X47500Y157000D02*
D03*
X85000Y142000D02*
D03*
X200000Y259500D02*
D03*
X146638Y263000D02*
D03*
X95000Y263000D02*
D03*
X57527Y222527D02*
D03*
X33000Y118000D02*
D03*
X195500Y260500D02*
D03*
X55000Y252500D02*
D03*
X59622Y224622D02*
D03*
X61716Y226716D02*
D03*
X93500Y417500D02*
D03*
X89500Y418000D02*
D03*
X90000Y409000D02*
D03*
X87000Y407000D02*
D03*
X91000Y399500D02*
D03*
X87000Y401500D02*
D03*
X63811Y228811D02*
D03*
X65905Y230905D02*
D03*
X68000Y233000D02*
D03*
X100000Y260500D02*
D03*
X108000D02*
D03*
X83500Y329000D02*
D03*
X121800D02*
D03*
X122119Y351500D02*
D03*
X142000Y368500D02*
D03*
X86000Y312000D02*
D03*
X123900Y311600D02*
D03*
X80500Y316500D02*
D03*
X88000Y412500D02*
D03*
X159500Y131500D02*
D03*
X166500D02*
D03*
X179000Y199000D02*
D03*
X222500Y201000D02*
D03*
X168500Y220000D02*
D03*
X225000Y131000D02*
D03*
X234500Y133500D02*
D03*
X160500Y121000D02*
D03*
X374000Y151000D02*
D03*
X238000Y196500D02*
D03*
X181500Y194500D02*
D03*
Y172000D02*
D03*
X196000Y176500D02*
D03*
X240500Y177500D02*
D03*
X240000Y182000D02*
D03*
X191000Y181000D02*
D03*
X378000Y133000D02*
D03*
X366500Y144500D02*
D03*
X332500Y151000D02*
D03*
X287000D02*
D03*
X332500Y158000D02*
D03*
X287000D02*
D03*
X143500Y481500D02*
D03*
X142000Y457500D02*
D03*
X382000Y136500D02*
D03*
X332500Y154500D02*
D03*
X287000D02*
D03*
X370500Y148000D02*
D03*
X139500Y480500D02*
D03*
X140500Y461500D02*
D03*
X175500Y210500D02*
D03*
X192500Y213500D02*
D03*
X236500Y168000D02*
D03*
X229500Y167000D02*
D03*
X592998Y46498D02*
D03*
X225000Y36000D02*
D03*
X137500Y38000D02*
D03*
X90000Y129000D02*
D03*
X109500Y125500D02*
D03*
X162500Y69000D02*
D03*
X277000Y78500D02*
D03*
X278000Y92000D02*
D03*
X218500Y133500D02*
D03*
X164000Y216000D02*
D03*
X48000Y290000D02*
D03*
X47500Y295000D02*
D03*
X67319Y404016D02*
D03*
X70000Y458500D02*
D03*
X74000Y461500D02*
D03*
X78500Y464500D02*
D03*
X83000Y466500D02*
D03*
X95500Y474000D02*
D03*
X113500Y281000D02*
D03*
X76500Y275000D02*
D03*
X79000Y278000D02*
D03*
X83000Y279500D02*
D03*
X86000Y282500D02*
D03*
X52500Y472000D02*
D03*
X19500Y471500D02*
D03*
X87500Y468000D02*
D03*
X79000Y389500D02*
D03*
X91500Y471000D02*
D03*
X81500Y393500D02*
D03*
X170000Y462500D02*
D03*
X100500Y476000D02*
D03*
X83500Y384500D02*
D03*
X105000Y478000D02*
D03*
X123500Y465000D02*
D03*
X131000Y463000D02*
D03*
X127000Y462500D02*
D03*
X164000Y466500D02*
D03*
X88000Y440000D02*
D03*
X115877Y278623D02*
D03*
X118255Y276245D02*
D03*
X120632Y273868D02*
D03*
X150000Y263000D02*
D03*
X98181Y268681D02*
D03*
X91500Y268000D02*
D03*
X86500Y364500D02*
D03*
X146500Y366000D02*
D03*
X125500Y348000D02*
D03*
X49000Y284000D02*
D03*
X138500Y452000D02*
D03*
X119500Y479500D02*
D03*
X104500Y484500D02*
D03*
X65500Y457792D02*
D03*
X61000Y415000D02*
D03*
X207000Y361500D02*
D03*
X163500Y368500D02*
D03*
X150000Y439000D02*
D03*
X191000Y323500D02*
D03*
X62000Y324500D02*
D03*
Y368000D02*
D03*
X59000Y378500D02*
D03*
X38500Y405000D02*
D03*
X40000Y428000D02*
D03*
X202500Y315500D02*
D03*
X50000Y230500D02*
D03*
X144000Y347500D02*
D03*
X130000Y346000D02*
D03*
X109000Y411500D02*
D03*
X116500Y412000D02*
D03*
X95000Y429500D02*
D03*
X100500Y432500D02*
D03*
X96000Y435000D02*
D03*
X150000Y450000D02*
D03*
X146000D02*
D03*
X94500Y374000D02*
D03*
X62000Y436000D02*
D03*
X62500Y432500D02*
D03*
X62000Y429000D02*
D03*
X33500Y393000D02*
D03*
X216000Y476000D02*
D03*
D26*
X211000Y453000D02*
D03*
X210500Y409500D02*
D03*
D27*
X154500Y221500D02*
D03*
D28*
X592000Y208500D02*
D03*
X591000Y11500D02*
D03*
X12000Y12000D02*
D03*
X222000Y230485D02*
D03*
X12000Y490500D02*
D03*
X221500D02*
D03*
D29*
X138000Y409500D02*
D03*
M02*
