M48
;Layer_Color=9474304
;FILE_FORMAT=2:5
INCH,LZ
;TYPE=PLATED
T1F00S00C0.01181
T2F00S00C0.02362
T3F00S00C0.02800
T4F00S00C0.03000
T5F00S00C0.03200
T6F00S00C0.03600
T7F00S00C0.04000
T8F00S00C0.04724
T9F00S00C0.05000
T10F00S00C0.05200
T11F00S00C0.07874
T12F00S00C0.07900
%
T01
X01375Y0038
X0225Y0036
X0592998Y0046498
X0396Y0084
X0396136Y0094
X03885Y01365
X0382
X0378Y0133
X0374Y0151
X03705Y0148
X03665Y01445
X03325Y0151
Y01545
Y0158
X0325Y01375
X03085Y01405
X02995Y0142
X0287Y0151
Y01545
Y0158
X02845Y01925
X0238Y01965
X0233825Y0189175
X024Y0182
X02405Y01775
X02435Y0173
X02365Y0168
X02295Y0167
X02345Y01335
X0225Y0131
X02185Y01335
X02225Y0201
X03625Y01895
X03475Y0115
X0347499Y0094554
X0346Y0084
X0277Y00785
X0278Y0092
X01625Y0069
X01605Y0121
X01595Y01315
X01665
X0167Y0141
X016
X0156Y01365
X0152Y01135
X01095Y01255
X009Y0129
X0085Y0142
X00745Y016
X00715Y0197
X01495Y0189
X0149Y0207
X01755Y02105
X0179Y0199
X01815Y01945
Y0189
Y0172
X0191Y0181
X0196Y01765
X00475Y0157
X00435Y01925
X0033Y0118
X005Y02305
X0055Y02525
X0049Y0284
X0048Y029
X00475Y0295
X0062Y03245
X00835Y0329
X00805Y03165
X0086Y0312
Y02825
X0083Y02795
X0079Y0278
X00765Y0275
X00915Y0268
X0098181Y0268681
X0095Y0263
X01Y02605
X0108
X01135Y0281
X0115877Y0278623
X0118255Y0276245
X0120632Y0273868
X0146638Y0263
X015
X01955Y02605
X02Y02595
X01925Y02135
X01685Y022
X0164Y0216
X0057527Y0222527
X0059622Y0224622
X0061716Y0226716
X0063811Y0228811
X0065905Y0230905
X0068Y0233
X01239Y03116
X01218Y0329
X01255Y0348
X013Y0346
X0122119Y03515
X0144Y03475
X01465Y0366
X0142Y03685
X01635
X0207Y03615
X02025Y03155
X0191Y03235
X00865Y03645
X0062Y0368
X0216Y0476
X017Y04625
X0164Y04665
X01405Y04615
X0142Y04575
X01385Y0452
X0146Y045
X015
Y0439
X0138Y04095
X01165Y0412
X0109Y04115
X00935Y04175
X00895Y0418
X0088Y04125
X009Y0409
X0087Y0407
Y04015
X0091Y03995
X00815Y03935
X0079Y03895
X00835Y03845
X00945Y0374
X0059Y03785
X0067319Y0404016
X0061Y0415
X0062Y0429
X00625Y04325
X0062Y0436
X00655Y0457792
X007Y04585
X0074Y04615
X00785Y04645
X0083Y04665
X00875Y0468
X00915Y0471
X00955Y0474
X01005Y0476
X0105Y0478
X01045Y04845
X01195Y04795
X01235Y0465
X0127Y04625
X0131Y0463
X01395Y04805
X01435Y04815
X01005Y04325
X0096Y0435
X0095Y04295
X0088Y044
X004Y0428
X00385Y0405
X00335Y0393
X00195Y04715
X00525Y0472
T02
X02105Y04095
X0211Y0453
T03
X01545Y02215
T04
X0049Y02095
X01565Y034
X01735Y0353
X01525Y03775
T05
X01645Y035
Y036
T06
X02675Y0178
X02775
X02875
X0168353Y0094629
X0158353
X0148353
X00625Y01275
Y01375
Y01475
X00525
Y01375
Y01275
X00245
X00145
Y01375
X00245
Y01475
X00145
X001Y01795
X002
X003
X0113Y0485
Y0495
X0123
Y0485
X0133
Y0495
X0176Y04935
Y04835
X0186
Y04935
X0196
Y04835
T07
X0098Y0028
Y0048
X0530079Y02045
X05485
X03245Y0206
X03145
X03045
X0289
X0279
X0269
X00284Y01987
X00106
Y02243
X00284
X00245Y0248
X00145
Y0258
X00245
Y0268
X00145
Y0278
X00245
Y0288
X00145
Y0298
X00245
Y0308
X00145
X0014Y03515
X0024
Y03615
X0014
X01367Y0273
X02175
X0024Y03715
X0014
Y03815
X0024
Y03915
X0014
Y04015
X0024
Y04115
X0014
Y04215
X0024
Y04315
X0014
Y04415
X0024
T08
X0022Y003
Y0048421
X01448Y00096
X01546
X0164618
X01923
X02021
X0212118
T09
X03725Y00105
X03825
X0403Y0011
X0413
X0430231Y0010966
X0440231
T10
X03982Y02025
X04287Y0203
X0458718Y02035
X0489118
T11
X0012Y0012
X0591Y00115
X0592Y02085
X0222Y0230485
X02215Y04905
X0012
T12
X0533553Y0127499
X0493552
X0410151Y0117
X0370151
M30
